SplineFontDB: 3.0
FontName: TEL-NirmalNormal
FullName: TEL Nirmal Normal
FamilyName: TEL Nirmal
Weight: Book
Copyright: Copyright (c) 2009-2015, NLCI (http://www.nlci.in/fonts/)
Version: 1.0 Thu Apr 27 11:50:07 1995
ItalicAngle: 0
UnderlinePosition: -290
UnderlineWidth: 20
Ascent: 800
Descent: 200
InvalidEm: 0
LayerCount: 2
Layer: 0 1 "Back" 1
Layer: 1 1 "Fore" 0
XUID: [1021 887 776598396 14939586]
FSType: 0
OS2Version: 0
OS2_WeightWidthSlopeOnly: 0
OS2_UseTypoMetrics: 1
CreationTime: 1257736623
ModificationTime: 1331279177
PfmFamily: 81
TTFWeight: 400
TTFWidth: 5
LineGap: 0
VLineGap: 0
Panose: 5 0 0 0 0 0 0 0 0 0
OS2TypoAscent: 900
OS2TypoAOffset: 0
OS2TypoDescent: -600
OS2TypoDOffset: 0
OS2TypoLinegap: 0
OS2WinAscent: 900
OS2WinAOffset: 0
OS2WinDescent: 600
OS2WinDOffset: 0
HheadAscent: 900
HheadAOffset: 0
HheadDescent: -600
HheadDOffset: 0
OS2SubXSize: 700
OS2SubYSize: 650
OS2SubXOff: 0
OS2SubYOff: 143
OS2SupXSize: 700
OS2SupYSize: 650
OS2SupXOff: 0
OS2SupYOff: 453
OS2StrikeYSize: 50
OS2StrikeYPos: 259
OS2CapHeight: 0
OS2XHeight: 0
OS2Vendor: 'Alts'
OS2UnicodeRanges: 00200001.00000000.00000000.00000000
Lookup: 4 0 0 "'blwf' Below Base Forms SUB" { "'blwf' Below Base Form (sub)"  } ['blwf' ('telu' <'dflt' > ) ]
Lookup: 6 0 0 "'abvs' Above Base substitution TALLBASE" { "'abvs' Above Base substitution TALLBASE"  } ['abvs' ('telu' <'dflt' > ) ]
Lookup: 4 0 0 "'abvs' Above Base substitution LIGATURES" { "'abvs' Above Base substitution (ligatures)"  } ['abvs' ('telu' <'dflt' > ) ]
Lookup: 6 0 0 "'abvs' Above Base Sub BASE forms of consonants" { "'abvs' Above Base Sub BASE forms of jh and y"  "'abvs' Above Base Sub BASE forms others"  "'abvs' Above Base Sub BASE forms sub forms"  } ['abvs' ('telu' <'dflt' > ) ]
Lookup: 6 0 0 "'abvs' Above Base Sub JOINED I matras" { "'abvs' Above Base Substitutions in Telugu lookup 5 subtable"  } ['abvs' ('telu' <'dflt' > ) ]

StartChar: .notdef
Encoding: 187 -1 0
Width: 500
Flags: W
LayerCount: 2
Back
Fore
SplineSet
31 0 m 1,0,-1
 31 600 l 1,1,-1
 469 600 l 1,2,-1
 469 0 l 1,3,-1
 31 0 l 1,0,-1
438 31 m 1,4,-1
 438 569 l 1,5,-1
 62 569 l 1,6,-1
 62 31 l 1,7,-1
 438 31 l 1,4,-1
EndSplineSet
EndChar

StartChar: exclam
Encoding: 1 33 4
Width: 269
VWidth: 800
Flags: W
LayerCount: 2
Back
Fore
SplineSet
184 39.2002 m 256,0,1
 184 29.5996 184 29.5996 180.4 20.7998 c 128,-1,2
 176.8 12 176.8 12 170 5.2002 c 128,-1,3
 163.2 -1.59961 163.2 -1.59961 154.4 -5.59961 c 128,-1,4
 145.6 -9.59961 145.6 -9.59961 136 -9.59961 c 256,5,6
 126.4 -9.59961 126.4 -9.59961 117.6 -5.59961 c 128,-1,7
 108.8 -1.59961 108.8 -1.59961 102.4 5.2002 c 128,-1,8
 96 12 96 12 92.4004 20.7998 c 128,-1,9
 88.7998 29.5996 88.7998 29.5996 88.7998 39.2002 c 256,10,11
 88.7998 48.7998 88.7998 48.7998 92.4004 57.5996 c 128,-1,12
 96 66.4004 96 66.4004 102.4 72.7998 c 128,-1,13
 108.8 79.2002 108.8 79.2002 117.6 82.7998 c 128,-1,14
 126.4 86.4004 126.4 86.4004 136 86.4004 c 256,15,16
 145.6 86.4004 145.6 86.4004 154.4 82.7998 c 128,-1,17
 163.2 79.2002 163.2 79.2002 170 72.7998 c 128,-1,18
 176.8 66.4004 176.8 66.4004 180.4 57.5996 c 128,-1,19
 184 48.7998 184 48.7998 184 39.2002 c 256,0,1
184 496 m 0,20,21
 184 494.4 184 494.4 182.8 478 c 128,-1,22
 181.6 461.6 181.6 461.6 180 436.8 c 128,-1,23
 178.4 412 178.4 412 176 380.8 c 128,-1,24
 173.6 349.6 173.6 349.6 171.2 317.6 c 0,25,26
 164.8 241.6 164.8 241.6 157.6 146.4 c 1,27,-1
 119.2 146.4 l 1,28,29
 111.2 241.6 111.2 241.6 104.8 317.6 c 0,30,31
 102.4 349.6 102.4 349.6 100 380.8 c 128,-1,32
 97.5996 412 97.5996 412 96 436.8 c 128,-1,33
 94.4004 461.6 94.4004 461.6 93.2002 478 c 128,-1,34
 92 494.4 92 494.4 92 496 c 0,35,36
 92 520 92 520 103.6 533.6 c 128,-1,37
 115.2 547.2 115.2 547.2 140 547.2 c 256,38,39
 164.8 547.2 164.8 547.2 176.4 533.6 c 128,-1,40
 188 520 188 520 184 496 c 0,20,21
EndSplineSet
EndChar

StartChar: quotedbl
Encoding: 2 34 5
Width: 266
VWidth: 800
Flags: W
LayerCount: 2
Back
Fore
SplineSet
75.2002 336 m 1,0,-1
 62.4004 336 l 1,1,-1
 34.4004 531.2 l 1,2,3
 34.4004 549.6 34.4004 549.6 43.2002 559.6 c 128,-1,4
 52 569.6 52 569.6 68 569.6 c 256,5,6
 84 569.6 84 569.6 92 559.6 c 128,-1,7
 100 549.6 100 549.6 100 531.2 c 1,8,-1
 75.2002 336 l 1,0,-1
200.8 336 m 1,9,-1
 188 336 l 1,10,-1
 161.6 531.2 l 1,11,12
 161.6 549.6 161.6 549.6 170 559.6 c 128,-1,13
 178.4 569.6 178.4 569.6 194.4 569.6 c 256,14,15
 210.4 569.6 210.4 569.6 218.8 559.6 c 128,-1,16
 227.2 549.6 227.2 549.6 227.2 531.2 c 1,17,-1
 200.8 336 l 1,9,-1
EndSplineSet
EndChar

StartChar: numbersign
Encoding: 3 35 6
Width: 594
VWidth: 800
Flags: W
LayerCount: 2
Back
Fore
SplineSet
259.2 336 m 1,0,-1
 220 221.6 l 1,1,-1
 336 221.6 l 1,2,-1
 375.2 336 l 1,3,-1
 259.2 336 l 1,0,-1
418.4 336 m 1,4,-1
 381.6 221.6 l 1,5,-1
 510.4 221.6 l 1,6,-1
 510.4 182.4 l 1,7,-1
 367.2 182.4 l 1,8,-1
 300.8 -17.5996 l 1,9,-1
 261.6 -4.7998 l 1,10,-1
 323.2 182.4 l 1,11,-1
 207.2 182.4 l 1,12,-1
 140 -17.5996 l 1,13,-1
 101.6 -4 l 1,14,-1
 165.6 182.4 l 1,15,-1
 52 182.4 l 1,16,-1
 52 221.6 l 1,17,-1
 178.4 221.6 l 1,18,-1
 216.8 336 l 1,19,-1
 87.2002 336 l 1,20,-1
 87.2002 376.8 l 1,21,-1
 230.4 376.8 l 1,22,-1
 294.4 564.8 l 1,23,-1
 334.4 552 l 1,24,-1
 272.8 376.8 l 1,25,-1
 388.8 376.8 l 1,26,-1
 452 564.8 l 1,27,-1
 494.4 552 l 1,28,-1
 433.6 376.8 l 1,29,-1
 545.6 376.8 l 1,30,-1
 545.6 336 l 1,31,-1
 418.4 336 l 1,4,-1
EndSplineSet
EndChar

StartChar: dollar
Encoding: 4 36 7
Width: 449
VWidth: 800
Flags: W
LayerCount: 2
Back
Fore
SplineSet
331.2 136 m 0,0,1
 331.2 157.6 331.2 157.6 324.4 173.2 c 128,-1,2
 317.6 188.8 317.6 188.8 305.6 199.6 c 128,-1,3
 293.6 210.4 293.6 210.4 278 217.6 c 128,-1,4
 262.4 224.8 262.4 224.8 246.4 229.6 c 1,5,-1
 246.4 40.7998 l 1,6,7
 262.4 43.2002 262.4 43.2002 278 50 c 128,-1,8
 293.6 56.7998 293.6 56.7998 305.6 68 c 128,-1,9
 317.6 79.2002 317.6 79.2002 324.4 95.5996 c 128,-1,10
 331.2 112 331.2 112 331.2 136 c 0,0,1
209.6 491.2 m 1,11,12
 193.6 488 193.6 488 180 480.8 c 128,-1,13
 166.4 473.6 166.4 473.6 156.4 462.4 c 128,-1,14
 146.4 451.2 146.4 451.2 140.8 436 c 128,-1,15
 135.2 420.8 135.2 420.8 135.2 401.6 c 256,16,17
 135.2 382.4 135.2 382.4 142.4 368.4 c 128,-1,18
 149.6 354.4 149.6 354.4 160.4 344.8 c 128,-1,19
 171.2 335.2 171.2 335.2 184.4 328.8 c 128,-1,20
 197.6 322.4 197.6 322.4 209.6 318.4 c 1,21,-1
 209.6 491.2 l 1,11,12
404 152.8 m 1,22,23
 404 128.8 404 128.8 396 108.4 c 128,-1,24
 388 88 388 88 375.2 71.5996 c 128,-1,25
 362.4 55.2002 362.4 55.2002 345.6 42.7998 c 128,-1,26
 328.8 30.4004 328.8 30.4004 311.2 22 c 128,-1,27
 293.6 13.5996 293.6 13.5996 277.2 9.2002 c 128,-1,28
 260.8 4.7998 260.8 4.7998 248 4.7998 c 1,29,-1
 248 -77.5996 l 1,30,-1
 211.2 -77.5996 l 1,31,-1
 211.2 4.7998 l 1,32,33
 196.8 4.7998 196.8 4.7998 177.6 5.59961 c 128,-1,34
 158.4 6.40039 158.4 6.40039 137.2 8.40039 c 128,-1,35
 116 10.4004 116 10.4004 94 14 c 128,-1,36
 72 17.5996 72 17.5996 52 23.2002 c 1,37,-1
 52 158.4 l 1,38,-1
 91.2002 158.4 l 1,39,-1
 105.6 69.5996 l 1,40,41
 110.4 63.2002 110.4 63.2002 121.2 58 c 128,-1,42
 132 52.7998 132 52.7998 146.4 49.5996 c 128,-1,43
 160.8 46.4004 160.8 46.4004 177.2 44.7998 c 128,-1,44
 193.6 43.2002 193.6 43.2002 209.6 43.2002 c 1,45,-1
 209.6 244.8 l 1,46,47
 184 250.4 184 250.4 158 260.8 c 128,-1,48
 132 271.2 132 271.2 110.8 288 c 128,-1,49
 89.5996 304.8 89.5996 304.8 76.4004 329.6 c 128,-1,50
 63.2002 354.4 63.2002 354.4 63.2002 388 c 0,51,52
 63.2002 412 63.2002 412 69.5996 431.6 c 128,-1,53
 76 451.2 76 451.2 87.2002 466.4 c 128,-1,54
 98.4004 481.6 98.4004 481.6 113.2 493.2 c 128,-1,55
 128 504.8 128 504.8 144.4 512.8 c 128,-1,56
 160.8 520.8 160.8 520.8 178 526 c 128,-1,57
 195.2 531.2 195.2 531.2 210.4 532.8 c 1,58,-1
 210.4 592.8 l 1,59,-1
 246.4 592.8 l 1,60,-1
 246.4 535.2 l 1,61,62
 272 535.2 272 535.2 296.4 532.4 c 128,-1,63
 320.8 529.6 320.8 529.6 339.2 526.4 c 0,64,65
 360.8 522.4 360.8 522.4 380 518.4 c 1,66,-1
 380 392.8 l 1,67,-1
 338.4 392.8 l 1,68,-1
 327.2 476.8 l 1,69,70
 308.8 496.8 308.8 496.8 245.6 496.8 c 1,71,-1
 245.6 306.4 l 1,72,73
 262.4 301.6 262.4 301.6 280.8 296 c 128,-1,74
 299.2 290.4 299.2 290.4 316.4 282.4 c 128,-1,75
 333.6 274.4 333.6 274.4 349.2 263.6 c 128,-1,76
 364.8 252.8 364.8 252.8 376.4 237.2 c 128,-1,77
 388 221.6 388 221.6 394.8 201.2 c 128,-1,78
 401.6 180.8 401.6 180.8 404 152.8 c 1,22,23
EndSplineSet
EndChar

StartChar: percent
Encoding: 5 37 8
Width: 687
VWidth: 800
Flags: W
LayerCount: 2
Back
Fore
SplineSet
209.6 381.6 m 256,0,1
 209.6 412.8 209.6 412.8 206.4 438 c 128,-1,2
 203.2 463.2 203.2 463.2 196 480.8 c 128,-1,3
 188.8 498.4 188.8 498.4 177.6 508 c 128,-1,4
 166.4 517.6 166.4 517.6 150.4 517.6 c 256,5,6
 134.4 517.6 134.4 517.6 122.8 508 c 128,-1,7
 111.2 498.4 111.2 498.4 103.6 480.8 c 128,-1,8
 96 463.2 96 463.2 92.4004 438 c 128,-1,9
 88.7998 412.8 88.7998 412.8 88.7998 381.6 c 256,10,11
 88.7998 350.4 88.7998 350.4 92.4004 325.2 c 128,-1,12
 96 300 96 300 103.6 282.4 c 128,-1,13
 111.2 264.8 111.2 264.8 122.8 255.2 c 128,-1,14
 134.4 245.6 134.4 245.6 150.4 245.6 c 256,15,16
 166.4 245.6 166.4 245.6 177.6 255.2 c 128,-1,17
 188.8 264.8 188.8 264.8 196 282.4 c 128,-1,18
 203.2 300 203.2 300 206.4 325.2 c 128,-1,19
 209.6 350.4 209.6 350.4 209.6 381.6 c 256,0,1
600 156 m 256,20,21
 600 187.2 600 187.2 596.8 212.4 c 128,-1,22
 593.6 237.6 593.6 237.6 586.4 255.2 c 128,-1,23
 579.2 272.8 579.2 272.8 568 282.4 c 128,-1,24
 556.8 292 556.8 292 540.8 292 c 256,25,26
 524.8 292 524.8 292 513.2 282.4 c 128,-1,27
 501.6 272.8 501.6 272.8 494 255.2 c 128,-1,28
 486.4 237.6 486.4 237.6 482.8 212.4 c 128,-1,29
 479.2 187.2 479.2 187.2 479.2 156 c 256,30,31
 479.2 124.8 479.2 124.8 482.8 99.5996 c 128,-1,32
 486.4 74.4004 486.4 74.4004 494 56.4004 c 128,-1,33
 501.6 38.4004 501.6 38.4004 513.2 28.7998 c 128,-1,34
 524.8 19.2002 524.8 19.2002 540.8 19.2002 c 256,35,36
 556.8 19.2002 556.8 19.2002 568 28.7998 c 128,-1,37
 579.2 38.4004 579.2 38.4004 586.4 56.4004 c 128,-1,38
 593.6 74.4004 593.6 74.4004 596.8 99.5996 c 128,-1,39
 600 124.8 600 124.8 600 156 c 256,20,21
270.4 382.4 m 256,40,41
 270.4 347.2 270.4 347.2 263.2 316.8 c 128,-1,42
 256 286.4 256 286.4 240.8 264 c 128,-1,43
 225.6 241.6 225.6 241.6 202.8 228.8 c 128,-1,44
 180 216 180 216 149.6 216 c 256,45,46
 119.2 216 119.2 216 96.4004 228.8 c 128,-1,47
 73.5996 241.6 73.5996 241.6 58.4004 264 c 128,-1,48
 43.2002 286.4 43.2002 286.4 35.5996 316.8 c 128,-1,49
 28 347.2 28 347.2 28 382.4 c 256,50,51
 28 417.6 28 417.6 35.5996 448.4 c 128,-1,52
 43.2002 479.2 43.2002 479.2 58.4004 501.6 c 128,-1,53
 73.5996 524 73.5996 524 96.4004 536.8 c 128,-1,54
 119.2 549.6 119.2 549.6 149.6 549.6 c 256,55,56
 180 549.6 180 549.6 202.8 536.8 c 128,-1,57
 225.6 524 225.6 524 240.8 501.6 c 128,-1,58
 256 479.2 256 479.2 263.2 448.4 c 128,-1,59
 270.4 417.6 270.4 417.6 270.4 382.4 c 256,40,41
200 0.799805 m 1,60,-1
 150.4 0.799805 l 1,61,-1
 489.6 536.8 l 1,62,-1
 539.2 536.8 l 1,63,-1
 200 0.799805 l 1,60,-1
662.4 155.2 m 256,64,65
 662.4 120 662.4 120 654.8 89.5996 c 128,-1,66
 647.2 59.2002 647.2 59.2002 632 36.7998 c 128,-1,67
 616.8 14.4004 616.8 14.4004 594 1.59961 c 128,-1,68
 571.2 -11.2002 571.2 -11.2002 540.8 -11.2002 c 256,69,70
 510.4 -11.2002 510.4 -11.2002 487.6 1.59961 c 128,-1,71
 464.8 14.4004 464.8 14.4004 449.6 36.7998 c 128,-1,72
 434.4 59.2002 434.4 59.2002 426.8 89.5996 c 128,-1,73
 419.2 120 419.2 120 419.2 155.2 c 256,74,75
 419.2 190.4 419.2 190.4 426.8 221.2 c 128,-1,76
 434.4 252 434.4 252 449.6 274.4 c 128,-1,77
 464.8 296.8 464.8 296.8 487.6 309.6 c 128,-1,78
 510.4 322.4 510.4 322.4 540.8 322.4 c 256,79,80
 571.2 322.4 571.2 322.4 594 309.6 c 128,-1,81
 616.8 296.8 616.8 296.8 632 274.4 c 128,-1,82
 647.2 252 647.2 252 654.8 221.2 c 128,-1,83
 662.4 190.4 662.4 190.4 662.4 155.2 c 256,64,65
EndSplineSet
EndChar

StartChar: glyph9
Encoding: 6 38 9
Width: 559
VWidth: 800
Flags: W
LayerCount: 2
Back
Fore
SplineSet
168.8 266.4 m 1,0,1
 156.8 258.4 156.8 258.4 146.8 248.8 c 128,-1,2
 136.8 239.2 136.8 239.2 129.2 227.6 c 128,-1,3
 121.6 216 121.6 216 117.2 201.6 c 128,-1,4
 112.8 187.2 112.8 187.2 112.8 169.6 c 0,5,6
 112.8 143.2 112.8 143.2 121.6 120.4 c 128,-1,7
 130.4 97.5996 130.4 97.5996 146 81.2002 c 128,-1,8
 161.6 64.7998 161.6 64.7998 182.8 55.5996 c 128,-1,9
 204 46.4004 204 46.4004 228 46.4004 c 0,10,11
 245.6 46.4004 245.6 46.4004 260.4 50 c 128,-1,12
 275.2 53.5996 275.2 53.5996 287.6 59.5996 c 128,-1,13
 300 65.5996 300 65.5996 310.8 73.5996 c 128,-1,14
 321.6 81.5996 321.6 81.5996 331.2 89.5996 c 1,15,-1
 168.8 266.4 l 1,0,1
287.2 423.2 m 0,16,17
 287.2 440 287.2 440 282.8 455.6 c 128,-1,18
 278.4 471.2 278.4 471.2 269.2 482.8 c 128,-1,19
 260 494.4 260 494.4 246 501.2 c 128,-1,20
 232 508 232 508 213.6 508 c 0,21,22
 197.6 508 197.6 508 184.4 502.4 c 128,-1,23
 171.2 496.8 171.2 496.8 162 486.8 c 128,-1,24
 152.8 476.8 152.8 476.8 148 463.2 c 128,-1,25
 143.2 449.6 143.2 449.6 143.2 434.4 c 0,26,27
 143.2 415.2 143.2 415.2 150.8 398 c 128,-1,28
 158.4 380.8 158.4 380.8 169.2 366.4 c 128,-1,29
 180 352 180 352 192.8 340 c 128,-1,30
 205.6 328 205.6 328 216 317.6 c 1,31,32
 232.8 325.6 232.8 325.6 246 335.6 c 128,-1,33
 259.2 345.6 259.2 345.6 268 358.4 c 128,-1,34
 276.8 371.2 276.8 371.2 281.6 387.2 c 128,-1,35
 286.4 403.2 286.4 403.2 287.2 423.2 c 0,16,17
392 2.40039 m 1,36,-1
 392 20.7998 l 1,37,-1
 356.8 60.7998 l 1,38,39
 341.6 48.7998 341.6 48.7998 325.2 36.7998 c 128,-1,40
 308.8 24.7998 308.8 24.7998 289.6 15.2002 c 128,-1,41
 270.4 5.59961 270.4 5.59961 247.6 -0.400391 c 128,-1,42
 224.8 -6.40039 224.8 -6.40039 196.8 -6.40039 c 0,43,44
 163.2 -6.40039 163.2 -6.40039 133.2 5.2002 c 128,-1,45
 103.2 16.7998 103.2 16.7998 80.7998 37.5996 c 128,-1,46
 58.4004 58.4004 58.4004 58.4004 45.5996 87.2002 c 128,-1,47
 32.7998 116 32.7998 116 32.7998 149.6 c 0,48,49
 32.7998 175.2 32.7998 175.2 40.4004 196.8 c 128,-1,50
 48 218.4 48 218.4 62 235.6 c 128,-1,51
 76 252.8 76 252.8 95.5996 266 c 128,-1,52
 115.2 279.2 115.2 279.2 138.4 288.8 c 1,53,54
 132 295.2 132 295.2 120.8 306.4 c 128,-1,55
 109.6 317.6 109.6 317.6 98.7998 333.2 c 128,-1,56
 88 348.8 88 348.8 80 368 c 128,-1,57
 72 387.2 72 387.2 72 409.6 c 0,58,59
 72 439.2 72 439.2 83.2002 464 c 128,-1,60
 94.4004 488.8 94.4004 488.8 114.8 506.4 c 128,-1,61
 135.2 524 135.2 524 162.8 533.6 c 128,-1,62
 190.4 543.2 190.4 543.2 222.4 543.2 c 0,63,64
 252.8 543.2 252.8 543.2 278.4 534.4 c 128,-1,65
 304 525.6 304 525.6 322.4 509.6 c 128,-1,66
 340.8 493.6 340.8 493.6 351.2 471.6 c 128,-1,67
 361.6 449.6 361.6 449.6 361.6 424 c 0,68,69
 361.6 395.2 361.6 395.2 351.6 373.6 c 128,-1,70
 341.6 352 341.6 352 325.2 335.6 c 128,-1,71
 308.8 319.2 308.8 319.2 288 307.2 c 128,-1,72
 267.2 295.2 267.2 295.2 245.6 285.6 c 1,73,-1
 379.2 140.8 l 1,74,75
 384.8 148.8 384.8 148.8 392 160 c 128,-1,76
 399.2 171.2 399.2 171.2 405.6 183.6 c 128,-1,77
 412 196 412 196 416.8 208.8 c 128,-1,78
 421.6 221.6 421.6 221.6 422.4 232.8 c 0,79,80
 422.4 236 422.4 236 418 241.2 c 128,-1,81
 413.6 246.4 413.6 246.4 408.8 246.4 c 2,82,-1
 365.6 252 l 1,83,-1
 365.6 284.8 l 1,84,-1
 529.6 284.8 l 1,85,-1
 529.6 252 l 1,86,-1
 472.8 244 l 1,87,88
 467.2 224 467.2 224 459.2 205.2 c 128,-1,89
 451.2 186.4 451.2 186.4 442.4 169.2 c 128,-1,90
 433.6 152 433.6 152 424 137.2 c 128,-1,91
 414.4 122.4 414.4 122.4 406.4 110.4 c 1,92,-1
 471.2 36 l 1,93,-1
 542.4 32.7998 l 1,94,-1
 542.4 -0.799805 l 1,95,-1
 392 2.40039 l 1,36,-1
EndSplineSet
EndChar

StartChar: quotesingle
Encoding: 7 39 10
Width: 136
VWidth: 800
Flags: W
LayerCount: 2
Back
Fore
SplineSet
75.2002 336 m 1,0,-1
 62.4004 336 l 1,1,-1
 34.4004 531.2 l 1,2,3
 34.4004 549.6 34.4004 549.6 42.7998 559.6 c 128,-1,4
 51.2002 569.6 51.2002 569.6 67.2002 569.6 c 256,5,6
 83.2002 569.6 83.2002 569.6 91.5996 559.6 c 128,-1,7
 100 549.6 100 549.6 100 531.2 c 1,8,-1
 75.2002 336 l 1,0,-1
EndSplineSet
EndChar

StartChar: parenleft
Encoding: 8 40 11
Width: 300
VWidth: 800
Flags: W
LayerCount: 2
Back
Fore
SplineSet
273.6 -113.6 m 1,0,1
 232 -109.6 232 -109.6 199.2 -94.7998 c 128,-1,2
 166.4 -80 166.4 -80 141.6 -56.4004 c 128,-1,3
 116.8 -32.7998 116.8 -32.7998 99.2002 -2 c 128,-1,4
 81.5996 28.7998 81.5996 28.7998 70.7998 65.2002 c 128,-1,5
 60 101.6 60 101.6 54.7998 142.8 c 128,-1,6
 49.5996 184 49.5996 184 49.5996 227.2 c 0,7,8
 49.5996 292 49.5996 292 61.2002 350.8 c 128,-1,9
 72.7998 409.6 72.7998 409.6 99.5996 455.6 c 128,-1,10
 126.4 501.6 126.4 501.6 169.2 531.2 c 128,-1,11
 212 560.8 212 560.8 274.4 567.2 c 1,12,-1
 274.4 532.8 l 1,13,14
 232.8 526.4 232.8 526.4 204 502.4 c 128,-1,15
 175.2 478.4 175.2 478.4 157.2 439.2 c 128,-1,16
 139.2 400 139.2 400 131.2 346.4 c 128,-1,17
 123.2 292.8 123.2 292.8 123.2 226.4 c 256,18,19
 123.2 160 123.2 160 131.2 106.4 c 128,-1,20
 139.2 52.7998 139.2 52.7998 157.2 13.2002 c 128,-1,21
 175.2 -26.4004 175.2 -26.4004 204 -50.4004 c 128,-1,22
 232.8 -74.4004 232.8 -74.4004 274.4 -80.7998 c 1,23,-1
 273.6 -113.6 l 1,0,1
EndSplineSet
EndChar

StartChar: parenright
Encoding: 9 41 12
Width: 300
VWidth: 800
Flags: W
LayerCount: 2
Back
Fore
SplineSet
253.6 230.4 m 1,0,1
 253.6 187.2 253.6 187.2 248.4 146 c 128,-1,2
 243.2 104.8 243.2 104.8 232.4 68.4004 c 128,-1,3
 221.6 32 221.6 32 204 1.2002 c 128,-1,4
 186.4 -29.5996 186.4 -29.5996 161.6 -53.2002 c 128,-1,5
 136.8 -76.7998 136.8 -76.7998 104 -91.5996 c 128,-1,6
 71.2002 -106.4 71.2002 -106.4 29.5996 -110.4 c 1,7,-1
 29.5996 -76 l 1,8,9
 71.2002 -69.5996 71.2002 -69.5996 100 -45.5996 c 128,-1,10
 128.8 -21.5996 128.8 -21.5996 146.4 18 c 128,-1,11
 164 57.5996 164 57.5996 172 111.2 c 128,-1,12
 180 164.8 180 164.8 180 231.2 c 256,13,14
 180 297.6 180 297.6 172 351.2 c 128,-1,15
 164 404.8 164 404.8 146.4 444 c 128,-1,16
 128.8 483.2 128.8 483.2 100 507.2 c 128,-1,17
 71.2002 531.2 71.2002 531.2 29.5996 537.6 c 1,18,-1
 29.5996 572 l 1,19,20
 92 565.6 92 565.6 135.2 536 c 128,-1,21
 178.4 506.4 178.4 506.4 205.2 460.4 c 128,-1,22
 232 414.4 232 414.4 243.6 355.6 c 128,-1,23
 255.2 296.8 255.2 296.8 253.6 230.4 c 1,0,1
EndSplineSet
EndChar

StartChar: asterisk
Encoding: 10 42 13
Width: 400
VWidth: 800
Flags: W
LayerCount: 2
Back
Fore
SplineSet
158.4 289.6 m 1,0,-1
 103.2 269.6 l 1,1,-1
 104 328.8 l 1,2,-1
 184.8 393.6 l 1,3,-1
 194.4 386.4 l 1,4,-1
 158.4 289.6 l 1,0,-1
181.6 404 m 1,5,-1
 78.4004 409.6 l 1,6,-1
 43.2002 454.4 l 1,7,-1
 99.2002 470.4 l 1,8,-1
 184.8 414.4 l 1,9,-1
 181.6 404 l 1,5,-1
240 288.8 m 1,10,-1
 204 384.8 l 1,11,-1
 213.6 392 l 1,12,-1
 294.4 327.2 l 1,13,-1
 295.2 268 l 1,14,-1
 240 288.8 l 1,10,-1
204 421.6 m 1,15,-1
 193.6 421.6 l 1,16,-1
 166.4 521.6 l 1,17,-1
 199.2 570.4 l 1,18,-1
 232 521.6 l 1,19,-1
 204 421.6 l 1,15,-1
319.2 408.8 m 1,20,-1
 216.8 403.2 l 1,21,-1
 213.6 414.4 l 1,22,-1
 299.2 470.4 l 1,23,-1
 355.2 454.4 l 1,24,-1
 319.2 408.8 l 1,20,-1
EndSplineSet
EndChar

StartChar: plus
Encoding: 11 43 14
Width: 800
VWidth: 800
Flags: W
LayerCount: 2
Back
Fore
SplineSet
424 215.2 m 1,0,-1
 424 0 l 1,1,-1
 375.2 0 l 1,2,-1
 375.2 215.2 l 1,3,-1
 160 215.2 l 1,4,-1
 160 264.8 l 1,5,-1
 375.2 264.8 l 1,6,-1
 375.2 480 l 1,7,-1
 424 480 l 1,8,-1
 424 264.8 l 1,9,-1
 639.2 264.8 l 1,10,-1
 639.2 215.2 l 1,11,-1
 424 215.2 l 1,0,-1
EndSplineSet
EndChar

StartChar: comma
Encoding: 12 44 15
Width: 223
VWidth: 800
Flags: W
LayerCount: 2
Back
Fore
SplineSet
164.8 7.2002 m 0,0,1
 164.8 -22.4004 164.8 -22.4004 153.6 -47.2002 c 128,-1,2
 142.4 -72 142.4 -72 123.2 -90.7998 c 128,-1,3
 104 -109.6 104 -109.6 79.2002 -120.8 c 128,-1,4
 54.4004 -132 54.4004 -132 27.2002 -133.6 c 1,5,-1
 27.2002 -104.8 l 1,6,7
 48 -100.8 48 -100.8 64.4004 -92.7998 c 128,-1,8
 80.7998 -84.7998 80.7998 -84.7998 91.5996 -72 c 128,-1,9
 102.4 -59.2002 102.4 -59.2002 108 -40.4004 c 128,-1,10
 113.6 -21.5996 113.6 -21.5996 113.6 5.59961 c 1,11,-1
 64 5.59961 l 1,12,13
 64 5.59961 64 5.59961 62 8.40039 c 128,-1,14
 60 11.2002 60 11.2002 57.5996 15.5996 c 128,-1,15
 55.2002 20 55.2002 20 53.5996 26.4004 c 128,-1,16
 52 32.7998 52 32.7998 52 40.7998 c 0,17,18
 52 51.2002 52 51.2002 55.5996 60.7998 c 128,-1,19
 59.2002 70.4004 59.2002 70.4004 65.5996 78 c 128,-1,20
 72 85.5996 72 85.5996 80.7998 90 c 128,-1,21
 89.5996 94.4004 89.5996 94.4004 100 94.4004 c 0,22,23
 116.8 94.4004 116.8 94.4004 129.2 87.5996 c 128,-1,24
 141.6 80.7998 141.6 80.7998 149.6 69.2002 c 128,-1,25
 157.6 57.5996 157.6 57.5996 161.2 41.2002 c 128,-1,26
 164.8 24.7998 164.8 24.7998 164.8 7.2002 c 0,0,1
EndSplineSet
EndChar

StartChar: hyphen
Encoding: 13 45 16
Width: 255
VWidth: 800
Flags: W
LayerCount: 2
Back
Fore
SplineSet
34.4004 232.4 m 5,0,-1
 34.4004 291.6 l 5,1,-1
 219.2 291.6 l 5,2,-1
 219.2 232.4 l 5,3,-1
 34.4004 232.4 l 5,0,-1
EndSplineSet
EndChar

StartChar: period
Encoding: 14 46 17
Width: 223
VWidth: 800
Flags: W
LayerCount: 2
Back
Fore
SplineSet
156 44 m 0,0,1
 156 32.7998 156 32.7998 152 23.2002 c 128,-1,2
 148 13.5996 148 13.5996 140.8 6.40039 c 128,-1,3
 133.6 -0.799805 133.6 -0.799805 124 -4.7998 c 128,-1,4
 114.4 -8.7998 114.4 -8.7998 104 -8.7998 c 0,5,6
 92.7998 -8.7998 92.7998 -8.7998 83.5996 -4.7998 c 128,-1,7
 74.4004 -0.799805 74.4004 -0.799805 67.2002 6.40039 c 128,-1,8
 60 13.5996 60 13.5996 56 23.2002 c 128,-1,9
 52 32.7998 52 32.7998 52 44 c 0,10,11
 52 54.4004 52 54.4004 56 64 c 128,-1,12
 60 73.5996 60 73.5996 67.2002 80.7998 c 128,-1,13
 74.4004 88 74.4004 88 83.5996 92 c 128,-1,14
 92.7998 96 92.7998 96 104 96 c 0,15,16
 114.4 96 114.4 96 124 92 c 128,-1,17
 133.6 88 133.6 88 140.8 80.7998 c 128,-1,18
 148 73.5996 148 73.5996 152 64 c 128,-1,19
 156 54.4004 156 54.4004 156 44 c 0,0,1
EndSplineSet
EndChar

StartChar: slash
Encoding: 15 47 18
Width: 392
VWidth: 800
Flags: W
LayerCount: 2
Back
Fore
SplineSet
50.4004 -73.5996 m 1,0,-1
 0 -73.5996 l 1,1,-1
 340 536.8 l 1,2,-1
 391.2 536.8 l 1,3,-1
 50.4004 -73.5996 l 1,0,-1
EndSplineSet
EndChar

StartChar: zero
Encoding: 16 48 19
Width: 449
VWidth: 800
Flags: W
LayerCount: 2
Back
Fore
SplineSet
332.8 267.2 m 256,0,1
 332.8 296.8 332.8 296.8 330.8 326 c 128,-1,2
 328.8 355.2 328.8 355.2 324 382 c 128,-1,3
 319.2 408.8 319.2 408.8 311.2 431.6 c 128,-1,4
 303.2 454.4 303.2 454.4 291.2 470.8 c 128,-1,5
 279.2 487.2 279.2 487.2 262.8 496.4 c 128,-1,6
 246.4 505.6 246.4 505.6 225.6 505.6 c 256,7,8
 204.8 505.6 204.8 505.6 188.4 496.4 c 128,-1,9
 172 487.2 172 487.2 160.4 470.8 c 128,-1,10
 148.8 454.4 148.8 454.4 140.8 431.6 c 128,-1,11
 132.8 408.8 132.8 408.8 128 382 c 128,-1,12
 123.2 355.2 123.2 355.2 121.2 326 c 128,-1,13
 119.2 296.8 119.2 296.8 119.2 267.2 c 256,14,15
 119.2 237.6 119.2 237.6 121.2 208.4 c 128,-1,16
 123.2 179.2 123.2 179.2 128 152.8 c 128,-1,17
 132.8 126.4 132.8 126.4 140.8 103.6 c 128,-1,18
 148.8 80.7998 148.8 80.7998 160.4 64.4004 c 128,-1,19
 172 48 172 48 188.4 38.7998 c 128,-1,20
 204.8 29.5996 204.8 29.5996 225.6 29.5996 c 256,21,22
 246.4 29.5996 246.4 29.5996 262.8 38.7998 c 128,-1,23
 279.2 48 279.2 48 291.2 64.4004 c 128,-1,24
 303.2 80.7998 303.2 80.7998 311.2 103.6 c 128,-1,25
 319.2 126.4 319.2 126.4 324 152.8 c 128,-1,26
 328.8 179.2 328.8 179.2 330.8 208.4 c 128,-1,27
 332.8 237.6 332.8 237.6 332.8 267.2 c 256,0,1
416.8 267.2 m 1,28,29
 416.8 210.4 416.8 210.4 405.2 159.6 c 128,-1,30
 393.6 108.8 393.6 108.8 369.6 70.7998 c 128,-1,31
 345.6 32.7998 345.6 32.7998 309.2 10.4004 c 128,-1,32
 272.8 -12 272.8 -12 224 -12 c 256,33,34
 175.2 -12 175.2 -12 139.2 10.4004 c 128,-1,35
 103.2 32.7998 103.2 32.7998 79.2002 70.7998 c 128,-1,36
 55.2002 108.8 55.2002 108.8 43.5996 159.6 c 128,-1,37
 32 210.4 32 210.4 32 267.2 c 0,38,39
 32 304.8 32 304.8 37.2002 340.4 c 128,-1,40
 42.4004 376 42.4004 376 52.7998 407.2 c 128,-1,41
 63.2002 438.4 63.2002 438.4 78.7998 464 c 128,-1,42
 94.4004 489.6 94.4004 489.6 115.6 508 c 128,-1,43
 136.8 526.4 136.8 526.4 163.6 536.4 c 128,-1,44
 190.4 546.4 190.4 546.4 222.4 546.4 c 256,45,46
 254.4 546.4 254.4 546.4 281.2 536.4 c 128,-1,47
 308 526.4 308 526.4 329.2 508 c 128,-1,48
 350.4 489.6 350.4 489.6 366.4 464 c 128,-1,49
 382.4 438.4 382.4 438.4 392.8 407.2 c 128,-1,50
 403.2 376 403.2 376 408.4 340.4 c 128,-1,51
 413.6 304.8 413.6 304.8 416.8 267.2 c 1,28,29
EndSplineSet
EndChar

StartChar: one
Encoding: 17 49 20
Width: 449
VWidth: 800
Flags: W
LayerCount: 2
Back
Fore
SplineSet
85.5996 0 m 1,0,-1
 85.5996 35.2002 l 1,1,-1
 166.4 37.5996 l 2,2,3
 173.6 37.5996 173.6 37.5996 178.4 42.7998 c 128,-1,4
 183.2 48 183.2 48 183.2 54.4004 c 2,5,-1
 183.2 479.2 l 1,6,-1
 60 458.4 l 1,7,-1
 60 493.6 l 1,8,-1
 232 546.4 l 1,9,-1
 262.4 546.4 l 1,10,-1
 262.4 53.5996 l 2,11,12
 262.4 47.2002 262.4 47.2002 267.2 42 c 128,-1,13
 272 36.7998 272 36.7998 279.2 36.7998 c 2,14,-1
 353.6 34.4004 l 1,15,-1
 353.6 -0.799805 l 1,16,-1
 85.5996 0 l 1,0,-1
EndSplineSet
EndChar

StartChar: two
Encoding: 18 50 21
Width: 449
VWidth: 800
Flags: W
LayerCount: 2
Back
Fore
SplineSet
36.7998 0 m 1,0,-1
 36.7998 52.7998 l 1,1,2
 97.5996 102.4 97.5996 102.4 148.4 144.4 c 128,-1,3
 199.2 186.4 199.2 186.4 236.4 225.6 c 128,-1,4
 273.6 264.8 273.6 264.8 294 302.8 c 128,-1,5
 314.4 340.8 314.4 340.8 314.4 382.4 c 0,6,7
 314.4 411.2 314.4 411.2 305.6 433.6 c 128,-1,8
 296.8 456 296.8 456 281.6 471.2 c 128,-1,9
 266.4 486.4 266.4 486.4 245.6 494.4 c 128,-1,10
 224.8 502.4 224.8 502.4 201.6 502.4 c 0,11,12
 188 502.4 188 502.4 176.8 499.6 c 128,-1,13
 165.6 496.8 165.6 496.8 157.2 493.2 c 128,-1,14
 148.8 489.6 148.8 489.6 143.6 486.8 c 128,-1,15
 138.4 484 138.4 484 137.6 484 c 1,16,-1
 137.6 396 l 1,17,18
 133.6 392.8 133.6 392.8 128 390.4 c 0,19,20
 123.2 388 123.2 388 116 386.4 c 128,-1,21
 108.8 384.8 108.8 384.8 100 384.8 c 256,22,23
 91.2002 384.8 91.2002 384.8 82.7998 387.6 c 128,-1,24
 74.4004 390.4 74.4004 390.4 67.5996 396 c 128,-1,25
 60.7998 401.6 60.7998 401.6 57.2002 410 c 128,-1,26
 53.5996 418.4 53.5996 418.4 53.5996 430.4 c 0,27,28
 53.5996 455.2 53.5996 455.2 67.5996 476.8 c 128,-1,29
 81.5996 498.4 81.5996 498.4 105.6 514.4 c 128,-1,30
 129.6 530.4 129.6 530.4 161.2 539.2 c 128,-1,31
 192.8 548 192.8 548 227.2 548 c 0,32,33
 265.6 548 265.6 548 298.4 536.8 c 128,-1,34
 331.2 525.6 331.2 525.6 354.8 505.2 c 128,-1,35
 378.4 484.8 378.4 484.8 391.6 456.4 c 128,-1,36
 404.8 428 404.8 428 404.8 393.6 c 0,37,38
 404.8 365.6 404.8 365.6 394.4 338.4 c 128,-1,39
 384 311.2 384 311.2 364.8 284.8 c 128,-1,40
 345.6 258.4 345.6 258.4 319.6 232 c 128,-1,41
 293.6 205.6 293.6 205.6 262.8 178.8 c 128,-1,42
 232 152 232 152 197.2 124.8 c 128,-1,43
 162.4 97.5996 162.4 97.5996 127.2 69.5996 c 1,44,-1
 364 69.5996 l 1,45,-1
 377.6 137.6 l 1,46,-1
 416.8 137.6 l 1,47,-1
 416.8 2.40039 l 1,48,-1
 36.7998 0 l 1,0,-1
EndSplineSet
EndChar

StartChar: three
Encoding: 19 51 22
Width: 449
VWidth: 800
Flags: W
LayerCount: 2
Back
Fore
SplineSet
412.8 152 m 0,0,1
 412.8 116 412.8 116 396.4 85.5996 c 128,-1,2
 380 55.2002 380 55.2002 351.6 33.5996 c 128,-1,3
 323.2 12 323.2 12 285.2 0 c 128,-1,4
 247.2 -12 247.2 -12 204 -12 c 0,5,6
 164 -12 164 -12 133.2 -3.2002 c 128,-1,7
 102.4 5.59961 102.4 5.59961 81.5996 19.5996 c 128,-1,8
 60.7998 33.5996 60.7998 33.5996 50.4004 50 c 128,-1,9
 40 66.4004 40 66.4004 40 80.7998 c 0,10,11
 40 88.7998 40 88.7998 42.7998 96.4004 c 128,-1,12
 45.5996 104 45.5996 104 51.2002 110 c 128,-1,13
 56.7998 116 56.7998 116 65.2002 119.6 c 128,-1,14
 73.5996 123.2 73.5996 123.2 85.5996 123.2 c 0,15,16
 89.5996 123.2 89.5996 123.2 98 122.4 c 128,-1,17
 106.4 121.6 106.4 121.6 111.2 118.4 c 1,18,-1
 134.4 48 l 1,19,20
 149.6 39.2002 149.6 39.2002 166.8 33.5996 c 128,-1,21
 184 28 184 28 202.4 28 c 0,22,23
 230.4 28 230.4 28 253.2 38.4004 c 128,-1,24
 276 48.7998 276 48.7998 292.4 66 c 128,-1,25
 308.8 83.2002 308.8 83.2002 317.6 105.6 c 128,-1,26
 326.4 128 326.4 128 326.4 152 c 0,27,28
 326.4 180.8 326.4 180.8 315.2 200 c 128,-1,29
 304 219.2 304 219.2 286.8 230.4 c 128,-1,30
 269.6 241.6 269.6 241.6 248.8 246.4 c 128,-1,31
 228 251.2 228 251.2 208.8 251.2 c 0,32,33
 198.4 251.2 198.4 251.2 189.6 251.2 c 128,-1,34
 180.8 251.2 180.8 251.2 174.4 251.2 c 0,35,36
 167.2 251.2 167.2 251.2 161.6 251.2 c 1,37,-1
 161.6 300.8 l 1,38,39
 162.4 300.8 162.4 300.8 168.8 300.8 c 128,-1,40
 175.2 300.8 175.2 300.8 180.8 300.8 c 0,41,42
 205.6 300.8 205.6 300.8 228.8 306.8 c 128,-1,43
 252 312.8 252 312.8 269.6 324.8 c 128,-1,44
 287.2 336.8 287.2 336.8 297.6 355.6 c 128,-1,45
 308 374.4 308 374.4 308 400.8 c 0,46,47
 308 425.6 308 425.6 299.6 444.8 c 128,-1,48
 291.2 464 291.2 464 276.8 477.2 c 128,-1,49
 262.4 490.4 262.4 490.4 243.6 497.2 c 128,-1,50
 224.8 504 224.8 504 204.8 504 c 0,51,52
 188.8 504 188.8 504 175.6 500.8 c 128,-1,53
 162.4 497.6 162.4 497.6 153.6 493.6 c 1,54,55
 142.4 489.6 142.4 489.6 134.4 484 c 1,56,-1
 134.4 404 l 1,57,58
 132.8 403.2 132.8 403.2 123.6 398.8 c 128,-1,59
 114.4 394.4 114.4 394.4 100 394.4 c 0,60,61
 93.5996 394.4 93.5996 394.4 85.5996 396.4 c 128,-1,62
 77.5996 398.4 77.5996 398.4 70.7998 403.2 c 128,-1,63
 64 408 64 408 59.5996 416.4 c 128,-1,64
 55.2002 424.8 55.2002 424.8 55.2002 437.6 c 0,65,66
 55.2002 460 55.2002 460 69.2002 480.4 c 128,-1,67
 83.2002 500.8 83.2002 500.8 107.2 516 c 128,-1,68
 131.2 531.2 131.2 531.2 163.2 540 c 128,-1,69
 195.2 548.8 195.2 548.8 230.4 548.8 c 0,70,71
 264.8 548.8 264.8 548.8 294.4 539.2 c 128,-1,72
 324 529.6 324 529.6 346 512 c 128,-1,73
 368 494.4 368 494.4 380.4 469.2 c 128,-1,74
 392.8 444 392.8 444 392.8 412.8 c 0,75,76
 392.8 368 392.8 368 361.2 334.8 c 128,-1,77
 329.6 301.6 329.6 301.6 270.4 285.6 c 1,78,79
 295.2 284.8 295.2 284.8 320.8 276.8 c 128,-1,80
 346.4 268.8 346.4 268.8 366.8 253.2 c 128,-1,81
 387.2 237.6 387.2 237.6 400 213.6 c 128,-1,82
 412.8 189.6 412.8 189.6 412.8 152 c 0,0,1
EndSplineSet
EndChar

StartChar: four
Encoding: 20 52 23
Width: 449
VWidth: 800
Flags: W
LayerCount: 2
Back
Fore
SplineSet
275.2 447.2 m 1,0,-1
 95.2002 214.4 l 1,1,-1
 275.2 214.4 l 1,2,-1
 275.2 447.2 l 1,0,-1
349.6 160.8 m 1,3,-1
 349.6 -11.2002 l 1,4,-1
 275.2 -11.2002 l 1,5,-1
 275.2 160.8 l 1,6,-1
 32 160.8 l 1,7,-1
 32 215.2 l 1,8,-1
 294.4 549.6 l 1,9,-1
 349.6 549.6 l 1,10,-1
 349.6 214.4 l 1,11,-1
 416.8 214.4 l 1,12,-1
 416.8 160.8 l 1,13,-1
 349.6 160.8 l 1,3,-1
EndSplineSet
EndChar

StartChar: five
Encoding: 21 53 24
Width: 449
VWidth: 800
Flags: W
LayerCount: 2
Back
Fore
SplineSet
413.6 172.8 m 1,0,1
 413.6 132.8 413.6 132.8 399.2 98.7998 c 128,-1,2
 384.8 64.7998 384.8 64.7998 356.4 40 c 128,-1,3
 328 15.2002 328 15.2002 286 1.59961 c 128,-1,4
 244 -12 244 -12 189.6 -12 c 0,5,6
 158.4 -12 158.4 -12 131.2 -3.2002 c 128,-1,7
 104 5.59961 104 5.59961 83.5996 19.2002 c 128,-1,8
 63.2002 32.7998 63.2002 32.7998 51.2002 49.2002 c 128,-1,9
 39.2002 65.5996 39.2002 65.5996 39.2002 80.7998 c 0,10,11
 39.2002 102.4 39.2002 102.4 53.2002 113.6 c 128,-1,12
 67.2002 124.8 67.2002 124.8 88.7998 124.8 c 0,13,14
 95.2002 124.8 95.2002 124.8 101.2 123.6 c 128,-1,15
 107.2 122.4 107.2 122.4 108.8 122.4 c 1,16,-1
 139.2 49.5996 l 1,17,18
 143.2 45.5996 143.2 45.5996 150.8 41.5996 c 128,-1,19
 158.4 37.5996 158.4 37.5996 166.8 34.7998 c 128,-1,20
 175.2 32 175.2 32 183.6 30.4004 c 128,-1,21
 192 28.7998 192 28.7998 198.4 28.7998 c 0,22,23
 229.6 28.7998 229.6 28.7998 254 40.4004 c 128,-1,24
 278.4 52 278.4 52 294.8 70.4004 c 128,-1,25
 311.2 88.7998 311.2 88.7998 319.6 111.2 c 128,-1,26
 328 133.6 328 133.6 328 154.4 c 0,27,28
 328 187.2 328 187.2 317.6 212 c 128,-1,29
 307.2 236.8 307.2 236.8 289.2 253.2 c 128,-1,30
 271.2 269.6 271.2 269.6 246.4 277.6 c 128,-1,31
 221.6 285.6 221.6 285.6 192.8 285.6 c 0,32,33
 173.6 285.6 173.6 285.6 151.6 281.6 c 128,-1,34
 129.6 277.6 129.6 277.6 111.2 272.8 c 0,35,36
 89.5996 267.2 89.5996 267.2 68 260 c 1,37,-1
 68 536.8 l 1,38,-1
 376.8 536.8 l 1,39,-1
 376.8 469.6 l 1,40,-1
 124.8 469.6 l 1,41,-1
 124.8 318.4 l 1,42,43
 124.8 318.4 124.8 318.4 134 321.6 c 128,-1,44
 143.2 324.8 143.2 324.8 158.4 328.4 c 128,-1,45
 173.6 332 173.6 332 192.4 335.2 c 128,-1,46
 211.2 338.4 211.2 338.4 230.4 338.4 c 0,47,48
 272 338.4 272 338.4 305.2 327.6 c 128,-1,49
 338.4 316.8 338.4 316.8 361.6 296 c 128,-1,50
 384.8 275.2 384.8 275.2 397.2 244.8 c 128,-1,51
 409.6 214.4 409.6 214.4 413.6 172.8 c 1,0,1
EndSplineSet
EndChar

StartChar: six
Encoding: 22 54 25
Width: 449
VWidth: 800
Flags: W
LayerCount: 2
Back
Fore
SplineSet
336 172 m 0,0,1
 336 200.8 336 200.8 328.4 224 c 128,-1,2
 320.8 247.2 320.8 247.2 306.4 263.2 c 128,-1,3
 292 279.2 292 279.2 271.2 287.2 c 128,-1,4
 250.4 295.2 250.4 295.2 224 295.2 c 0,5,6
 211.2 295.2 211.2 295.2 197.2 292.4 c 128,-1,7
 183.2 289.6 183.2 289.6 169.2 284.4 c 128,-1,8
 155.2 279.2 155.2 279.2 142 272 c 128,-1,9
 128.8 264.8 128.8 264.8 117.6 256 c 1,10,11
 116.8 244 116.8 244 116.8 233.2 c 128,-1,12
 116.8 222.4 116.8 222.4 116.8 213.6 c 0,13,14
 116.8 172.8 116.8 172.8 122.8 139.2 c 128,-1,15
 128.8 105.6 128.8 105.6 142 81.2002 c 128,-1,16
 155.2 56.7998 155.2 56.7998 175.6 43.5996 c 128,-1,17
 196 30.4004 196 30.4004 224.8 30.4004 c 256,18,19
 253.6 30.4004 253.6 30.4004 274.8 41.5996 c 128,-1,20
 296 52.7998 296 52.7998 309.6 72 c 128,-1,21
 323.2 91.2002 323.2 91.2002 330 117.2 c 128,-1,22
 336.8 143.2 336.8 143.2 336 172 c 0,0,1
418.4 183.2 m 1,23,24
 418.4 140 418.4 140 403.2 104 c 128,-1,25
 388 68 388 68 362 42.4004 c 128,-1,26
 336 16.7998 336 16.7998 300.8 2.7998 c 128,-1,27
 265.6 -11.2002 265.6 -11.2002 225.6 -11.2002 c 256,28,29
 185.6 -11.2002 185.6 -11.2002 150.8 2 c 128,-1,30
 116 15.2002 116 15.2002 90.4004 44 c 128,-1,31
 64.7998 72.7998 64.7998 72.7998 50 118.8 c 128,-1,32
 35.2002 164.8 35.2002 164.8 35.2002 230.4 c 0,33,34
 35.2002 301.6 35.2002 301.6 56.4004 360.4 c 128,-1,35
 77.5996 419.2 77.5996 419.2 118.4 461.2 c 128,-1,36
 159.2 503.2 159.2 503.2 218.4 526 c 128,-1,37
 277.6 548.8 277.6 548.8 353.6 548.8 c 1,38,-1
 353.6 499.2 l 1,39,-1
 326.4 499.2 l 1,40,41
 288.8 500 288.8 500 254.4 486.8 c 128,-1,42
 220 473.6 220 473.6 192.8 447.6 c 128,-1,43
 165.6 421.6 165.6 421.6 147.2 384 c 128,-1,44
 128.8 346.4 128.8 346.4 123.2 299.2 c 1,45,46
 156 327.2 156 327.2 189.2 338 c 128,-1,47
 222.4 348.8 222.4 348.8 255.2 348.8 c 0,48,49
 292.8 348.8 292.8 348.8 323.2 336.4 c 128,-1,50
 353.6 324 353.6 324 375.2 302 c 128,-1,51
 396.8 280 396.8 280 408.4 249.6 c 128,-1,52
 420 219.2 420 219.2 418.4 183.2 c 1,23,24
EndSplineSet
EndChar

StartChar: seven
Encoding: 23 55 26
Width: 449
VWidth: 800
Flags: W
LayerCount: 2
Back
Fore
SplineSet
153.6 13.5996 m 1,0,-1
 153.6 -12.7998 l 1,1,-1
 69.5996 -12.7998 l 1,2,-1
 333.6 468.8 l 1,3,-1
 87.2002 468.8 l 1,4,-1
 74.4004 396.8 l 1,5,-1
 34.4004 396.8 l 1,6,-1
 34.4004 536.8 l 1,7,-1
 417.6 536.8 l 1,8,-1
 417.6 492.8 l 1,9,-1
 153.6 13.5996 l 1,0,-1
EndSplineSet
EndChar

StartChar: eight
Encoding: 24 56 27
Width: 449
VWidth: 800
Flags: W
LayerCount: 2
Back
Fore
SplineSet
336 132.8 m 1,0,1
 336 157.6 336 157.6 325.6 174.8 c 128,-1,2
 315.2 192 315.2 192 295.2 205.6 c 128,-1,3
 275.2 219.2 275.2 219.2 246 231.2 c 128,-1,4
 216.8 243.2 216.8 243.2 179.2 258.4 c 1,5,6
 164 250.4 164 250.4 151.2 240.4 c 128,-1,7
 138.4 230.4 138.4 230.4 128.8 217.6 c 128,-1,8
 119.2 204.8 119.2 204.8 113.6 188.4 c 128,-1,9
 108 172 108 172 108 151.2 c 0,10,11
 108 125.6 108 125.6 115.6 104 c 128,-1,12
 123.2 82.4004 123.2 82.4004 138 66.4004 c 128,-1,13
 152.8 50.4004 152.8 50.4004 174.8 41.5996 c 128,-1,14
 196.8 32.7998 196.8 32.7998 225.6 32.7998 c 0,15,16
 251.2 32.7998 251.2 32.7998 272 40.7998 c 128,-1,17
 292.8 48.7998 292.8 48.7998 307.2 62.7998 c 128,-1,18
 321.6 76.7998 321.6 76.7998 329.2 95.2002 c 128,-1,19
 336.8 113.6 336.8 113.6 336 132.8 c 1,0,1
322.4 404.8 m 0,20,21
 322.4 428.8 322.4 428.8 314.8 448 c 128,-1,22
 307.2 467.2 307.2 467.2 294 480.4 c 128,-1,23
 280.8 493.6 280.8 493.6 263.2 500.4 c 128,-1,24
 245.6 507.2 245.6 507.2 226.4 507.2 c 0,25,26
 206.4 507.2 206.4 507.2 189.6 499.6 c 128,-1,27
 172.8 492 172.8 492 160.8 479.6 c 128,-1,28
 148.8 467.2 148.8 467.2 142.4 450.8 c 128,-1,29
 136 434.4 136 434.4 136 416.8 c 0,30,31
 136 396 136 396 144.8 379.2 c 128,-1,32
 153.6 362.4 153.6 362.4 170 348 c 128,-1,33
 186.4 333.6 186.4 333.6 210.8 321.6 c 128,-1,34
 235.2 309.6 235.2 309.6 265.6 298.4 c 1,35,36
 277.6 307.2 277.6 307.2 288 318 c 128,-1,37
 298.4 328.8 298.4 328.8 306 342 c 128,-1,38
 313.6 355.2 313.6 355.2 318 370.8 c 128,-1,39
 322.4 386.4 322.4 386.4 322.4 404.8 c 0,20,21
417.6 146.4 m 1,40,41
 417.6 112.8 417.6 112.8 403.2 84 c 128,-1,42
 388.8 55.2002 388.8 55.2002 363.2 34.4004 c 128,-1,43
 337.6 13.5996 337.6 13.5996 302.4 2 c 128,-1,44
 267.2 -9.59961 267.2 -9.59961 226.4 -9.59961 c 0,45,46
 182.4 -9.59961 182.4 -9.59961 147.2 2 c 128,-1,47
 112 13.5996 112 13.5996 87.2002 34.4004 c 128,-1,48
 62.4004 55.2002 62.4004 55.2002 49.2002 83.5996 c 128,-1,49
 36 112 36 112 36 145.6 c 0,50,51
 36 172.8 36 172.8 45.2002 193.6 c 128,-1,52
 54.4004 214.4 54.4004 214.4 70 230.4 c 128,-1,53
 85.5996 246.4 85.5996 246.4 106 258 c 128,-1,54
 126.4 269.6 126.4 269.6 148 277.6 c 1,55,56
 132 284 132 284 115.6 294.8 c 128,-1,57
 99.2002 305.6 99.2002 305.6 86 320.8 c 128,-1,58
 72.7998 336 72.7998 336 64.7998 355.2 c 128,-1,59
 56.7998 374.4 56.7998 374.4 56.7998 397.6 c 0,60,61
 56.7998 431.2 56.7998 431.2 68.7998 458.8 c 128,-1,62
 80.7998 486.4 80.7998 486.4 103.2 506 c 128,-1,63
 125.6 525.6 125.6 525.6 157.2 536 c 128,-1,64
 188.8 546.4 188.8 546.4 226.4 546.4 c 0,65,66
 262.4 546.4 262.4 546.4 293.6 536 c 128,-1,67
 324.8 525.6 324.8 525.6 347.6 507.2 c 128,-1,68
 370.4 488.8 370.4 488.8 383.2 464 c 128,-1,69
 396 439.2 396 439.2 396 410.4 c 0,70,71
 396 385.6 396 385.6 386.8 365.2 c 128,-1,72
 377.6 344.8 377.6 344.8 363.2 328.8 c 128,-1,73
 348.8 312.8 348.8 312.8 332 301.2 c 128,-1,74
 315.2 289.6 315.2 289.6 300 282.4 c 1,75,76
 318.4 276 318.4 276 339.2 265.6 c 128,-1,77
 360 255.2 360 255.2 377.2 238.8 c 128,-1,78
 394.4 222.4 394.4 222.4 405.6 200 c 128,-1,79
 416.8 177.6 416.8 177.6 417.6 146.4 c 1,40,41
EndSplineSet
EndChar

StartChar: nine
Encoding: 25 57 28
Width: 449
VWidth: 800
Flags: W
LayerCount: 2
Back
Fore
SplineSet
334.4 322.4 m 0,0,1
 334.4 363.2 334.4 363.2 328.4 396.8 c 128,-1,2
 322.4 430.4 322.4 430.4 309.2 454.8 c 128,-1,3
 296 479.2 296 479.2 275.6 492.4 c 128,-1,4
 255.2 505.6 255.2 505.6 227.2 505.6 c 0,5,6
 198.4 505.6 198.4 505.6 177.2 494.8 c 128,-1,7
 156 484 156 484 142.4 464.8 c 128,-1,8
 128.8 445.6 128.8 445.6 122 419.6 c 128,-1,9
 115.2 393.6 115.2 393.6 115.2 364 c 0,10,11
 115.2 335.2 115.2 335.2 122.8 312 c 128,-1,12
 130.4 288.8 130.4 288.8 144.8 272.8 c 128,-1,13
 159.2 256.8 159.2 256.8 180 248.8 c 128,-1,14
 200.8 240.8 200.8 240.8 227.2 240.8 c 0,15,16
 240 240.8 240 240.8 254 243.6 c 128,-1,17
 268 246.4 268 246.4 282 251.6 c 128,-1,18
 296 256.8 296 256.8 309.2 264 c 128,-1,19
 322.4 271.2 322.4 271.2 333.6 280 c 1,20,21
 334.4 292 334.4 292 334.4 302.8 c 128,-1,22
 334.4 313.6 334.4 313.6 334.4 322.4 c 0,0,1
417.6 307.2 m 0,23,24
 417.6 236 417.6 236 396.4 177.2 c 128,-1,25
 375.2 118.4 375.2 118.4 334 76.4004 c 128,-1,26
 292.8 34.4004 292.8 34.4004 233.6 11.5996 c 128,-1,27
 174.4 -11.2002 174.4 -11.2002 98.4004 -11.2002 c 1,28,-1
 98.4004 38.4004 l 1,29,-1
 124.8 38.4004 l 1,30,31
 162.4 37.5996 162.4 37.5996 196.8 50.7998 c 128,-1,32
 231.2 64 231.2 64 258.8 90 c 128,-1,33
 286.4 116 286.4 116 305.2 153.6 c 128,-1,34
 324 191.2 324 191.2 329.6 238.4 c 1,35,36
 313.6 224 313.6 224 297.2 214.8 c 128,-1,37
 280.8 205.6 280.8 205.6 264.4 200 c 128,-1,38
 248 194.4 248 194.4 231.6 192 c 128,-1,39
 215.2 189.6 215.2 189.6 199.2 189.6 c 0,40,41
 161.6 189.6 161.6 189.6 131.2 202 c 128,-1,42
 100.8 214.4 100.8 214.4 79.2002 236.4 c 128,-1,43
 57.5996 258.4 57.5996 258.4 46 288.4 c 128,-1,44
 34.4004 318.4 34.4004 318.4 34.4004 353.6 c 0,45,46
 34.4004 396.8 34.4004 396.8 49.2002 432.8 c 128,-1,47
 64 468.8 64 468.8 90 494.4 c 128,-1,48
 116 520 116 520 151.2 534 c 128,-1,49
 186.4 548 186.4 548 226.4 548 c 256,50,51
 266.4 548 266.4 548 301.2 534.8 c 128,-1,52
 336 521.6 336 521.6 362 492.8 c 128,-1,53
 388 464 388 464 402.8 418 c 128,-1,54
 417.6 372 417.6 372 417.6 307.2 c 0,23,24
EndSplineSet
EndChar

StartChar: colon
Encoding: 26 58 29
Width: 223
VWidth: 800
Flags: W
LayerCount: 2
Back
Fore
SplineSet
156 44 m 0,0,1
 156 32.7998 156 32.7998 152 23.2002 c 128,-1,2
 148 13.5996 148 13.5996 140.8 6.40039 c 128,-1,3
 133.6 -0.799805 133.6 -0.799805 124 -4.7998 c 128,-1,4
 114.4 -8.7998 114.4 -8.7998 104 -8.7998 c 0,5,6
 92.7998 -8.7998 92.7998 -8.7998 83.5996 -4.7998 c 128,-1,7
 74.4004 -0.799805 74.4004 -0.799805 67.2002 6.40039 c 128,-1,8
 60 13.5996 60 13.5996 56 23.2002 c 128,-1,9
 52 32.7998 52 32.7998 52 44 c 0,10,11
 52 54.4004 52 54.4004 56 64 c 128,-1,12
 60 73.5996 60 73.5996 67.2002 80.7998 c 128,-1,13
 74.4004 88 74.4004 88 83.5996 92 c 128,-1,14
 92.7998 96 92.7998 96 104 96 c 0,15,16
 114.4 96 114.4 96 124 92 c 128,-1,17
 133.6 88 133.6 88 140.8 80.7998 c 128,-1,18
 148 73.5996 148 73.5996 152 64 c 128,-1,19
 156 54.4004 156 54.4004 156 44 c 0,0,1
156 340 m 256,20,21
 156 329.6 156 329.6 152 320 c 128,-1,22
 148 310.4 148 310.4 140.8 303.2 c 128,-1,23
 133.6 296 133.6 296 124 292 c 128,-1,24
 114.4 288 114.4 288 104 288 c 0,25,26
 92.7998 288 92.7998 288 83.5996 292 c 128,-1,27
 74.4004 296 74.4004 296 67.2002 303.2 c 128,-1,28
 60 310.4 60 310.4 56 320 c 128,-1,29
 52 329.6 52 329.6 52 340 c 256,30,31
 52 350.4 52 350.4 56 360 c 128,-1,32
 60 369.6 60 369.6 67.2002 376.8 c 128,-1,33
 74.4004 384 74.4004 384 83.5996 388 c 128,-1,34
 92.7998 392 92.7998 392 104 392 c 0,35,36
 114.4 392 114.4 392 124 388 c 128,-1,37
 133.6 384 133.6 384 140.8 376.8 c 128,-1,38
 148 369.6 148 369.6 152 360 c 128,-1,39
 156 350.4 156 350.4 156 340 c 256,20,21
EndSplineSet
EndChar

StartChar: semicolon
Encoding: 27 59 30
Width: 223
VWidth: 800
Flags: W
LayerCount: 2
Back
Fore
SplineSet
164.8 7.2002 m 0,0,1
 164.8 -22.4004 164.8 -22.4004 153.6 -47.2002 c 128,-1,2
 142.4 -72 142.4 -72 123.2 -90.7998 c 128,-1,3
 104 -109.6 104 -109.6 79.2002 -120.8 c 128,-1,4
 54.4004 -132 54.4004 -132 27.2002 -133.6 c 1,5,-1
 27.2002 -104.8 l 1,6,7
 48 -100.8 48 -100.8 64.4004 -92.7998 c 128,-1,8
 80.7998 -84.7998 80.7998 -84.7998 91.5996 -72 c 128,-1,9
 102.4 -59.2002 102.4 -59.2002 108 -40.4004 c 128,-1,10
 113.6 -21.5996 113.6 -21.5996 113.6 5.59961 c 1,11,-1
 64 5.59961 l 1,12,13
 64 5.59961 64 5.59961 62 8.40039 c 128,-1,14
 60 11.2002 60 11.2002 57.5996 15.5996 c 128,-1,15
 55.2002 20 55.2002 20 53.5996 26.4004 c 128,-1,16
 52 32.7998 52 32.7998 52 40.7998 c 0,17,18
 52 51.2002 52 51.2002 55.5996 60.7998 c 128,-1,19
 59.2002 70.4004 59.2002 70.4004 65.5996 78 c 128,-1,20
 72 85.5996 72 85.5996 80.7998 90 c 128,-1,21
 89.5996 94.4004 89.5996 94.4004 100 94.4004 c 0,22,23
 116.8 94.4004 116.8 94.4004 129.2 87.5996 c 128,-1,24
 141.6 80.7998 141.6 80.7998 149.6 69.2002 c 128,-1,25
 157.6 57.5996 157.6 57.5996 161.2 41.2002 c 128,-1,26
 164.8 24.7998 164.8 24.7998 164.8 7.2002 c 0,0,1
156 339.2 m 256,27,28
 156 328.8 156 328.8 152 319.2 c 128,-1,29
 148 309.6 148 309.6 140.8 302.4 c 128,-1,30
 133.6 295.2 133.6 295.2 124 291.2 c 128,-1,31
 114.4 287.2 114.4 287.2 104 287.2 c 0,32,33
 92.7998 287.2 92.7998 287.2 83.5996 291.2 c 128,-1,34
 74.4004 295.2 74.4004 295.2 67.2002 302.4 c 128,-1,35
 60 309.6 60 309.6 56 319.2 c 128,-1,36
 52 328.8 52 328.8 52 339.2 c 256,37,38
 52 349.6 52 349.6 56 359.2 c 128,-1,39
 60 368.8 60 368.8 67.2002 376 c 128,-1,40
 74.4004 383.2 74.4004 383.2 84 387.2 c 128,-1,41
 93.5996 391.2 93.5996 391.2 104.8 391.2 c 0,42,43
 115.2 391.2 115.2 391.2 124.8 387.2 c 128,-1,44
 134.4 383.2 134.4 383.2 141.2 376 c 128,-1,45
 148 368.8 148 368.8 152 359.2 c 128,-1,46
 156 349.6 156 349.6 156 339.2 c 256,27,28
EndSplineSet
EndChar

StartChar: less
Encoding: 28 60 31
Width: 800
VWidth: 800
Flags: W
LayerCount: 2
Back
Fore
SplineSet
160 215.2 m 1,0,-1
 160 264.8 l 1,1,-1
 639.2 448 l 1,2,-1
 639.2 398.4 l 1,3,-1
 211.2 239.2 l 1,4,-1
 639.2 80.7998 l 1,5,-1
 639.2 31.2002 l 1,6,-1
 160 215.2 l 1,0,-1
EndSplineSet
EndChar

StartChar: equal
Encoding: 29 61 32
Width: 800
VWidth: 800
Flags: W
LayerCount: 2
Back
Fore
SplineSet
160 142.4 m 1,0,-1
 160 192 l 1,1,-1
 639.2 192 l 1,2,-1
 639.2 142.4 l 1,3,-1
 160 142.4 l 1,0,-1
160 287.2 m 1,4,-1
 160 336.8 l 1,5,-1
 639.2 336.8 l 1,6,-1
 639.2 287.2 l 1,7,-1
 160 287.2 l 1,4,-1
EndSplineSet
EndChar

StartChar: greater
Encoding: 30 62 33
Width: 800
VWidth: 800
Flags: W
LayerCount: 2
Back
Fore
SplineSet
160 31.2002 m 1,0,-1
 160 80.7998 l 1,1,-1
 588 239.2 l 1,2,-1
 160 398.4 l 1,3,-1
 160 448 l 5,4,-1
 639.2 264.8 l 1,5,-1
 639.2 215.2 l 1,6,-1
 160 31.2002 l 1,0,-1
EndSplineSet
EndChar

StartChar: question
Encoding: 31 63 34
Width: 388
VWidth: 800
Flags: W
LayerCount: 2
Back
Fore
SplineSet
332.8 405.6 m 1,0,1
 332.8 380.8 332.8 380.8 326 360 c 128,-1,2
 319.2 339.2 319.2 339.2 307.6 322.4 c 128,-1,3
 296 305.6 296 305.6 280.8 292.4 c 128,-1,4
 265.6 279.2 265.6 279.2 249.2 268.8 c 128,-1,5
 232.8 258.4 232.8 258.4 215.6 250 c 128,-1,6
 198.4 241.6 198.4 241.6 183.2 235.2 c 1,7,-1
 183.2 147.2 l 1,8,-1
 138.4 147.2 l 1,9,-1
 138.4 263.2 l 1,10,11
 156.8 268.8 156.8 268.8 177.2 280 c 128,-1,12
 197.6 291.2 197.6 291.2 214.4 308 c 128,-1,13
 231.2 324.8 231.2 324.8 242 348 c 128,-1,14
 252.8 371.2 252.8 371.2 252.8 400.8 c 0,15,16
 252.8 456 252.8 456 223.2 483.2 c 128,-1,17
 193.6 510.4 193.6 510.4 139.2 510.4 c 1,18,-1
 106.4 428.8 l 1,19,20
 103.2 428.8 103.2 428.8 100.8 428.8 c 0,21,22
 99.2002 428.8 99.2002 428.8 97.5996 428.8 c 2,23,-1
 95.2002 428.8 l 2,24,25
 84.7998 428.8 84.7998 428.8 75.5996 430.8 c 128,-1,26
 66.4004 432.8 66.4004 432.8 59.5996 438 c 128,-1,27
 52.7998 443.2 52.7998 443.2 48.7998 451.2 c 128,-1,28
 44.7998 459.2 44.7998 459.2 44.7998 470.4 c 0,29,30
 44.7998 484 44.7998 484 52.4004 498 c 128,-1,31
 60 512 60 512 75.5996 522.8 c 128,-1,32
 91.2002 533.6 91.2002 533.6 114.8 540.4 c 128,-1,33
 138.4 547.2 138.4 547.2 171.2 547.2 c 0,34,35
 206.4 547.2 206.4 547.2 236.8 537.2 c 128,-1,36
 267.2 527.2 267.2 527.2 289.2 508.8 c 128,-1,37
 311.2 490.4 311.2 490.4 323.6 464 c 128,-1,38
 336 437.6 336 437.6 332.8 405.6 c 1,0,1
212.8 37.5996 m 0,39,40
 212.8 28 212.8 28 209.2 19.5996 c 128,-1,41
 205.6 11.2002 205.6 11.2002 198.8 4.7998 c 128,-1,42
 192 -1.59961 192 -1.59961 183.2 -5.2002 c 128,-1,43
 174.4 -8.7998 174.4 -8.7998 164.8 -8.7998 c 256,44,45
 155.2 -8.7998 155.2 -8.7998 146.4 -5.2002 c 128,-1,46
 137.6 -1.59961 137.6 -1.59961 131.2 5.2002 c 128,-1,47
 124.8 12 124.8 12 121.2 20.7998 c 128,-1,48
 117.6 29.5996 117.6 29.5996 117.6 39.2002 c 256,49,50
 117.6 48.7998 117.6 48.7998 121.2 57.5996 c 128,-1,51
 124.8 66.4004 124.8 66.4004 131.2 72.7998 c 128,-1,52
 137.6 79.2002 137.6 79.2002 146.4 82.7998 c 128,-1,53
 155.2 86.4004 155.2 86.4004 164.8 86.4004 c 0,54,55
 175.2 86.4004 175.2 86.4004 184 82.7998 c 128,-1,56
 192.8 79.2002 192.8 79.2002 199.2 72.4004 c 128,-1,57
 205.6 65.5996 205.6 65.5996 209.2 56.7998 c 128,-1,58
 212.8 48 212.8 48 212.8 37.5996 c 0,39,40
EndSplineSet
EndChar

StartChar: at
Encoding: 32 64 35
Width: 748
VWidth: 800
Flags: W
LayerCount: 2
Back
Fore
SplineSet
466.4 314.4 m 2,0,1
 467.2 319.2 467.2 319.2 464.4 326.8 c 128,-1,2
 461.6 334.4 461.6 334.4 455.2 341.6 c 128,-1,3
 448.8 348.8 448.8 348.8 440 354 c 128,-1,4
 431.2 359.2 431.2 359.2 420.8 359.2 c 0,5,6
 391.2 359.2 391.2 359.2 367.6 345.6 c 128,-1,7
 344 332 344 332 327.6 308 c 128,-1,8
 311.2 284 311.2 284 302.4 252 c 128,-1,9
 293.6 220 293.6 220 293.6 184 c 0,10,11
 293.6 140.8 293.6 140.8 309.6 119.6 c 128,-1,12
 325.6 98.4004 325.6 98.4004 355.2 98.4004 c 0,13,14
 368 98.4004 368 98.4004 380 103.6 c 128,-1,15
 392 108.8 392 108.8 402 116.4 c 128,-1,16
 412 124 412 124 420.4 132.8 c 128,-1,17
 428.8 141.6 428.8 141.6 434.4 148.8 c 1,18,-1
 466.4 314.4 l 2,0,1
689.6 298.4 m 1,19,20
 689.6 258.4 689.6 258.4 681.2 224 c 128,-1,21
 672.8 189.6 672.8 189.6 658 161.6 c 128,-1,22
 643.2 133.6 643.2 133.6 623.6 112 c 128,-1,23
 604 90.4004 604 90.4004 582.4 76 c 128,-1,24
 560.8 61.5996 560.8 61.5996 538.8 54.4004 c 128,-1,25
 516.8 47.2002 516.8 47.2002 497.6 47.2002 c 0,26,27
 464.8 47.2002 464.8 47.2002 450.4 63.5996 c 128,-1,28
 436 80 436 80 436 112.8 c 1,29,30
 404.8 81.5996 404.8 81.5996 376.8 64.7998 c 128,-1,31
 348.8 48 348.8 48 320.8 48 c 0,32,33
 299.2 48 299.2 48 281.2 56.7998 c 128,-1,34
 263.2 65.5996 263.2 65.5996 250 82.4004 c 128,-1,35
 236.8 99.2002 236.8 99.2002 229.6 123.2 c 128,-1,36
 222.4 147.2 222.4 147.2 222.4 176.8 c 0,37,38
 222.4 222.4 222.4 222.4 239.2 262 c 128,-1,39
 256 301.6 256 301.6 283.6 330.8 c 128,-1,40
 311.2 360 311.2 360 346.8 376.4 c 128,-1,41
 382.4 392.8 382.4 392.8 420 392.8 c 0,42,43
 428 392.8 428 392.8 438 391.6 c 128,-1,44
 448 390.4 448 390.4 458 387.6 c 128,-1,45
 468 384.8 468 384.8 477.6 380.8 c 128,-1,46
 487.2 376.8 487.2 376.8 496 372.8 c 1,47,-1
 510.4 390.4 l 1,48,-1
 554.4 390.4 l 1,49,50
 554.4 388.8 554.4 388.8 552 377.6 c 128,-1,51
 549.6 366.4 549.6 366.4 546 349.6 c 128,-1,52
 542.4 332.8 542.4 332.8 537.6 311.6 c 128,-1,53
 532.8 290.4 532.8 290.4 528.8 269.6 c 0,54,55
 517.6 219.2 517.6 219.2 504 156 c 0,56,57
 500.8 142.4 500.8 142.4 500.8 131.2 c 128,-1,58
 500.8 120 500.8 120 504 112 c 128,-1,59
 507.2 104 507.2 104 514.4 99.5996 c 128,-1,60
 521.6 95.2002 521.6 95.2002 532.8 95.2002 c 0,61,62
 549.6 95.2002 549.6 95.2002 570.8 109.6 c 128,-1,63
 592 124 592 124 610 150.8 c 128,-1,64
 628 177.6 628 177.6 640.4 216 c 128,-1,65
 652.8 254.4 652.8 254.4 652.8 301.6 c 0,66,67
 652.8 357.6 652.8 357.6 634 398.8 c 128,-1,68
 615.2 440 615.2 440 584 466.8 c 128,-1,69
 552.8 493.6 552.8 493.6 512.8 506.8 c 128,-1,70
 472.8 520 472.8 520 431.2 520 c 0,71,72
 385.6 520 385.6 520 344.8 509.6 c 128,-1,73
 304 499.2 304 499.2 269.6 479.6 c 128,-1,74
 235.2 460 235.2 460 207.6 432 c 128,-1,75
 180 404 180 404 160.8 369.6 c 128,-1,76
 141.6 335.2 141.6 335.2 131.2 294.8 c 128,-1,77
 120.8 254.4 120.8 254.4 120.8 210.4 c 0,78,79
 120.8 149.6 120.8 149.6 139.6 97.2002 c 128,-1,80
 158.4 44.7998 158.4 44.7998 194 6.40039 c 128,-1,81
 229.6 -32 229.6 -32 281.2 -54 c 128,-1,82
 332.8 -76 332.8 -76 399.2 -76 c 0,83,84
 433.6 -76 433.6 -76 464 -70.7998 c 128,-1,85
 494.4 -65.5996 494.4 -65.5996 520.4 -57.2002 c 128,-1,86
 546.4 -48.7998 546.4 -48.7998 568.4 -38.4004 c 128,-1,87
 590.4 -28 590.4 -28 608 -18.4004 c 1,88,-1
 619.2 -47.2002 l 1,89,90
 592.8 -61.5996 592.8 -61.5996 564.8 -74 c 128,-1,91
 536.8 -86.4004 536.8 -86.4004 507.2 -95.5996 c 128,-1,92
 477.6 -104.8 477.6 -104.8 446 -110.4 c 128,-1,93
 414.4 -116 414.4 -116 380 -116 c 0,94,95
 337.6 -116 337.6 -116 297.6 -106.4 c 128,-1,96
 257.6 -96.7998 257.6 -96.7998 222.4 -78.4004 c 128,-1,97
 187.2 -60 187.2 -60 158 -33.2002 c 128,-1,98
 128.8 -6.40039 128.8 -6.40039 108 28 c 128,-1,99
 87.2002 62.4004 87.2002 62.4004 75.5996 104.4 c 128,-1,100
 64 146.4 64 146.4 64 194.4 c 0,101,102
 64 253.6 64 253.6 78 303.2 c 128,-1,103
 92 352.8 92 352.8 116.8 392.8 c 128,-1,104
 141.6 432.8 141.6 432.8 175.6 463.2 c 128,-1,105
 209.6 493.6 209.6 493.6 249.2 513.6 c 128,-1,106
 288.8 533.6 288.8 533.6 332.4 543.6 c 128,-1,107
 376 553.6 376 553.6 420 553.6 c 0,108,109
 479.2 553.6 479.2 553.6 529.2 537.2 c 128,-1,110
 579.2 520.8 579.2 520.8 615.2 488.8 c 128,-1,111
 651.2 456.8 651.2 456.8 671.6 409.6 c 128,-1,112
 692 362.4 692 362.4 689.6 298.4 c 1,19,20
EndSplineSet
EndChar

StartChar: A
Encoding: 33 65 36
Width: 538
VWidth: 800
Flags: W
LayerCount: 2
Back
Fore
SplineSet
250.4 446.4 m 1,0,-1
 172.8 236.8 l 1,1,-1
 328.8 236.8 l 1,2,-1
 250.4 446.4 l 1,0,-1
344 0.799805 m 1,3,-1
 344 34.4004 l 1,4,-1
 389.6 37.5996 l 2,5,6
 392.8 37.5996 392.8 37.5996 395.2 42.7998 c 128,-1,7
 397.6 48 397.6 48 396.8 50.4004 c 2,8,-1
 342.4 196.8 l 1,9,-1
 158.4 196.8 l 1,10,-1
 105.6 52.7998 l 2,11,12
 105.6 51.2002 105.6 51.2002 106 48.7998 c 128,-1,13
 106.4 46.4004 106.4 46.4004 108 44 c 128,-1,14
 109.6 41.5996 109.6 41.5996 111.6 40.4004 c 128,-1,15
 113.6 39.2002 113.6 39.2002 115.2 39.2002 c 2,16,-1
 162.4 36 l 1,17,-1
 162.4 2.40039 l 1,18,-1
 1.59961 2.40039 l 1,19,-1
 1.59961 36 l 1,20,-1
 48 45.5996 l 1,21,-1
 233.6 550.4 l 1,22,-1
 293.6 550.4 l 1,23,-1
 478.4 56.7998 l 2,24,25
 480.8 48.7998 480.8 48.7998 483.2 46.4004 c 128,-1,26
 485.6 44 485.6 44 494.4 43.2002 c 2,27,-1
 529.6 37.5996 l 1,28,-1
 529.6 4 l 1,29,-1
 344 0.799805 l 1,3,-1
EndSplineSet
EndChar

StartChar: B
Encoding: 34 66 37
Width: 483
VWidth: 800
Flags: W
LayerCount: 2
Back
Fore
SplineSet
452 158.4 m 0,0,1
 452 126.4 452 126.4 443.2 102 c 128,-1,2
 434.4 77.5996 434.4 77.5996 418.8 60.4004 c 128,-1,3
 403.2 43.2002 403.2 43.2002 382.8 32 c 128,-1,4
 362.4 20.7998 362.4 20.7998 340 14 c 128,-1,5
 317.6 7.2002 317.6 7.2002 294.4 4.7998 c 128,-1,6
 271.2 2.40039 271.2 2.40039 250.4 2.40039 c 2,7,-1
 27.2002 2.40039 l 1,8,-1
 27.2002 36 l 1,9,-1
 68.7998 38.4004 l 2,10,11
 76.7998 38.4004 76.7998 38.4004 80.7998 43.5996 c 128,-1,12
 84.7998 48.7998 84.7998 48.7998 84.7998 54.4004 c 2,13,-1
 84.7998 480.8 l 2,14,15
 84.7998 486.4 84.7998 486.4 80.7998 491.6 c 128,-1,16
 76.7998 496.8 76.7998 496.8 68.7998 496.8 c 2,17,-1
 27.2002 499.2 l 1,18,-1
 27.2002 532.8 l 1,19,-1
 240.8 532.8 l 2,20,21
 288 532.8 288 532.8 322 524.4 c 128,-1,22
 356 516 356 516 377.6 499.6 c 128,-1,23
 399.2 483.2 399.2 483.2 409.2 459.6 c 128,-1,24
 419.2 436 419.2 436 419.2 406.4 c 256,25,26
 419.2 376.8 419.2 376.8 408 356 c 128,-1,27
 396.8 335.2 396.8 335.2 380 320.8 c 128,-1,28
 363.2 306.4 363.2 306.4 343.2 298 c 128,-1,29
 323.2 289.6 323.2 289.6 306.4 285.6 c 1,30,31
 332.8 285.6 332.8 285.6 358.8 279.2 c 128,-1,32
 384.8 272.8 384.8 272.8 405.6 258 c 128,-1,33
 426.4 243.2 426.4 243.2 439.2 219.2 c 128,-1,34
 452 195.2 452 195.2 452 158.4 c 0,0,1
365.6 153.6 m 1,35,36
 365.6 208 365.6 208 333.2 233.2 c 128,-1,37
 300.8 258.4 300.8 258.4 236.8 258.4 c 0,38,39
 227.2 258.4 227.2 258.4 215.6 258 c 128,-1,40
 204 257.6 204 257.6 193.6 257.2 c 128,-1,41
 183.2 256.8 183.2 256.8 175.6 256.4 c 128,-1,42
 168 256 168 256 167.2 256 c 1,43,-1
 167.2 44.7998 l 1,44,45
 176.8 44.7998 176.8 44.7998 185.6 44.7998 c 0,46,47
 192.8 44.7998 192.8 44.7998 200.8 44.7998 c 128,-1,48
 208.8 44.7998 208.8 44.7998 214.4 44.7998 c 0,49,50
 256 44.7998 256 44.7998 284.4 51.5996 c 128,-1,51
 312.8 58.4004 312.8 58.4004 330.4 72.4004 c 128,-1,52
 348 86.4004 348 86.4004 355.6 107.2 c 128,-1,53
 363.2 128 363.2 128 365.6 153.6 c 1,35,36
331.2 406.4 m 1,54,55
 331.2 453.6 331.2 453.6 300.8 478.4 c 128,-1,56
 270.4 503.2 270.4 503.2 208.8 503.2 c 0,57,58
 203.2 503.2 203.2 503.2 196 503.2 c 128,-1,59
 188.8 503.2 188.8 503.2 182.4 503.2 c 128,-1,60
 176 503.2 176 503.2 171.2 503.2 c 128,-1,61
 166.4 503.2 166.4 503.2 164.8 503.2 c 1,62,-1
 164.8 301.6 l 1,63,64
 169.6 301.6 169.6 301.6 174.4 301.6 c 0,65,66
 178.4 301.6 178.4 301.6 182.4 301.6 c 2,67,-1
 190.4 301.6 l 2,68,69
 228.8 301.6 228.8 301.6 255.2 308.8 c 128,-1,70
 281.6 316 281.6 316 298 329.6 c 128,-1,71
 314.4 343.2 314.4 343.2 321.6 363.2 c 128,-1,72
 328.8 383.2 328.8 383.2 331.2 406.4 c 1,54,55
EndSplineSet
EndChar

StartChar: C
Encoding: 35 67 38
Width: 500
VWidth: 800
Flags: W
LayerCount: 2
Back
Fore
SplineSet
469.6 17.5996 m 2,0,1
 468.8 17.5996 468.8 17.5996 455.2 12.7998 c 128,-1,2
 441.6 8 441.6 8 420 2.40039 c 128,-1,3
 398.4 -3.2002 398.4 -3.2002 370.4 -7.59961 c 128,-1,4
 342.4 -12 342.4 -12 312 -12 c 0,5,6
 267.2 -12 267.2 -12 229.2 -1.59961 c 128,-1,7
 191.2 8.7998 191.2 8.7998 160.4 27.5996 c 128,-1,8
 129.6 46.4004 129.6 46.4004 106 72.7998 c 128,-1,9
 82.4004 99.2002 82.4004 99.2002 66.4004 130.4 c 128,-1,10
 50.4004 161.6 50.4004 161.6 42.4004 196.4 c 128,-1,11
 34.4004 231.2 34.4004 231.2 34.4004 267.2 c 0,12,13
 34.4004 328.8 34.4004 328.8 54.4004 380 c 128,-1,14
 74.4004 431.2 74.4004 431.2 110.8 468 c 128,-1,15
 147.2 504.8 147.2 504.8 198.4 525.2 c 128,-1,16
 249.6 545.6 249.6 545.6 312 545.6 c 0,17,18
 331.2 545.6 331.2 545.6 349.2 543.6 c 128,-1,19
 367.2 541.6 367.2 541.6 385.6 538 c 128,-1,20
 404 534.4 404 534.4 424.4 528.8 c 128,-1,21
 444.8 523.2 444.8 523.2 468.8 516 c 1,22,-1
 468.8 391.2 l 1,23,-1
 420.8 391.2 l 1,24,-1
 409.6 463.2 l 2,25,26
 409.6 468 409.6 468 405.2 473.2 c 128,-1,27
 400.8 478.4 400.8 478.4 397.6 480 c 0,28,29
 393.6 481.6 393.6 481.6 386 484.8 c 128,-1,30
 378.4 488 378.4 488 368 491.2 c 128,-1,31
 357.6 494.4 357.6 494.4 344.8 496.8 c 128,-1,32
 332 499.2 332 499.2 317.6 499.2 c 0,33,34
 276.8 499.2 276.8 499.2 242 484 c 128,-1,35
 207.2 468.8 207.2 468.8 181.6 439.2 c 128,-1,36
 156 409.6 156 409.6 141.6 366 c 128,-1,37
 127.2 322.4 127.2 322.4 127.2 265.6 c 0,38,39
 127.2 210.4 127.2 210.4 140.8 166.4 c 128,-1,40
 154.4 122.4 154.4 122.4 180.4 91.5996 c 128,-1,41
 206.4 60.7998 206.4 60.7998 243.6 44.7998 c 128,-1,42
 280.8 28.7998 280.8 28.7998 328 28.7998 c 0,43,44
 341.6 28.7998 341.6 28.7998 352.8 30.4004 c 128,-1,45
 364 32 364 32 372.4 34.4004 c 128,-1,46
 380.8 36.7998 380.8 36.7998 385.2 38.7998 c 128,-1,47
 389.6 40.7998 389.6 40.7998 389.6 40.7998 c 1,48,49
 395.2 42.4004 395.2 42.4004 398.8 46.4004 c 128,-1,50
 402.4 50.4004 402.4 50.4004 403.2 55.2002 c 2,51,-1
 420.8 141.6 l 1,52,-1
 467.2 141.6 l 1,53,-1
 469.6 17.5996 l 2,0,1
EndSplineSet
EndChar

StartChar: D
Encoding: 36 68 39
Width: 556
VWidth: 800
Flags: W
LayerCount: 2
Back
Fore
SplineSet
434.4 267.2 m 0,0,1
 434.4 329.6 434.4 329.6 420 373.2 c 128,-1,2
 405.6 416.8 405.6 416.8 378.8 444 c 128,-1,3
 352 471.2 352 471.2 313.6 483.2 c 128,-1,4
 275.2 495.2 275.2 495.2 228 495.2 c 2,5,-1
 167.2 495.2 l 1,6,-1
 167.2 35.2002 l 1,7,-1
 232 35.2002 l 2,8,9
 277.6 35.2002 277.6 35.2002 315.2 47.5996 c 128,-1,10
 352.8 60 352.8 60 379.2 87.2002 c 128,-1,11
 405.6 114.4 405.6 114.4 420 157.6 c 128,-1,12
 434.4 200.8 434.4 200.8 434.4 267.2 c 0,0,1
524.8 264 m 0,13,14
 524.8 229.6 524.8 229.6 518.4 196.4 c 128,-1,15
 512 163.2 512 163.2 498 133.2 c 128,-1,16
 484 103.2 484 103.2 462 78.4004 c 128,-1,17
 440 53.5996 440 53.5996 409.2 35.5996 c 128,-1,18
 378.4 17.5996 378.4 17.5996 338.4 7.59961 c 128,-1,19
 298.4 -2.40039 298.4 -2.40039 248.8 -2.40039 c 2,20,-1
 27.2002 -2.40039 l 1,21,-1
 27.2002 31.2002 l 1,22,-1
 68.7998 33.5996 l 2,23,24
 76.7998 33.5996 76.7998 33.5996 81.2002 38.7998 c 128,-1,25
 85.5996 44 85.5996 44 85.5996 49.5996 c 2,26,-1
 85.5996 476 l 2,27,28
 85.5996 481.6 85.5996 481.6 81.2002 486.8 c 128,-1,29
 76.7998 492 76.7998 492 68.7998 492 c 2,30,-1
 27.2002 494.4 l 1,31,-1
 27.2002 528 l 1,32,-1
 232.8 528 l 2,33,34
 295.2 528 295.2 528 348.8 512.4 c 128,-1,35
 402.4 496.8 402.4 496.8 441.6 464 c 128,-1,36
 480.8 431.2 480.8 431.2 502.8 381.2 c 128,-1,37
 524.8 331.2 524.8 331.2 524.8 264 c 0,13,14
EndSplineSet
EndChar

StartChar: E
Encoding: 37 69 40
Width: 466
VWidth: 800
Flags: W
LayerCount: 2
Back
Fore
SplineSet
25.5996 0 m 1,0,-1
 25.5996 33.5996 l 1,1,-1
 66.4004 36 l 2,2,3
 74.4004 36 74.4004 36 78.7998 41.2002 c 128,-1,4
 83.2002 46.4004 83.2002 46.4004 83.2002 52 c 2,5,-1
 83.2002 478.4 l 2,6,7
 83.2002 484 83.2002 484 78.7998 489.2 c 128,-1,8
 74.4004 494.4 74.4004 494.4 66.4004 494.4 c 2,9,-1
 25.5996 496.8 l 1,10,-1
 25.5996 530.4 l 1,11,-1
 413.6 530.4 l 1,12,-1
 413.6 412 l 1,13,-1
 365.6 412 l 1,14,-1
 353.6 477.6 l 1,15,16
 353.6 483.2 353.6 483.2 349.6 487.6 c 128,-1,17
 345.6 492 345.6 492 340.8 492 c 2,18,-1
 168 492 l 1,19,-1
 168 292.8 l 1,20,-1
 287.2 292.8 l 2,21,22
 292 292.8 292 292.8 296.4 297.2 c 128,-1,23
 300.8 301.6 300.8 301.6 300.8 305.6 c 2,24,-1
 308.8 360 l 1,25,-1
 348.8 360 l 1,26,-1
 348.8 181.6 l 1,27,-1
 308.8 181.6 l 1,28,-1
 300.8 236.8 l 2,29,30
 300.8 240.8 300.8 240.8 296.4 245.6 c 128,-1,31
 292 250.4 292 250.4 287.2 250.4 c 2,32,-1
 168 250.4 l 1,33,-1
 168 30.4004 l 1,34,-1
 369.6 30.4004 l 2,35,36
 374.4 30.4004 374.4 30.4004 378.4 35.5996 c 128,-1,37
 382.4 40.7998 382.4 40.7998 382.4 44.7998 c 2,38,-1
 396.8 124 l 1,39,-1
 439.2 124 l 1,40,-1
 439.2 -8.7998 l 1,41,-1
 25.5996 0 l 1,0,-1
EndSplineSet
EndChar

StartChar: F
Encoding: 38 70 41
Width: 432
VWidth: 800
Flags: W
LayerCount: 2
Back
Fore
SplineSet
361.6 409.6 m 1,0,-1
 350.4 482.4 l 2,1,2
 349.6 488 349.6 488 346.4 492 c 128,-1,3
 343.2 496 343.2 496 338.4 496 c 2,4,-1
 168.8 496 l 1,5,-1
 168.8 288 l 1,6,-1
 290.4 288 l 2,7,8
 295.2 288 295.2 288 299.2 292.8 c 128,-1,9
 303.2 297.6 303.2 297.6 303.2 301.6 c 2,10,-1
 310.4 357.6 l 1,11,-1
 349.6 357.6 l 1,12,-1
 349.6 177.6 l 1,13,-1
 310.4 177.6 l 1,14,-1
 303.2 232.8 l 2,15,16
 303.2 236.8 303.2 236.8 299.2 241.6 c 128,-1,17
 295.2 246.4 295.2 246.4 290.4 246.4 c 2,18,-1
 168.8 246.4 l 1,19,-1
 168.8 51.2002 l 2,20,21
 168.8 45.5996 168.8 45.5996 172.8 40.4004 c 128,-1,22
 176.8 35.2002 176.8 35.2002 184.8 35.2002 c 2,23,-1
 237.6 32.7998 l 1,24,-1
 237.6 -0.799805 l 1,25,-1
 28 -0.799805 l 1,26,-1
 28 32.7998 l 1,27,-1
 69.5996 35.2002 l 2,28,29
 77.5996 35.2002 77.5996 35.2002 81.5996 40.4004 c 128,-1,30
 85.5996 45.5996 85.5996 45.5996 85.5996 51.2002 c 2,31,-1
 85.5996 477.6 l 2,32,33
 85.5996 483.2 85.5996 483.2 81.5996 488.4 c 128,-1,34
 77.5996 493.6 77.5996 493.6 69.5996 493.6 c 2,35,-1
 20.7998 496 l 1,36,-1
 20.7998 529.6 l 1,37,-1
 409.6 529.6 l 1,38,-1
 409.6 403.2 l 1,39,-1
 361.6 409.6 l 1,0,-1
EndSplineSet
EndChar

StartChar: G
Encoding: 39 71 42
Width: 555
VWidth: 800
Flags: W
LayerCount: 2
Back
Fore
SplineSet
495.2 220 m 2,0,1
 487.2 220 487.2 220 483.2 215.2 c 128,-1,2
 479.2 210.4 479.2 210.4 479.2 204.8 c 2,3,-1
 479.2 20.7998 l 1,4,5
 455.2 12 455.2 12 428 5.59961 c 0,6,7
 404.8 0 404.8 0 374.8 -4.7998 c 128,-1,8
 344.8 -9.59961 344.8 -9.59961 312.8 -9.59961 c 0,9,10
 268.8 -9.59961 268.8 -9.59961 230.8 0.799805 c 128,-1,11
 192.8 11.2002 192.8 11.2002 162 30 c 128,-1,12
 131.2 48.7998 131.2 48.7998 107.6 74.7998 c 128,-1,13
 84 100.8 84 100.8 68 132 c 128,-1,14
 52 163.2 52 163.2 44 198.4 c 128,-1,15
 36 233.6 36 233.6 36 270.4 c 0,16,17
 36 332.8 36 332.8 55.5996 384.4 c 128,-1,18
 75.2002 436 75.2002 436 112.4 472.4 c 128,-1,19
 149.6 508.8 149.6 508.8 203.2 528.8 c 128,-1,20
 256.8 548.8 256.8 548.8 323.2 548.8 c 0,21,22
 345.6 548.8 345.6 548.8 366 546.4 c 128,-1,23
 386.4 544 386.4 544 405.2 540.4 c 128,-1,24
 424 536.8 424 536.8 442 532 c 128,-1,25
 460 527.2 460 527.2 477.6 523.2 c 1,26,-1
 477.6 394.4 l 1,27,-1
 429.6 394.4 l 1,28,-1
 416.8 465.6 l 2,29,30
 416 472 416 472 411.6 476.8 c 128,-1,31
 407.2 481.6 407.2 481.6 402.4 483.2 c 0,32,33
 396.8 484.8 396.8 484.8 388.8 488 c 128,-1,34
 380.8 491.2 380.8 491.2 370.4 494.4 c 128,-1,35
 360 497.6 360 497.6 347.6 499.6 c 128,-1,36
 335.2 501.6 335.2 501.6 321.6 501.6 c 0,37,38
 278.4 501.6 278.4 501.6 242.8 486.4 c 128,-1,39
 207.2 471.2 207.2 471.2 181.6 442 c 128,-1,40
 156 412.8 156 412.8 142 370 c 128,-1,41
 128 327.2 128 327.2 128 272 c 0,42,43
 128 215.2 128 215.2 142.4 170.4 c 128,-1,44
 156.8 125.6 156.8 125.6 183.2 94.7998 c 128,-1,45
 209.6 64 209.6 64 247.2 48 c 128,-1,46
 284.8 32 284.8 32 331.2 32 c 0,47,48
 344 32 344 32 356 33.5996 c 128,-1,49
 368 35.2002 368 35.2002 377.2 37.2002 c 128,-1,50
 386.4 39.2002 386.4 39.2002 392.4 40.7998 c 128,-1,51
 398.4 42.4004 398.4 42.4004 399.2 42.4004 c 1,52,-1
 399.2 201.6 l 2,53,54
 399.2 207.2 399.2 207.2 395.2 212 c 128,-1,55
 391.2 216.8 391.2 216.8 383.2 216.8 c 2,56,-1
 330.4 220 l 1,57,-1
 330.4 254.4 l 1,58,-1
 538.4 254.4 l 1,59,-1
 538.4 220 l 1,60,-1
 495.2 220 l 2,0,1
EndSplineSet
EndChar

StartChar: H
Encoding: 40 72 43
Width: 594
VWidth: 800
Flags: W
LayerCount: 2
Back
Fore
SplineSet
366.4 0 m 1,0,-1
 366.4 33.5996 l 1,1,-1
 412 36 l 2,2,3
 420 36 420 36 424 41.2002 c 128,-1,4
 428 46.4004 428 46.4004 428 52 c 2,5,-1
 428 258.4 l 1,6,-1
 164.8 258.4 l 1,7,-1
 164.8 52 l 2,8,9
 164.8 46.4004 164.8 46.4004 168.8 41.2002 c 128,-1,10
 172.8 36 172.8 36 180.8 36 c 2,11,-1
 226.4 33.5996 l 1,12,-1
 226.4 0 l 1,13,-1
 24.7998 0 l 1,14,-1
 24.7998 33.5996 l 1,15,-1
 65.5996 36 l 2,16,17
 73.5996 36 73.5996 36 78 41.2002 c 128,-1,18
 82.4004 46.4004 82.4004 46.4004 82.4004 52 c 2,19,-1
 82.4004 478.4 l 2,20,21
 82.4004 484 82.4004 484 78 488.8 c 128,-1,22
 73.5996 493.6 73.5996 493.6 65.5996 493.6 c 2,23,-1
 24.7998 496 l 1,24,-1
 24.7998 530.4 l 1,25,-1
 226.4 530.4 l 1,26,-1
 226.4 496 l 1,27,-1
 180.8 493.6 l 2,28,29
 172.8 493.6 172.8 493.6 168.8 488.8 c 128,-1,30
 164.8 484 164.8 484 164.8 478.4 c 2,31,-1
 164.8 298.4 l 1,32,-1
 428 298.4 l 1,33,-1
 428 478.4 l 2,34,35
 428 484 428 484 424 488.8 c 128,-1,36
 420 493.6 420 493.6 412 493.6 c 2,37,-1
 366.4 496 l 1,38,-1
 366.4 530.4 l 1,39,-1
 568 530.4 l 1,40,-1
 568 496 l 1,41,-1
 527.2 493.6 l 2,42,43
 519.2 493.6 519.2 493.6 514.8 488.8 c 128,-1,44
 510.4 484 510.4 484 510.4 478.4 c 2,45,-1
 510.4 52 l 2,46,47
 510.4 46.4004 510.4 46.4004 514.8 41.2002 c 128,-1,48
 519.2 36 519.2 36 527.2 36 c 2,49,-1
 568 33.5996 l 1,50,-1
 568 0 l 1,51,-1
 366.4 0 l 1,0,-1
EndSplineSet
EndChar

StartChar: I
Encoding: 41 73 44
Width: 264
VWidth: 800
Flags: W
LayerCount: 2
Back
Fore
SplineSet
26.4004 0 m 1,0,-1
 26.4004 33.5996 l 1,1,-1
 73.5996 36 l 2,2,3
 81.5996 36 81.5996 36 85.5996 41.2002 c 128,-1,4
 89.5996 46.4004 89.5996 46.4004 89.5996 52 c 2,5,-1
 89.5996 478.4 l 2,6,7
 89.5996 484 89.5996 484 85.5996 488.8 c 128,-1,8
 81.5996 493.6 81.5996 493.6 73.5996 493.6 c 2,9,-1
 26.4004 496 l 1,10,-1
 26.4004 530.4 l 1,11,-1
 236.8 530.4 l 1,12,-1
 236.8 496 l 1,13,-1
 188 493.6 l 2,14,15
 180 493.6 180 493.6 176 488.8 c 128,-1,16
 172 484 172 484 172 478.4 c 2,17,-1
 172 52 l 2,18,19
 172 46.4004 172 46.4004 176 41.2002 c 128,-1,20
 180 36 180 36 188 36 c 2,21,-1
 236.8 33.5996 l 1,22,-1
 236.8 0 l 1,23,-1
 26.4004 0 l 1,0,-1
EndSplineSet
EndChar

StartChar: J
Encoding: 42 74 45
Width: 387
VWidth: 800
Flags: W
LayerCount: 2
Back
Fore
SplineSet
320 499.2 m 2,0,1
 312 499.2 312 499.2 308 494 c 128,-1,2
 304 488.8 304 488.8 304 483.2 c 2,3,-1
 304 204 l 2,4,5
 304 154.4 304 154.4 294.8 114.8 c 128,-1,6
 285.6 75.2002 285.6 75.2002 265.2 47.5996 c 128,-1,7
 244.8 20 244.8 20 211.6 5.2002 c 128,-1,8
 178.4 -9.59961 178.4 -9.59961 130.4 -9.59961 c 0,9,10
 111.2 -9.59961 111.2 -9.59961 92.7998 -6.40039 c 128,-1,11
 74.4004 -3.2002 74.4004 -3.2002 59.5996 0.799805 c 128,-1,12
 44.7998 4.7998 44.7998 4.7998 35.2002 8 c 128,-1,13
 25.5996 11.2002 25.5996 11.2002 24.7998 11.2002 c 1,14,-1
 24.7998 147.2 l 1,15,-1
 72.7998 147.2 l 1,16,-1
 89.5996 49.5996 l 2,17,18
 90.4004 44 90.4004 44 94 40 c 128,-1,19
 97.5996 36 97.5996 36 102.4 34 c 128,-1,20
 107.2 32 107.2 32 113.2 31.2002 c 128,-1,21
 119.2 30.4004 119.2 30.4004 124.8 30.4004 c 0,22,23
 152 30.4004 152 30.4004 170.8 40.7998 c 128,-1,24
 189.6 51.2002 189.6 51.2002 201.6 72 c 128,-1,25
 213.6 92.7998 213.6 92.7998 218.8 124.4 c 128,-1,26
 224 156 224 156 224 197.6 c 2,27,-1
 224 481.6 l 2,28,29
 224 487.2 224 487.2 220 492.4 c 128,-1,30
 216 497.6 216 497.6 208 497.6 c 2,31,-1
 158.4 500 l 1,32,-1
 158.4 533.6 l 1,33,-1
 369.6 533.6 l 1,34,-1
 369.6 500 l 1,35,-1
 320 499.2 l 2,0,1
EndSplineSet
EndChar

StartChar: K
Encoding: 43 75 46
Width: 510
VWidth: 800
Flags: W
LayerCount: 2
Back
Fore
SplineSet
369.6 0 m 1,0,-1
 369.6 24 l 1,1,-1
 220.8 237.6 l 1,2,-1
 165.6 237.6 l 1,3,-1
 165.6 54.4004 l 2,4,5
 165.6 48.7998 165.6 48.7998 170 43.5996 c 128,-1,6
 174.4 38.4004 174.4 38.4004 182.4 38.4004 c 2,7,-1
 228 36 l 1,8,-1
 228 2.40039 l 1,9,-1
 25.5996 2.40039 l 1,10,-1
 25.5996 36 l 1,11,-1
 67.2002 38.4004 l 2,12,13
 75.2002 38.4004 75.2002 38.4004 79.2002 43.5996 c 128,-1,14
 83.2002 48.7998 83.2002 48.7998 83.2002 54.4004 c 2,15,-1
 83.2002 480.8 l 2,16,17
 83.2002 486.4 83.2002 486.4 79.2002 491.6 c 128,-1,18
 75.2002 496.8 75.2002 496.8 67.2002 496.8 c 2,19,-1
 25.5996 499.2 l 1,20,-1
 25.5996 532.8 l 1,21,-1
 228 532.8 l 1,22,-1
 228 499.2 l 1,23,-1
 182.4 496.8 l 2,24,25
 174.4 496.8 174.4 496.8 170 491.6 c 128,-1,26
 165.6 486.4 165.6 486.4 165.6 480.8 c 2,27,-1
 165.6 271.2 l 1,28,-1
 194.4 271.2 l 1,29,-1
 368 484 l 2,30,31
 370.4 487.2 370.4 487.2 368 491.6 c 128,-1,32
 365.6 496 365.6 496 362.4 496 c 2,33,-1
 321.6 499.2 l 1,34,-1
 321.6 532.8 l 1,35,-1
 490.4 532.8 l 1,36,-1
 490.4 499.2 l 1,37,38
 476.8 498.4 476.8 498.4 465.6 497.6 c 0,39,40
 456 496.8 456 496.8 447.6 496 c 128,-1,41
 439.2 495.2 439.2 495.2 437.6 495.2 c 1,42,-1
 274.4 300 l 1,43,-1
 453.6 37.5996 l 1,44,-1
 511.2 34.4004 l 1,45,-1
 511.2 0.799805 l 1,46,-1
 369.6 0 l 1,0,-1
EndSplineSet
EndChar

StartChar: L
Encoding: 44 76 47
Width: 424
VWidth: 800
Flags: W
LayerCount: 2
Back
Fore
SplineSet
20.7998 0 m 1,0,-1
 20.7998 33.5996 l 1,1,-1
 67.2002 36 l 2,2,3
 75.2002 36 75.2002 36 79.2002 41.2002 c 128,-1,4
 83.2002 46.4004 83.2002 46.4004 83.2002 52 c 2,5,-1
 83.2002 478.4 l 2,6,7
 83.2002 484 83.2002 484 79.2002 489.2 c 128,-1,8
 75.2002 494.4 75.2002 494.4 67.2002 494.4 c 2,9,-1
 20.7998 496.8 l 1,10,-1
 20.7998 530.4 l 1,11,-1
 224.8 530.4 l 1,12,-1
 224.8 496.8 l 1,13,-1
 182.4 494.4 l 2,14,15
 174.4 494.4 174.4 494.4 170 489.2 c 128,-1,16
 165.6 484 165.6 484 165.6 478.4 c 2,17,-1
 165.6 36 l 1,18,-1
 332.8 36 l 2,19,20
 337.6 36 337.6 36 343.2 40 c 128,-1,21
 348.8 44 348.8 44 348.8 48.7998 c 2,22,-1
 361.6 144.8 l 1,23,-1
 408 144.8 l 1,24,-1
 408 -4 l 1,25,-1
 20.7998 0 l 1,0,-1
EndSplineSet
EndChar

StartChar: M
Encoding: 45 77 48
Width: 700
VWidth: 800
Flags: W
LayerCount: 2
Back
Fore
SplineSet
473.6 0 m 1,0,-1
 473.6 33.5996 l 1,1,-1
 516 36 l 2,2,3
 524 36 524 36 528.4 41.2002 c 128,-1,4
 532.8 46.4004 532.8 46.4004 532.8 52 c 2,5,-1
 532.8 492.8 l 1,6,-1
 349.6 -3.2002 l 1,7,-1
 310.4 -3.2002 l 1,8,-1
 132.8 484.8 l 1,9,-1
 132.8 52 l 2,10,11
 132.8 46.4004 132.8 46.4004 137.2 41.2002 c 128,-1,12
 141.6 36 141.6 36 149.6 36 c 2,13,-1
 195.2 33.5996 l 1,14,-1
 195.2 0 l 1,15,-1
 22.4004 0 l 1,16,-1
 22.4004 33.5996 l 1,17,-1
 68 36 l 2,18,19
 76 36 76 36 80 41.2002 c 128,-1,20
 84 46.4004 84 46.4004 84 52 c 2,21,-1
 84 478.4 l 2,22,23
 84 484 84 484 80 489.2 c 128,-1,24
 76 494.4 76 494.4 68 494.4 c 2,25,-1
 22.4004 496.8 l 1,26,-1
 22.4004 530.4 l 1,27,-1
 201.6 530.4 l 1,28,-1
 201.6 509.6 l 1,29,-1
 346.4 116.8 l 1,30,-1
 491.2 507.2 l 1,31,-1
 491.2 530.4 l 1,32,-1
 674.4 530.4 l 1,33,-1
 674.4 496.8 l 1,34,-1
 631.2 494.4 l 2,35,36
 623.2 494.4 623.2 494.4 618.8 489.2 c 128,-1,37
 614.4 484 614.4 484 614.4 478.4 c 2,38,-1
 614.4 52 l 2,39,40
 614.4 46.4004 614.4 46.4004 618.8 41.2002 c 128,-1,41
 623.2 36 623.2 36 631.2 36 c 2,42,-1
 674.4 33.5996 l 1,43,-1
 674.4 0 l 1,44,-1
 473.6 0 l 1,0,-1
EndSplineSet
EndChar

StartChar: N
Encoding: 46 78 49
Width: 576
VWidth: 800
Flags: W
LayerCount: 2
Back
Fore
SplineSet
508.8 499.2 m 2,0,1
 500.8 499.2 500.8 499.2 496.8 494 c 128,-1,2
 492.8 488.8 492.8 488.8 492.8 483.2 c 2,3,-1
 492.8 1.59961 l 1,4,-1
 430.4 1.59961 l 1,5,-1
 132.8 449.6 l 1,6,-1
 132.8 56.7998 l 2,7,8
 132.8 51.2002 132.8 51.2002 136.8 46 c 128,-1,9
 140.8 40.7998 140.8 40.7998 148.8 40.7998 c 2,10,-1
 194.4 38.4004 l 1,11,-1
 194.4 4.7998 l 1,12,-1
 21.5996 4.7998 l 1,13,-1
 21.5996 38.4004 l 1,14,-1
 67.2002 40.7998 l 2,15,16
 75.2002 40.7998 75.2002 40.7998 79.5996 46 c 128,-1,17
 84 51.2002 84 51.2002 84 56.7998 c 2,18,-1
 84 483.2 l 2,19,20
 84 488.8 84 488.8 79.5996 494 c 128,-1,21
 75.2002 499.2 75.2002 499.2 67.2002 499.2 c 2,22,-1
 20 501.6 l 1,23,-1
 20 535.2 l 1,24,-1
 178.4 535.2 l 1,25,-1
 178.4 516 l 1,26,-1
 444.8 114.4 l 1,27,-1
 444.8 480.8 l 2,28,29
 444.8 486.4 444.8 486.4 440.8 491.6 c 128,-1,30
 436.8 496.8 436.8 496.8 428.8 496.8 c 2,31,-1
 383.2 499.2 l 1,32,-1
 383.2 532.8 l 1,33,-1
 553.6 532.8 l 1,34,-1
 553.6 499.2 l 1,35,-1
 508.8 499.2 l 2,0,1
EndSplineSet
EndChar

StartChar: O
Encoding: 47 79 50
Width: 584
VWidth: 800
Flags: W
LayerCount: 2
Back
Fore
SplineSet
460.8 266.4 m 1,0,1
 460.8 315.2 460.8 315.2 450.4 358 c 128,-1,2
 440 400.8 440 400.8 419.2 432.8 c 128,-1,3
 398.4 464.8 398.4 464.8 367.2 483.2 c 128,-1,4
 336 501.6 336 501.6 294.4 501.6 c 0,5,6
 251.2 501.6 251.2 501.6 219.2 483.2 c 128,-1,7
 187.2 464.8 187.2 464.8 166.4 432.8 c 128,-1,8
 145.6 400.8 145.6 400.8 135.6 358.4 c 128,-1,9
 125.6 316 125.6 316 125.6 268.8 c 0,10,11
 125.6 220.8 125.6 220.8 135.6 178 c 128,-1,12
 145.6 135.2 145.6 135.2 166.4 102.8 c 128,-1,13
 187.2 70.4004 187.2 70.4004 218.4 51.5996 c 128,-1,14
 249.6 32.7998 249.6 32.7998 292 32.7998 c 0,15,16
 335.2 32.7998 335.2 32.7998 366.8 51.5996 c 128,-1,17
 398.4 70.4004 398.4 70.4004 419.2 102.4 c 128,-1,18
 440 134.4 440 134.4 450 176.8 c 128,-1,19
 460 219.2 460 219.2 460.8 266.4 c 1,0,1
552 267.2 m 0,20,21
 552 209.6 552 209.6 533.6 158.8 c 128,-1,22
 515.2 108 515.2 108 481.2 70 c 128,-1,23
 447.2 32 447.2 32 399.2 10 c 128,-1,24
 351.2 -12 351.2 -12 292.8 -12 c 256,25,26
 234.4 -12 234.4 -12 186.4 9.2002 c 128,-1,27
 138.4 30.4004 138.4 30.4004 104.4 68 c 128,-1,28
 70.4004 105.6 70.4004 105.6 52 156.8 c 128,-1,29
 33.5996 208 33.5996 208 33.5996 268 c 0,30,31
 33.5996 326.4 33.5996 326.4 51.5996 377.2 c 128,-1,32
 69.5996 428 69.5996 428 103.2 466 c 128,-1,33
 136.8 504 136.8 504 184.8 525.6 c 128,-1,34
 232.8 547.2 232.8 547.2 292 547.2 c 256,35,36
 351.2 547.2 351.2 547.2 399.2 525.2 c 128,-1,37
 447.2 503.2 447.2 503.2 481.2 465.2 c 128,-1,38
 515.2 427.2 515.2 427.2 533.6 376.4 c 128,-1,39
 552 325.6 552 325.6 552 267.2 c 0,20,21
EndSplineSet
EndChar

StartChar: P
Encoding: 48 80 51
Width: 463
VWidth: 800
Flags: W
LayerCount: 2
Back
Fore
SplineSet
348.8 373.6 m 0,0,1
 348.8 402.4 348.8 402.4 341.2 425.2 c 128,-1,2
 333.6 448 333.6 448 316.8 463.6 c 128,-1,3
 300 479.2 300 479.2 273.2 487.2 c 128,-1,4
 246.4 495.2 246.4 495.2 208.8 495.2 c 0,5,6
 204 495.2 204 495.2 197.2 495.2 c 128,-1,7
 190.4 495.2 190.4 495.2 184.8 495.2 c 0,8,9
 178.4 495.2 178.4 495.2 171.2 495.2 c 1,10,-1
 171.2 244 l 1,11,12
 171.2 244 171.2 244 176 243.6 c 128,-1,13
 180.8 243.2 180.8 243.2 187.2 242.4 c 128,-1,14
 193.6 241.6 193.6 241.6 200.8 241.2 c 128,-1,15
 208 240.8 208 240.8 213.6 240.8 c 0,16,17
 244.8 240.8 244.8 240.8 270 248.4 c 128,-1,18
 295.2 256 295.2 256 312.8 272.4 c 128,-1,19
 330.4 288.8 330.4 288.8 340 314 c 128,-1,20
 349.6 339.2 349.6 339.2 348.8 373.6 c 0,0,1
432.8 374.4 m 1,21,22
 432.8 330.4 432.8 330.4 416.4 297.6 c 128,-1,23
 400 264.8 400 264.8 372 243.2 c 128,-1,24
 344 221.6 344 221.6 306 211.2 c 128,-1,25
 268 200.8 268 200.8 224.8 200.8 c 0,26,27
 217.6 200.8 217.6 200.8 208.8 200.8 c 128,-1,28
 200 200.8 200 200.8 192 201.2 c 128,-1,29
 184 201.6 184 201.6 178 201.6 c 128,-1,30
 172 201.6 172 201.6 171.2 201.6 c 1,31,-1
 171.2 52.7998 l 2,32,33
 171.2 47.2002 171.2 47.2002 175.2 42 c 128,-1,34
 179.2 36.7998 179.2 36.7998 187.2 36.7998 c 2,35,-1
 239.2 34.4004 l 1,36,-1
 239.2 0.799805 l 1,37,-1
 29.5996 0.799805 l 1,38,-1
 29.5996 34.4004 l 1,39,-1
 71.2002 36.7998 l 2,40,41
 79.2002 36.7998 79.2002 36.7998 83.5996 42 c 128,-1,42
 88 47.2002 88 47.2002 88 52.7998 c 2,43,-1
 88 479.2 l 2,44,45
 88 484.8 88 484.8 83.5996 490 c 128,-1,46
 79.2002 495.2 79.2002 495.2 71.2002 495.2 c 2,47,-1
 23.2002 497.6 l 1,48,-1
 23.2002 531.2 l 1,49,-1
 214.4 531.2 l 2,50,51
 270.4 531.2 270.4 531.2 312 522.8 c 128,-1,52
 353.6 514.4 353.6 514.4 380.4 495.6 c 128,-1,53
 407.2 476.8 407.2 476.8 420.4 446.4 c 128,-1,54
 433.6 416 433.6 416 432.8 374.4 c 1,21,22
EndSplineSet
EndChar

StartChar: Q
Encoding: 49 81 52
Width: 590
VWidth: 800
Flags: W
LayerCount: 2
Back
Fore
SplineSet
465.6 267.2 m 0,0,1
 465.6 314.4 465.6 314.4 455.6 356.8 c 128,-1,2
 445.6 399.2 445.6 399.2 424.8 431.6 c 128,-1,3
 404 464 404 464 372 483.2 c 128,-1,4
 340 502.4 340 502.4 296 502.4 c 0,5,6
 252.8 502.4 252.8 502.4 220.8 484 c 128,-1,7
 188.8 465.6 188.8 465.6 168 433.6 c 128,-1,8
 147.2 401.6 147.2 401.6 137.2 359.2 c 128,-1,9
 127.2 316.8 127.2 316.8 127.2 269.6 c 0,10,11
 127.2 223.2 127.2 223.2 137.6 180.4 c 128,-1,12
 148 137.6 148 137.6 169.2 104.8 c 128,-1,13
 190.4 72 190.4 72 222.4 52.7998 c 128,-1,14
 254.4 33.5996 254.4 33.5996 296.8 33.5996 c 0,15,16
 340 33.5996 340 33.5996 372 52.7998 c 128,-1,17
 404 72 404 72 424.8 104.4 c 128,-1,18
 445.6 136.8 445.6 136.8 455.6 179.6 c 128,-1,19
 465.6 222.4 465.6 222.4 465.6 267.2 c 0,0,1
560 268.8 m 0,20,21
 560 215.2 560 215.2 545.2 168.4 c 128,-1,22
 530.4 121.6 530.4 121.6 502 85.5996 c 128,-1,23
 473.6 49.5996 473.6 49.5996 432.8 25.5996 c 128,-1,24
 392 1.59961 392 1.59961 340.8 -6.40039 c 1,25,26
 340.8 -51.2002 340.8 -51.2002 367.6 -76.7998 c 128,-1,27
 394.4 -102.4 394.4 -102.4 449.6 -102.4 c 0,28,29
 464 -102.4 464 -102.4 476.8 -101.6 c 128,-1,30
 489.6 -100.8 489.6 -100.8 499.6 -99.5996 c 128,-1,31
 509.6 -98.4004 509.6 -98.4004 516.4 -97.2002 c 128,-1,32
 523.2 -96 523.2 -96 525.6 -96 c 1,33,-1
 525.6 -129.6 l 1,34,35
 521.6 -129.6 521.6 -129.6 510.8 -131.6 c 128,-1,36
 500 -133.6 500 -133.6 484 -135.6 c 128,-1,37
 468 -137.6 468 -137.6 448.8 -139.2 c 128,-1,38
 429.6 -140.8 429.6 -140.8 408.8 -140.8 c 0,39,40
 367.2 -140.8 367.2 -140.8 338 -131.6 c 128,-1,41
 308.8 -122.4 308.8 -122.4 290.4 -105.2 c 128,-1,42
 272 -88 272 -88 264 -63.2002 c 128,-1,43
 256 -38.4004 256 -38.4004 256 -8 c 1,44,45
 208 -1.59961 208 -1.59961 167.6 20.4004 c 128,-1,46
 127.2 42.4004 127.2 42.4004 97.5996 78 c 128,-1,47
 68 113.6 68 113.6 51.5996 162 c 128,-1,48
 35.2002 210.4 35.2002 210.4 35.2002 268.8 c 0,49,50
 35.2002 307.2 35.2002 307.2 43.2002 343.2 c 128,-1,51
 51.2002 379.2 51.2002 379.2 66.7998 410.4 c 128,-1,52
 82.4004 441.6 82.4004 441.6 105.2 466.8 c 128,-1,53
 128 492 128 492 157.2 510 c 128,-1,54
 186.4 528 186.4 528 221.2 537.6 c 128,-1,55
 256 547.2 256 547.2 295.2 547.2 c 0,56,57
 356 547.2 356 547.2 404.8 525.6 c 128,-1,58
 453.6 504 453.6 504 488 466.4 c 128,-1,59
 522.4 428.8 522.4 428.8 540.8 377.6 c 128,-1,60
 559.2 326.4 559.2 326.4 560 268.8 c 0,20,21
EndSplineSet
EndChar

StartChar: R
Encoding: 50 82 53
Width: 518
VWidth: 800
Flags: W
LayerCount: 2
Back
Fore
SplineSet
343.2 390.4 m 1,0,1
 343.2 416 343.2 416 335.6 435.6 c 128,-1,2
 328 455.2 328 455.2 311.2 468.8 c 128,-1,3
 294.4 482.4 294.4 482.4 268 489.2 c 128,-1,4
 241.6 496 241.6 496 204 496 c 2,5,-1
 168 496 l 1,6,-1
 168 277.6 l 1,7,8
 168 277.6 168 277.6 172.4 277.6 c 128,-1,9
 176.8 277.6 176.8 277.6 182.8 277.6 c 128,-1,10
 188.8 277.6 188.8 277.6 195.2 277.6 c 128,-1,11
 201.6 277.6 201.6 277.6 205.6 277.6 c 0,12,13
 238.4 277.6 238.4 277.6 264 283.2 c 128,-1,14
 289.6 288.8 289.6 288.8 306.8 302 c 128,-1,15
 324 315.2 324 315.2 332.8 336.8 c 128,-1,16
 341.6 358.4 341.6 358.4 343.2 390.4 c 1,0,1
516.8 -2.40039 m 1,17,18
 514.4 -2.40039 514.4 -2.40039 509.6 -3.59961 c 128,-1,19
 504.8 -4.7998 504.8 -4.7998 498 -6.40039 c 128,-1,20
 491.2 -8 491.2 -8 483.2 -9.2002 c 128,-1,21
 475.2 -10.4004 475.2 -10.4004 466.4 -10.4004 c 0,22,23
 431.2 -10.4004 431.2 -10.4004 409.2 0 c 128,-1,24
 387.2 10.4004 387.2 10.4004 373.6 28 c 128,-1,25
 360 45.5996 360 45.5996 352.4 68 c 128,-1,26
 344.8 90.4004 344.8 90.4004 338.4 114 c 128,-1,27
 332 137.6 332 137.6 324 160 c 128,-1,28
 316 182.4 316 182.4 301.6 200 c 128,-1,29
 287.2 217.6 287.2 217.6 264.4 228 c 128,-1,30
 241.6 238.4 241.6 238.4 205.6 238.4 c 0,31,32
 200 238.4 200 238.4 194 238.4 c 128,-1,33
 188 238.4 188 238.4 183.2 238.4 c 128,-1,34
 178.4 238.4 178.4 238.4 175.2 238.4 c 128,-1,35
 172 238.4 172 238.4 172 238.4 c 1,36,-1
 172 56 l 2,37,38
 172 50.4004 172 50.4004 176 45.2002 c 128,-1,39
 180 40 180 40 188 40 c 2,40,-1
 229.6 37.5996 l 1,41,-1
 229.6 4 l 1,42,-1
 31.2002 4 l 1,43,-1
 31.2002 37.5996 l 1,44,-1
 72 40 l 2,45,46
 80 40 80 40 84.4004 45.2002 c 128,-1,47
 88.7998 50.4004 88.7998 50.4004 88.7998 56 c 2,48,-1
 88.7998 482.4 l 2,49,50
 88.7998 488 88.7998 488 84.4004 493.2 c 128,-1,51
 80 498.4 80 498.4 72 498.4 c 2,52,-1
 31.2002 500.8 l 1,53,-1
 31.2002 534.4 l 1,54,-1
 239.2 534.4 l 2,55,56
 284.8 534.4 284.8 534.4 320.8 527.2 c 128,-1,57
 356.8 520 356.8 520 382 503.6 c 128,-1,58
 407.2 487.2 407.2 487.2 420.4 460.4 c 128,-1,59
 433.6 433.6 433.6 433.6 433.6 394.4 c 0,60,61
 433.6 363.2 433.6 363.2 422.8 340.8 c 128,-1,62
 412 318.4 412 318.4 394 302.8 c 128,-1,63
 376 287.2 376 287.2 352.4 277.6 c 128,-1,64
 328.8 268 328.8 268 304 262.4 c 1,65,66
 336 255.2 336 255.2 355.2 241.6 c 128,-1,67
 374.4 228 374.4 228 385.6 210.8 c 128,-1,68
 396.8 193.6 396.8 193.6 402 174 c 128,-1,69
 407.2 154.4 407.2 154.4 411.2 135.2 c 128,-1,70
 415.2 116 415.2 116 420.4 98.7998 c 128,-1,71
 425.6 81.5996 425.6 81.5996 436.8 68 c 128,-1,72
 448 54.4004 448 54.4004 467.6 46.4004 c 128,-1,73
 487.2 38.4004 487.2 38.4004 520 38.4004 c 1,74,-1
 516.8 -2.40039 l 1,17,18
EndSplineSet
EndChar

StartChar: S
Encoding: 51 83 54
Width: 416
VWidth: 800
Flags: W
LayerCount: 2
Back
Fore
SplineSet
384.8 149.6 m 1,0,1
 384.8 119.2 384.8 119.2 373.2 90 c 128,-1,2
 361.6 60.7998 361.6 60.7998 336 38 c 128,-1,3
 310.4 15.2002 310.4 15.2002 270.4 1.2002 c 128,-1,4
 230.4 -12.7998 230.4 -12.7998 174.4 -12.7998 c 0,5,6
 141.6 -12.7998 141.6 -12.7998 116 -8.40039 c 128,-1,7
 90.4004 -4 90.4004 -4 72 0.799805 c 1,8,9
 51.2002 7.2002 51.2002 7.2002 34.4004 15.2002 c 1,10,-1
 34.4004 156.8 l 1,11,-1
 84 156.8 l 1,12,-1
 94.4004 66.4004 l 2,13,14
 94.4004 62.4004 94.4004 62.4004 98.4004 57.2002 c 128,-1,15
 102.4 52 102.4 52 106.4 50.4004 c 2,16,-1
 112.8 47.2002 l 2,17,18
 118.4 44.7998 118.4 44.7998 128.4 41.5996 c 128,-1,19
 138.4 38.4004 138.4 38.4004 152.8 36 c 128,-1,20
 167.2 33.5996 167.2 33.5996 185.6 33.5996 c 0,21,22
 210.4 33.5996 210.4 33.5996 232 40 c 128,-1,23
 253.6 46.4004 253.6 46.4004 269.2 58.4004 c 128,-1,24
 284.8 70.4004 284.8 70.4004 293.2 87.5996 c 128,-1,25
 301.6 104.8 301.6 104.8 301.6 126.4 c 0,26,27
 301.6 150.4 301.6 150.4 288 168.4 c 128,-1,28
 274.4 186.4 274.4 186.4 253.6 200.4 c 128,-1,29
 232.8 214.4 232.8 214.4 208.4 225.6 c 128,-1,30
 184 236.8 184 236.8 162.4 247.2 c 0,31,32
 138.4 258.4 138.4 258.4 116 270.8 c 128,-1,33
 93.5996 283.2 93.5996 283.2 76.7998 299.6 c 128,-1,34
 60 316 60 316 50.4004 338 c 128,-1,35
 40.7998 360 40.7998 360 40.7998 390.4 c 0,36,37
 40.7998 425.6 40.7998 425.6 54.7998 454.4 c 128,-1,38
 68.7998 483.2 68.7998 483.2 93.5996 503.6 c 128,-1,39
 118.4 524 118.4 524 152 534.8 c 128,-1,40
 185.6 545.6 185.6 545.6 224.8 545.6 c 0,41,42
 247.2 545.6 247.2 545.6 267.2 543.2 c 128,-1,43
 287.2 540.8 287.2 540.8 304.4 536.8 c 128,-1,44
 321.6 532.8 321.6 532.8 336.4 528.4 c 128,-1,45
 351.2 524 351.2 524 364 520 c 1,46,-1
 364 396 l 1,47,-1
 318.4 396 l 1,48,-1
 306.4 472 l 2,49,50
 306.4 475.2 306.4 475.2 302.8 478.8 c 128,-1,51
 299.2 482.4 299.2 482.4 296 484 c 2,52,53
 296 484 296 484 292 486.8 c 128,-1,54
 288 489.6 288 489.6 280 492.4 c 128,-1,55
 272 495.2 272 495.2 259.2 497.6 c 128,-1,56
 246.4 500 246.4 500 228.8 500 c 0,57,58
 204.8 500 204.8 500 186 493.2 c 128,-1,59
 167.2 486.4 167.2 486.4 154 474 c 128,-1,60
 140.8 461.6 140.8 461.6 133.6 444.8 c 128,-1,61
 126.4 428 126.4 428 126.4 408 c 0,62,63
 126.4 390.4 126.4 390.4 133.6 375.6 c 128,-1,64
 140.8 360.8 140.8 360.8 154.8 348.4 c 128,-1,65
 168.8 336 168.8 336 189.2 325.2 c 128,-1,66
 209.6 314.4 209.6 314.4 236 304.8 c 0,67,68
 272 291.2 272 291.2 300 276.4 c 128,-1,69
 328 261.6 328 261.6 347.2 243.6 c 128,-1,70
 366.4 225.6 366.4 225.6 376.4 202.8 c 128,-1,71
 386.4 180 386.4 180 384.8 149.6 c 1,0,1
EndSplineSet
EndChar

StartChar: T
Encoding: 52 84 55
Width: 479
VWidth: 800
Flags: W
LayerCount: 2
Back
Fore
SplineSet
418.4 408.8 m 1,0,-1
 407.2 483.2 l 2,1,2
 406.4 488.8 406.4 488.8 403.2 492.4 c 128,-1,3
 400 496 400 496 395.2 496 c 2,4,-1
 280.8 496 l 1,5,-1
 280.8 53.5996 l 2,6,7
 280.8 48 280.8 48 284.8 42.7998 c 128,-1,8
 288.8 37.5996 288.8 37.5996 296.8 37.5996 c 2,9,-1
 347.2 35.2002 l 1,10,-1
 347.2 1.59961 l 1,11,-1
 131.2 1.59961 l 1,12,-1
 131.2 35.2002 l 1,13,-1
 181.6 37.5996 l 2,14,15
 189.6 37.5996 189.6 37.5996 193.6 42.7998 c 128,-1,16
 197.6 48 197.6 48 197.6 53.5996 c 2,17,-1
 197.6 496 l 1,18,-1
 82.4004 496 l 2,19,20
 77.5996 496 77.5996 496 74 492.4 c 128,-1,21
 70.4004 488.8 70.4004 488.8 70.4004 483.2 c 2,22,-1
 60 408.8 l 1,23,-1
 13.5996 408.8 l 1,24,-1
 13.5996 536 l 1,25,-1
 466.4 536 l 1,26,-1
 466.4 408.8 l 1,27,-1
 418.4 408.8 l 1,0,-1
EndSplineSet
EndChar

StartChar: U
Encoding: 53 85 56
Width: 568
VWidth: 800
Flags: W
LayerCount: 2
Back
Fore
SplineSet
500.8 499.2 m 1,0,1
 492.8 499.2 492.8 499.2 488.8 494 c 128,-1,2
 484.8 488.8 484.8 488.8 484.8 483.2 c 2,3,-1
 484.8 180 l 2,4,5
 484.8 131.2 484.8 131.2 471.6 95.5996 c 128,-1,6
 458.4 60 458.4 60 432.8 36.7998 c 128,-1,7
 407.2 13.5996 407.2 13.5996 368.8 2.40039 c 128,-1,8
 330.4 -8.7998 330.4 -8.7998 280.8 -8.7998 c 0,9,10
 181.6 -8.7998 181.6 -8.7998 133.6 39.2002 c 128,-1,11
 85.5996 87.2002 85.5996 87.2002 85.5996 181.6 c 2,12,-1
 85.5996 484.8 l 2,13,14
 85.5996 490.4 85.5996 490.4 81.5996 495.6 c 128,-1,15
 77.5996 500.8 77.5996 500.8 69.5996 500.8 c 2,16,-1
 27.2002 503.2 l 1,17,-1
 27.2002 536.8 l 1,18,-1
 230.4 536.8 l 1,19,-1
 230.4 503.2 l 1,20,-1
 184.8 500.8 l 2,21,22
 176.8 500.8 176.8 500.8 172.8 495.6 c 128,-1,23
 168.8 490.4 168.8 490.4 168.8 484.8 c 2,24,-1
 168.8 201.6 l 2,25,26
 168.8 167.2 168.8 167.2 174 138.4 c 128,-1,27
 179.2 109.6 179.2 109.6 194 89.2002 c 128,-1,28
 208.8 68.7998 208.8 68.7998 234.8 57.5996 c 128,-1,29
 260.8 46.4004 260.8 46.4004 302.4 46.4004 c 0,30,31
 343.2 46.4004 343.2 46.4004 369.6 58.4004 c 128,-1,32
 396 70.4004 396 70.4004 411.2 91.5996 c 128,-1,33
 426.4 112.8 426.4 112.8 432 141.6 c 128,-1,34
 437.6 170.4 437.6 170.4 437.6 203.2 c 2,35,-1
 437.6 486.4 l 2,36,37
 437.6 492 437.6 492 433.2 497.2 c 128,-1,38
 428.8 502.4 428.8 502.4 420.8 502.4 c 2,39,-1
 375.2 504.8 l 1,40,-1
 375.2 538.4 l 1,41,-1
 548.8 538.4 l 1,42,-1
 548.8 504.8 l 1,43,-1
 500.8 499.2 l 1,0,1
EndSplineSet
EndChar

StartChar: V
Encoding: 54 86 57
Width: 532
VWidth: 800
Flags: W
LayerCount: 2
Back
Fore
SplineSet
478.4 493.6 m 1,0,-1
 299.2 -12.7998 l 1,1,-1
 238.4 -12.7998 l 1,2,-1
 55.2002 494.4 l 1,3,-1
 8 501.6 l 1,4,-1
 8 535.2 l 1,5,-1
 199.2 535.2 l 1,6,-1
 199.2 501.6 l 1,7,-1
 152 498.4 l 2,8,9
 148 498.4 148 498.4 146.4 493.6 c 128,-1,10
 144.8 488.8 144.8 488.8 145.6 485.6 c 2,11,-1
 285.6 90.4004 l 1,12,-1
 420 484 l 2,13,14
 420.8 488 420.8 488 417.2 493.2 c 128,-1,15
 413.6 498.4 413.6 498.4 408.8 498.4 c 2,16,-1
 364.8 501.6 l 1,17,-1
 364.8 535.2 l 1,18,-1
 523.2 535.2 l 1,19,-1
 523.2 501.6 l 1,20,-1
 478.4 493.6 l 1,0,-1
EndSplineSet
EndChar

StartChar: W
Encoding: 55 87 58
Width: 744
VWidth: 800
Flags: W
LayerCount: 2
Back
Fore
SplineSet
687.2 492.8 m 1,0,-1
 565.6 -12.7998 l 1,1,-1
 507.2 -12.7998 l 1,2,-1
 374.4 430.4 l 1,3,-1
 244 -12.7998 l 1,4,-1
 186.4 -12.7998 l 1,5,-1
 56 492.8 l 1,6,-1
 9.59961 501.6 l 1,7,-1
 9.59961 535.2 l 1,8,-1
 192.8 535.2 l 1,9,-1
 192.8 501.6 l 1,10,-1
 145.6 497.6 l 2,11,12
 140.8 497.6 140.8 497.6 139.2 492.8 c 128,-1,13
 137.6 488 137.6 488 138.4 483.2 c 2,14,-1
 233.6 122.4 l 1,15,-1
 358.4 538.4 l 1,16,-1
 420 538.4 l 1,17,-1
 548.8 109.6 l 1,18,-1
 636.8 483.2 l 2,19,20
 637.6 488 637.6 488 634.8 492.8 c 128,-1,21
 632 497.6 632 497.6 626.4 497.6 c 2,22,-1
 576.8 501.6 l 1,23,-1
 576.8 535.2 l 1,24,-1
 740 535.2 l 1,25,-1
 740 501.6 l 1,26,-1
 687.2 492.8 l 1,0,-1
EndSplineSet
EndChar

StartChar: X
Encoding: 56 88 59
Width: 506
VWidth: 800
Flags: W
LayerCount: 2
Back
Fore
SplineSet
293.6 0 m 1,0,-1
 293.6 33.5996 l 1,1,-1
 339.2 37.5996 l 2,2,3
 344.8 37.5996 344.8 37.5996 348 42.4004 c 128,-1,4
 351.2 47.2002 351.2 47.2002 348 52.7998 c 2,5,-1
 242.4 219.2 l 1,6,-1
 119.2 50.4004 l 2,7,8
 116.8 46.4004 116.8 46.4004 118 41.5996 c 128,-1,9
 119.2 36.7998 119.2 36.7998 128.8 36.7998 c 2,10,-1
 176.8 33.5996 l 1,11,-1
 176.8 0 l 1,12,-1
 7.2002 0 l 1,13,-1
 7.2002 33.5996 l 1,14,-1
 55.2002 43.2002 l 1,15,-1
 216 263.2 l 1,16,-1
 70.4004 491.2 l 1,17,-1
 18.4004 500 l 1,18,-1
 18.4004 533.6 l 1,19,-1
 218.4 533.6 l 1,20,-1
 218.4 500 l 1,21,-1
 178.4 496.8 l 2,22,23
 168.8 496.8 168.8 496.8 167.6 491.6 c 128,-1,24
 166.4 486.4 166.4 486.4 168.8 482.4 c 2,25,-1
 266.4 332.8 l 1,26,-1
 373.6 480.8 l 2,27,28
 377.6 486.4 377.6 486.4 374.4 491.2 c 128,-1,29
 371.2 496 371.2 496 365.6 496 c 2,30,-1
 324.8 500.8 l 1,31,-1
 324.8 534.4 l 1,32,-1
 492 534.4 l 1,33,-1
 492 500.8 l 1,34,-1
 440.8 493.6 l 1,35,-1
 292.8 289.6 l 1,36,-1
 449.6 44 l 1,37,-1
 499.2 34.4004 l 1,38,-1
 499.2 0.799805 l 1,39,-1
 293.6 0 l 1,0,-1
EndSplineSet
EndChar

StartChar: Y
Encoding: 57 89 60
Width: 500
VWidth: 800
Flags: W
LayerCount: 2
Back
Fore
SplineSet
449.6 494.4 m 1,0,-1
 288.8 228 l 1,1,-1
 288.8 55.2002 l 2,2,3
 288.8 49.5996 288.8 49.5996 292.8 44.4004 c 128,-1,4
 296.8 39.2002 296.8 39.2002 304.8 39.2002 c 2,5,-1
 355.2 36.7998 l 1,6,-1
 355.2 3.2002 l 1,7,-1
 139.2 3.2002 l 1,8,-1
 139.2 36.7998 l 1,9,-1
 188.8 39.2002 l 2,10,11
 196.8 39.2002 196.8 39.2002 201.2 44.4004 c 128,-1,12
 205.6 49.5996 205.6 49.5996 205.6 55.2002 c 2,13,-1
 205.6 216 l 1,14,-1
 52.7998 492.8 l 1,15,-1
 6.40039 501.6 l 1,16,-1
 6.40039 535.2 l 1,17,-1
 196 535.2 l 1,18,-1
 196 501.6 l 1,19,-1
 156 498.4 l 2,20,21
 147.2 497.6 147.2 497.6 146.4 492.8 c 128,-1,22
 145.6 488 145.6 488 147.2 484 c 2,23,-1
 260 275.2 l 1,24,-1
 383.2 481.6 l 2,25,26
 386.4 487.2 386.4 487.2 383.2 492 c 128,-1,27
 380 496.8 380 496.8 374.4 496.8 c 2,28,-1
 329.6 501.6 l 1,29,-1
 329.6 535.2 l 1,30,-1
 492 535.2 l 1,31,-1
 492 501.6 l 1,32,-1
 449.6 494.4 l 1,0,-1
EndSplineSet
EndChar

StartChar: Z
Encoding: 58 90 61
Width: 460
VWidth: 800
Flags: W
LayerCount: 2
Back
Fore
SplineSet
31.2002 0 m 1,0,-1
 31.2002 34.4004 l 1,1,-1
 328.8 496 l 1,2,-1
 120.8 496 l 2,3,4
 116 496 116 496 112.8 492.4 c 128,-1,5
 109.6 488.8 109.6 488.8 108.8 483.2 c 2,6,-1
 97.5996 409.6 l 1,7,-1
 50.4004 409.6 l 1,8,-1
 50.4004 536.8 l 1,9,-1
 426.4 536.8 l 1,10,-1
 426.4 500.8 l 1,11,-1
 128.8 41.5996 l 1,12,-1
 356 41.5996 l 2,13,14
 360.8 41.5996 360.8 41.5996 364 45.5996 c 128,-1,15
 367.2 49.5996 367.2 49.5996 368 55.2002 c 2,16,-1
 381.6 148 l 1,17,-1
 428.8 148 l 1,18,-1
 428.8 0 l 1,19,-1
 31.2002 0 l 1,0,-1
EndSplineSet
EndChar

StartChar: bracketleft
Encoding: 59 91 62
Width: 337
VWidth: 800
Flags: W
LayerCount: 2
Back
Fore
SplineSet
108.8 -104.8 m 1,0,-1
 108.8 566.4 l 1,1,-1
 302.4 566.4 l 1,2,-1
 302.4 531.2 l 1,3,-1
 178.4 531.2 l 1,4,-1
 178.4 -68 l 1,5,-1
 302.4 -68 l 1,6,-1
 302.4 -104 l 1,7,-1
 108.8 -104.8 l 1,0,-1
EndSplineSet
EndChar

StartChar: backslash
Encoding: 60 92 63
Width: 390
VWidth: 800
Flags: W
LayerCount: 2
Back
Fore
SplineSet
339.2 -73.5996 m 1,0,-1
 0 536.8 l 1,1,-1
 50.4004 536.8 l 1,2,-1
 389.6 -73.5996 l 1,3,-1
 339.2 -73.5996 l 1,0,-1
EndSplineSet
EndChar

StartChar: bracketright
Encoding: 61 93 64
Width: 337
VWidth: 800
Flags: W
LayerCount: 2
Back
Fore
SplineSet
34.4004 -104.8 m 1,0,-1
 34.4004 -68.7998 l 1,1,-1
 160 -68.7998 l 1,2,-1
 160 530.4 l 1,3,-1
 34.4004 530.4 l 1,4,-1
 34.4004 565.6 l 1,5,-1
 229.6 565.6 l 1,6,-1
 229.6 -105.6 l 1,7,-1
 34.4004 -104.8 l 1,0,-1
EndSplineSet
EndChar

StartChar: asciicircum
Encoding: 62 94 65
Width: 261
VWidth: 800
Flags: W
LayerCount: 2
Back
Fore
SplineSet
213.6 440 m 1,0,-1
 131.2 519.2 l 1,1,-1
 48 440 l 1,2,-1
 0 440 l 1,3,-1
 100 575.2 l 1,4,-1
 160 575.2 l 1,5,-1
 260 440 l 1,6,-1
 213.6 440 l 1,0,-1
EndSplineSet
EndChar

StartChar: underscore
Encoding: 63 95 66
Width: 267
VWidth: 800
Flags: W
LayerCount: 2
Back
Fore
SplineSet
0 -118.4 m 1,0,-1
 0 -68 l 1,1,-1
 267.2 -68 l 1,2,-1
 267.2 -118.4 l 1,3,-1
 0 -118.4 l 1,0,-1
EndSplineSet
EndChar

StartChar: grave
Encoding: 64 96 67
Width: 280
VWidth: 800
Flags: W
LayerCount: 2
Back
Fore
SplineSet
139.2 440 m 1,0,-1
 18.4004 517.6 l 2,1,2
 10.4004 522.4 10.4004 522.4 5.59961 530 c 128,-1,3
 0.799805 537.6 0.799805 537.6 0.799805 548 c 0,4,5
 0.799805 553.6 0.799805 553.6 2.40039 560 c 128,-1,6
 4 566.4 4 566.4 8 571.2 c 128,-1,7
 12 576 12 576 18.7998 579.2 c 128,-1,8
 25.5996 582.4 25.5996 582.4 35.2002 582.4 c 0,9,10
 43.2002 582.4 43.2002 582.4 48.7998 581.2 c 128,-1,11
 54.4004 580 54.4004 580 58.7998 577.6 c 128,-1,12
 63.2002 575.2 63.2002 575.2 66.7998 571.2 c 128,-1,13
 70.4004 567.2 70.4004 567.2 74.4004 562.4 c 2,14,-1
 180.8 438.4 l 1,15,-1
 139.2 440 l 1,0,-1
EndSplineSet
EndChar

StartChar: a
Encoding: 65 97 68
Width: 406
VWidth: 800
Flags: W
LayerCount: 2
Back
Fore
SplineSet
264.8 213.6 m 1,0,1
 211.2 200 211.2 200 179.6 186.8 c 128,-1,2
 148 173.6 148 173.6 132 160.4 c 128,-1,3
 116 147.2 116 147.2 111.6 133.6 c 128,-1,4
 107.2 120 107.2 120 107.2 105.6 c 0,5,6
 107.2 93.5996 107.2 93.5996 111.2 82 c 128,-1,7
 115.2 70.4004 115.2 70.4004 122.8 61.2002 c 128,-1,8
 130.4 52 130.4 52 141.2 46.4004 c 128,-1,9
 152 40.7998 152 40.7998 166.4 40.7998 c 0,10,11
 182.4 40.7998 182.4 40.7998 199.6 46.4004 c 128,-1,12
 216.8 52 216.8 52 231.2 58.4004 c 0,13,14
 247.2 66.4004 247.2 66.4004 263.2 76.7998 c 1,15,-1
 264.8 213.6 l 1,0,1
273.6 1.59961 m 1,16,-1
 263.2 48.7998 l 1,17,18
 242.4 32.7998 242.4 32.7998 220.8 20.7998 c 0,19,20
 211.2 16 211.2 16 200.4 11.2002 c 128,-1,21
 189.6 6.40039 189.6 6.40039 178.4 2.40039 c 128,-1,22
 167.2 -1.59961 167.2 -1.59961 155.6 -3.59961 c 128,-1,23
 144 -5.59961 144 -5.59961 132.8 -5.59961 c 0,24,25
 111.2 -5.59961 111.2 -5.59961 92.4004 1.59961 c 128,-1,26
 73.5996 8.7998 73.5996 8.7998 59.5996 22.7998 c 128,-1,27
 45.5996 36.7998 45.5996 36.7998 37.5996 56.4004 c 128,-1,28
 29.5996 76 29.5996 76 29.5996 100.8 c 0,29,30
 29.5996 115.2 29.5996 115.2 32.4004 128.4 c 128,-1,31
 35.2002 141.6 35.2002 141.6 44 154 c 128,-1,32
 52.7998 166.4 52.7998 166.4 68.7998 177.6 c 128,-1,33
 84.7998 188.8 84.7998 188.8 110.8 200 c 128,-1,34
 136.8 211.2 136.8 211.2 174.8 222 c 128,-1,35
 212.8 232.8 212.8 232.8 264.8 244 c 1,36,-1
 264.8 277.6 l 2,37,38
 264.8 317.6 264.8 317.6 247.2 336.8 c 128,-1,39
 229.6 356 229.6 356 191.2 356 c 0,40,41
 170.4 356 170.4 356 155.6 352.4 c 128,-1,42
 140.8 348.8 140.8 348.8 135.2 347.2 c 1,43,-1
 135.2 278.4 l 1,44,-1
 77.5996 278.4 l 2,45,46
 72.7998 278.4 72.7998 278.4 67.5996 278.8 c 128,-1,47
 62.4004 279.2 62.4004 279.2 58.4004 281.6 c 128,-1,48
 54.4004 284 54.4004 284 52 288.4 c 128,-1,49
 49.5996 292.8 49.5996 292.8 49.5996 300 c 0,50,51
 49.5996 324 49.5996 324 64.4004 341.6 c 128,-1,52
 79.2002 359.2 79.2002 359.2 102.8 370.8 c 128,-1,53
 126.4 382.4 126.4 382.4 156 387.6 c 128,-1,54
 185.6 392.8 185.6 392.8 215.2 392.8 c 0,55,56
 252 392.8 252 392.8 276.4 384 c 128,-1,57
 300.8 375.2 300.8 375.2 314.8 359.2 c 128,-1,58
 328.8 343.2 328.8 343.2 334.4 321.6 c 128,-1,59
 340 300 340 300 340 274.4 c 2,60,-1
 340 50.4004 l 2,61,62
 340 43.2002 340 43.2002 344.8 38.7998 c 128,-1,63
 349.6 34.4004 349.6 34.4004 356 34.4004 c 2,64,-1
 394.4 32.7998 l 1,65,-1
 394.4 1.59961 l 1,66,-1
 273.6 1.59961 l 1,16,-1
EndSplineSet
EndChar

StartChar: b
Encoding: 66 98 69
Width: 444
VWidth: 800
Flags: W
LayerCount: 2
Back
Fore
SplineSet
416 211.2 m 1,0,1
 416 166.4 416 166.4 402.8 128 c 128,-1,2
 389.6 89.5996 389.6 89.5996 362 61.2002 c 128,-1,3
 334.4 32.7998 334.4 32.7998 291.2 16.7998 c 128,-1,4
 248 0.799805 248 0.799805 188 0.799805 c 2,5,-1
 72.7998 0.799805 l 1,6,-1
 72.7998 532.8 l 1,7,-1
 12.7998 532.8 l 1,8,-1
 12.7998 559.2 l 1,9,-1
 115.2 589.6 l 1,10,-1
 147.2 589.6 l 1,11,-1
 147.2 366.4 l 1,12,13
 153.6 368.8 153.6 368.8 164.8 373.6 c 128,-1,14
 176 378.4 176 378.4 190.4 382.8 c 128,-1,15
 204.8 387.2 204.8 387.2 221.2 390.4 c 128,-1,16
 237.6 393.6 237.6 393.6 254.4 393.6 c 0,17,18
 293.6 393.6 293.6 393.6 323.2 378.8 c 128,-1,19
 352.8 364 352.8 364 372.8 338.8 c 128,-1,20
 392.8 313.6 392.8 313.6 402.8 280.4 c 128,-1,21
 412.8 247.2 412.8 247.2 416 211.2 c 1,0,1
331.2 195.2 m 0,22,23
 331.2 270.4 331.2 270.4 299.2 308.8 c 128,-1,24
 267.2 347.2 267.2 347.2 209.6 347.2 c 0,25,26
 203.2 347.2 203.2 347.2 194.4 346.4 c 128,-1,27
 185.6 345.6 185.6 345.6 176.8 344 c 128,-1,28
 168 342.4 168 342.4 159.6 340.4 c 128,-1,29
 151.2 338.4 151.2 338.4 145.6 336.8 c 1,30,-1
 145.6 40 l 1,31,32
 152 40 152 40 158.4 40 c 0,33,34
 164 40 164 40 170.4 40 c 2,35,-1
 183.2 40 l 2,36,37
 218.4 40 218.4 40 246 48 c 128,-1,38
 273.6 56 273.6 56 292.4 74.4004 c 128,-1,39
 311.2 92.7998 311.2 92.7998 321.2 122.8 c 128,-1,40
 331.2 152.8 331.2 152.8 331.2 195.2 c 0,22,23
EndSplineSet
EndChar

StartChar: c
Encoding: 67 99 70
Width: 372
VWidth: 800
Flags: W
LayerCount: 2
Back
Fore
SplineSet
345.6 29.5996 m 1,0,1
 332 23.2002 332 23.2002 317.2 16 c 128,-1,2
 302.4 8.7998 302.4 8.7998 285.6 3.59961 c 128,-1,3
 268.8 -1.59961 268.8 -1.59961 250.4 -4.7998 c 128,-1,4
 232 -8 232 -8 212 -8 c 0,5,6
 170.4 -8 170.4 -8 136.8 6.7998 c 128,-1,7
 103.2 21.5996 103.2 21.5996 79.5996 48 c 128,-1,8
 56 74.4004 56 74.4004 43.2002 110.8 c 128,-1,9
 30.4004 147.2 30.4004 147.2 30.4004 189.6 c 0,10,11
 30.4004 239.2 30.4004 239.2 46 277.2 c 128,-1,12
 61.5996 315.2 61.5996 315.2 88 340.8 c 128,-1,13
 114.4 366.4 114.4 366.4 149.2 379.2 c 128,-1,14
 184 392 184 392 221.6 392 c 0,15,16
 247.2 392 247.2 392 270 386.8 c 128,-1,17
 292.8 381.6 292.8 381.6 309.2 371.6 c 128,-1,18
 325.6 361.6 325.6 361.6 334.8 346.8 c 128,-1,19
 344 332 344 332 344 312.8 c 0,20,21
 344 301.6 344 301.6 340 293.2 c 128,-1,22
 336 284.8 336 284.8 329.6 278.8 c 128,-1,23
 323.2 272.8 323.2 272.8 315.2 270 c 128,-1,24
 307.2 267.2 307.2 267.2 298.4 267.2 c 0,25,26
 285.6 267.2 285.6 267.2 276 271.6 c 128,-1,27
 266.4 276 266.4 276 259.2 280 c 1,28,-1
 259.2 348.8 l 1,29,30
 251.2 352.8 251.2 352.8 242.8 355.6 c 128,-1,31
 234.4 358.4 234.4 358.4 227.2 358.4 c 0,32,33
 200.8 358.4 200.8 358.4 179.6 346.4 c 128,-1,34
 158.4 334.4 158.4 334.4 144 313.2 c 128,-1,35
 129.6 292 129.6 292 122 262.8 c 128,-1,36
 114.4 233.6 114.4 233.6 114.4 199.2 c 0,37,38
 114.4 166.4 114.4 166.4 122.4 137.2 c 128,-1,39
 130.4 108 130.4 108 146.8 86.4004 c 128,-1,40
 163.2 64.7998 163.2 64.7998 188 52.4004 c 128,-1,41
 212.8 40 212.8 40 245.6 40 c 0,42,43
 273.6 40 273.6 40 298.4 48.4004 c 128,-1,44
 323.2 56.7998 323.2 56.7998 348.8 73.5996 c 1,45,-1
 345.6 29.5996 l 1,0,1
EndSplineSet
EndChar

StartChar: d
Encoding: 68 100 71
Width: 450
VWidth: 800
Flags: W
LayerCount: 2
Back
Fore
SplineSet
304 344.8 m 1,0,1
 299.2 345.6 299.2 345.6 291.2 347.6 c 128,-1,2
 283.2 349.6 283.2 349.6 274.4 351.2 c 128,-1,3
 265.6 352.8 265.6 352.8 256 353.6 c 128,-1,4
 246.4 354.4 246.4 354.4 238.4 354.4 c 0,5,6
 208.8 354.4 208.8 354.4 184.8 343.2 c 128,-1,7
 160.8 332 160.8 332 144 311.2 c 128,-1,8
 127.2 290.4 127.2 290.4 118.4 260.8 c 128,-1,9
 109.6 231.2 109.6 231.2 109.6 195.2 c 0,10,11
 109.6 162.4 109.6 162.4 117.2 135.2 c 128,-1,12
 124.8 108 124.8 108 139.6 88 c 128,-1,13
 154.4 68 154.4 68 175.6 56.7998 c 128,-1,14
 196.8 45.5996 196.8 45.5996 224 45.5996 c 0,15,16
 236 45.5996 236 45.5996 247.2 48 c 128,-1,17
 258.4 50.4004 258.4 50.4004 268.8 54.4004 c 128,-1,18
 279.2 58.4004 279.2 58.4004 288.4 63.2002 c 128,-1,19
 297.6 68 297.6 68 304.8 72 c 1,20,-1
 304 344.8 l 1,0,1
304.8 0 m 1,21,-1
 304.8 42.4004 l 1,22,23
 291.2 32 291.2 32 276.8 22.7998 c 128,-1,24
 262.4 13.5996 262.4 13.5996 247.2 6.7998 c 128,-1,25
 232 0 232 0 216 -4 c 128,-1,26
 200 -8 200 -8 183.2 -8 c 0,27,28
 143.2 -8 143.2 -8 114.4 9.2002 c 128,-1,29
 85.5996 26.4004 85.5996 26.4004 67.2002 53.5996 c 128,-1,30
 48.7998 80.7998 48.7998 80.7998 40.4004 114.8 c 128,-1,31
 32 148.8 32 148.8 32 182.4 c 0,32,33
 32 222.4 32 222.4 44.4004 260.8 c 128,-1,34
 56.7998 299.2 56.7998 299.2 82 328.8 c 128,-1,35
 107.2 358.4 107.2 358.4 145.2 376 c 128,-1,36
 183.2 393.6 183.2 393.6 234.4 393.6 c 0,37,38
 243.2 393.6 243.2 393.6 254 392.8 c 128,-1,39
 264.8 392 264.8 392 274.8 390.8 c 128,-1,40
 284.8 389.6 284.8 389.6 292.8 388 c 128,-1,41
 300.8 386.4 300.8 386.4 304.8 385.6 c 1,42,-1
 304.8 532 l 1,43,-1
 244.8 532 l 1,44,-1
 244.8 558.4 l 1,45,-1
 347.2 588.8 l 1,46,-1
 379.2 588.8 l 1,47,-1
 379.2 51.2002 l 2,48,49
 379.2 44 379.2 44 383.6 39.5996 c 128,-1,50
 388 35.2002 388 35.2002 395.2 35.2002 c 2,51,-1
 428.8 33.5996 l 1,52,-1
 428.8 2.40039 l 1,53,-1
 304.8 0 l 1,21,-1
EndSplineSet
EndChar

StartChar: e
Encoding: 69 101 72
Width: 392
VWidth: 800
Flags: W
LayerCount: 2
Back
Fore
SplineSet
364.8 39.2002 m 1,0,1
 348.8 28.7998 348.8 28.7998 330.8 20 c 128,-1,2
 312.8 11.2002 312.8 11.2002 293.6 4.7998 c 128,-1,3
 274.4 -1.59961 274.4 -1.59961 254.8 -5.2002 c 128,-1,4
 235.2 -8.7998 235.2 -8.7998 215.2 -8.7998 c 0,5,6
 179.2 -8.7998 179.2 -8.7998 146 3.2002 c 128,-1,7
 112.8 15.2002 112.8 15.2002 87.5996 39.5996 c 128,-1,8
 62.4004 64 62.4004 64 47.2002 101.2 c 128,-1,9
 32 138.4 32 138.4 32 188 c 0,10,11
 32 234.4 32 234.4 46 272.4 c 128,-1,12
 60 310.4 60 310.4 84.7998 337.2 c 128,-1,13
 109.6 364 109.6 364 143.6 378.4 c 128,-1,14
 177.6 392.8 177.6 392.8 218.4 392.8 c 0,15,16
 255.2 392.8 255.2 392.8 283.2 380.8 c 128,-1,17
 311.2 368.8 311.2 368.8 329.6 347.2 c 128,-1,18
 348 325.6 348 325.6 357.2 295.6 c 128,-1,19
 366.4 265.6 366.4 265.6 366.4 230.4 c 2,20,-1
 366.4 220 l 2,21,22
 366.4 214.4 366.4 214.4 366.4 209.6 c 1,23,-1
 107.2 209.6 l 1,24,25
 107.2 179.2 107.2 179.2 113.6 148.8 c 128,-1,26
 120 118.4 120 118.4 135.2 94.4004 c 128,-1,27
 150.4 70.4004 150.4 70.4004 176 55.5996 c 128,-1,28
 201.6 40.7998 201.6 40.7998 240 40.7998 c 0,29,30
 256.8 40.7998 256.8 40.7998 273.2 45.2002 c 128,-1,31
 289.6 49.5996 289.6 49.5996 305.6 56.4004 c 128,-1,32
 321.6 63.2002 321.6 63.2002 336.4 71.5996 c 128,-1,33
 351.2 80 351.2 80 364.8 88.7998 c 1,34,-1
 364.8 39.2002 l 1,0,1
284.8 262.4 m 1,35,36
 284.8 281.6 284.8 281.6 280.4 298.4 c 128,-1,37
 276 315.2 276 315.2 266.8 327.6 c 128,-1,38
 257.6 340 257.6 340 243.2 347.2 c 128,-1,39
 228.8 354.4 228.8 354.4 209.6 354.4 c 256,40,41
 190.4 354.4 190.4 354.4 173.6 346.8 c 128,-1,42
 156.8 339.2 156.8 339.2 144 324.8 c 128,-1,43
 131.2 310.4 131.2 310.4 123.2 290 c 128,-1,44
 115.2 269.6 115.2 269.6 114.4 244 c 1,45,-1
 289.6 244 l 1,46,-1
 284.8 262.4 l 1,35,36
EndSplineSet
EndChar

StartChar: f
Encoding: 70 102 73
Width: 260
VWidth: 800
Flags: W
LayerCount: 2
Back
Fore
SplineSet
311.2 540.8 m 1,0,1
 311.2 528.8 311.2 528.8 306.4 520.8 c 128,-1,2
 301.6 512.8 301.6 512.8 295.2 508 c 128,-1,3
 288.8 503.2 288.8 503.2 282.8 501.2 c 128,-1,4
 276.8 499.2 276.8 499.2 275.2 499.2 c 1,5,6
 275.2 499.2 275.2 499.2 269.6 503.2 c 128,-1,7
 264 507.2 264 507.2 256 512.8 c 128,-1,8
 248 518.4 248 518.4 239.2 524.4 c 128,-1,9
 230.4 530.4 230.4 530.4 222.8 536 c 128,-1,10
 215.2 541.6 215.2 541.6 210 545.2 c 128,-1,11
 204.8 548.8 204.8 548.8 204.8 548.8 c 1,12,13
 196.8 544.8 196.8 544.8 188.8 536.4 c 128,-1,14
 180.8 528 180.8 528 174 513.6 c 128,-1,15
 167.2 499.2 167.2 499.2 163.2 478.8 c 128,-1,16
 159.2 458.4 159.2 458.4 159.2 430.4 c 2,17,-1
 159.2 380 l 1,18,-1
 258.4 380 l 1,19,-1
 258.4 339.2 l 1,20,-1
 159.2 339.2 l 1,21,-1
 159.2 52.7998 l 2,22,23
 159.2 45.5996 159.2 45.5996 164 41.2002 c 128,-1,24
 168.8 36.7998 168.8 36.7998 175.2 36.7998 c 2,25,-1
 222.4 35.2002 l 1,26,-1
 222.4 4 l 1,27,-1
 28 4 l 1,28,-1
 28 35.2002 l 1,29,-1
 67.2002 36.7998 l 2,30,31
 73.5996 36.7998 73.5996 36.7998 78.4004 41.2002 c 128,-1,32
 83.2002 45.5996 83.2002 45.5996 83.2002 52.7998 c 2,33,-1
 83.2002 339.2 l 1,34,-1
 32.7998 339.2 l 1,35,-1
 32.7998 367.2 l 1,36,-1
 83.2002 381.6 l 1,37,38
 83.2002 400.8 83.2002 400.8 84.4004 416.4 c 128,-1,39
 85.5996 432 85.5996 432 88.7998 445.6 c 128,-1,40
 92 459.2 92 459.2 96.7998 472 c 128,-1,41
 101.6 484.8 101.6 484.8 108.8 499.2 c 0,42,43
 120 521.6 120 521.6 135.2 538 c 128,-1,44
 150.4 554.4 150.4 554.4 168 565.2 c 128,-1,45
 185.6 576 185.6 576 204.8 581.2 c 128,-1,46
 224 586.4 224 586.4 243.2 586.4 c 0,47,48
 259.2 586.4 259.2 586.4 272 582.8 c 128,-1,49
 284.8 579.2 284.8 579.2 293.2 572.8 c 128,-1,50
 301.6 566.4 301.6 566.4 305.6 558 c 128,-1,51
 309.6 549.6 309.6 549.6 311.2 540.8 c 1,0,1
EndSplineSet
EndChar

StartChar: g
Encoding: 71 103 74
Width: 419
VWidth: 800
Flags: W
LayerCount: 2
Back
Fore
SplineSet
316 -52.7998 m 1,0,1
 316 -36.7998 316 -36.7998 308 -25.5996 c 128,-1,2
 300 -14.4004 300 -14.4004 286.8 -7.2002 c 128,-1,3
 273.6 0 273.6 0 256.8 4.40039 c 128,-1,4
 240 8.7998 240 8.7998 222.8 11.5996 c 128,-1,5
 205.6 14.4004 205.6 14.4004 189.6 16 c 128,-1,6
 173.6 17.5996 173.6 17.5996 161.6 19.2002 c 1,7,8
 144.8 13.5996 144.8 13.5996 133.2 5.2002 c 128,-1,9
 121.6 -3.2002 121.6 -3.2002 114.8 -13.2002 c 128,-1,10
 108 -23.2002 108 -23.2002 105.2 -33.5996 c 128,-1,11
 102.4 -44 102.4 -44 102.4 -53.5996 c 0,12,13
 102.4 -68 102.4 -68 108.4 -84.4004 c 128,-1,14
 114.4 -100.8 114.4 -100.8 127.2 -114.4 c 128,-1,15
 140 -128 140 -128 159.6 -136.8 c 128,-1,16
 179.2 -145.6 179.2 -145.6 205.6 -145.6 c 0,17,18
 233.6 -145.6 233.6 -145.6 254.8 -136.8 c 128,-1,19
 276 -128 276 -128 290 -114.4 c 128,-1,20
 304 -100.8 304 -100.8 310.8 -84.4004 c 128,-1,21
 317.6 -68 317.6 -68 316 -52.7998 c 1,0,1
272.8 264.8 m 0,22,23
 272.8 283.2 272.8 283.2 268 300.8 c 128,-1,24
 263.2 318.4 263.2 318.4 254 331.6 c 128,-1,25
 244.8 344.8 244.8 344.8 231.2 352.8 c 128,-1,26
 217.6 360.8 217.6 360.8 200 360.8 c 0,27,28
 184 360.8 184 360.8 170 354.4 c 128,-1,29
 156 348 156 348 146.4 335.6 c 128,-1,30
 136.8 323.2 136.8 323.2 131.2 305.2 c 128,-1,31
 125.6 287.2 125.6 287.2 125.6 264.8 c 0,32,33
 125.6 245.6 125.6 245.6 130.4 228 c 128,-1,34
 135.2 210.4 135.2 210.4 144.4 197.2 c 128,-1,35
 153.6 184 153.6 184 167.6 176.4 c 128,-1,36
 181.6 168.8 181.6 168.8 200 168.8 c 0,37,38
 217.6 168.8 217.6 168.8 231.2 176.4 c 128,-1,39
 244.8 184 244.8 184 254 197.2 c 128,-1,40
 263.2 210.4 263.2 210.4 268 228 c 128,-1,41
 272.8 245.6 272.8 245.6 272.8 264.8 c 0,22,23
327.2 332.8 m 1,42,43
 336 318.4 336 318.4 342 301.6 c 128,-1,44
 348 284.8 348 284.8 348 261.6 c 0,45,46
 348 230.4 348 230.4 333.6 206 c 128,-1,47
 319.2 181.6 319.2 181.6 295.2 165.2 c 128,-1,48
 271.2 148.8 271.2 148.8 240.4 141.2 c 128,-1,49
 209.6 133.6 209.6 133.6 176.8 135.2 c 1,50,51
 172.8 128 172.8 128 171.2 119.2 c 128,-1,52
 169.6 110.4 169.6 110.4 169.6 102.8 c 128,-1,53
 169.6 95.2002 169.6 95.2002 170 89.5996 c 128,-1,54
 170.4 84 170.4 84 170.4 84 c 1,55,56
 188 82.4004 188 82.4004 210.8 80.4004 c 128,-1,57
 233.6 78.4004 233.6 78.4004 257.6 74 c 128,-1,58
 281.6 69.5996 281.6 69.5996 304.8 62.4004 c 128,-1,59
 328 55.2002 328 55.2002 345.6 43.5996 c 128,-1,60
 363.2 32 363.2 32 374 15.2002 c 128,-1,61
 384.8 -1.59961 384.8 -1.59961 384.8 -24.7998 c 0,62,63
 384.8 -52.7998 384.8 -52.7998 368.8 -79.5996 c 128,-1,64
 352.8 -106.4 352.8 -106.4 324.8 -127.6 c 128,-1,65
 296.8 -148.8 296.8 -148.8 259.2 -161.6 c 128,-1,66
 221.6 -174.4 221.6 -174.4 178.4 -174.4 c 0,67,68
 143.2 -174.4 143.2 -174.4 115.6 -166 c 128,-1,69
 88 -157.6 88 -157.6 69.2002 -142.4 c 128,-1,70
 50.4004 -127.2 50.4004 -127.2 40.4004 -106.4 c 128,-1,71
 30.4004 -85.5996 30.4004 -85.5996 30.4004 -61.5996 c 0,72,73
 30.4004 -44.7998 30.4004 -44.7998 35.2002 -29.2002 c 128,-1,74
 40 -13.5996 40 -13.5996 50.4004 -1.2002 c 128,-1,75
 60.7998 11.2002 60.7998 11.2002 76.4004 20 c 128,-1,76
 92 28.7998 92 28.7998 113.6 32 c 1,77,78
 112 37.5996 112 37.5996 110.8 41.5996 c 128,-1,79
 109.6 45.5996 109.6 45.5996 108.8 49.2002 c 128,-1,80
 108 52.7998 108 52.7998 108 56.7998 c 128,-1,81
 108 60.7998 108 60.7998 108 67.2002 c 0,82,83
 108 82.4004 108 82.4004 117.2 101.2 c 128,-1,84
 126.4 120 126.4 120 147.2 140.8 c 1,85,86
 128 144.8 128 144.8 110.4 154.8 c 128,-1,87
 92.7998 164.8 92.7998 164.8 79.2002 180 c 128,-1,88
 65.5996 195.2 65.5996 195.2 57.5996 215.2 c 128,-1,89
 49.5996 235.2 49.5996 235.2 49.5996 259.2 c 0,90,91
 49.5996 290.4 49.5996 290.4 61.2002 315.2 c 128,-1,92
 72.7998 340 72.7998 340 93.5996 357.2 c 128,-1,93
 114.4 374.4 114.4 374.4 143.6 383.6 c 128,-1,94
 172.8 392.8 172.8 392.8 208 392.8 c 0,95,96
 221.6 392.8 221.6 392.8 234.8 390.8 c 128,-1,97
 248 388.8 248 388.8 259.6 385.2 c 128,-1,98
 271.2 381.6 271.2 381.6 281.2 377.6 c 128,-1,99
 291.2 373.6 291.2 373.6 298.4 370.4 c 1,100,-1
 405.6 370.4 l 1,101,-1
 405.6 332 l 1,102,-1
 327.2 332.8 l 1,42,43
EndSplineSet
EndChar

StartChar: h
Encoding: 72 104 75
Width: 459
VWidth: 800
Flags: W
LayerCount: 2
Back
Fore
SplineSet
262.4 0 m 1,0,-1
 262.4 31.2002 l 1,1,-1
 295.2 32.7998 l 2,2,3
 301.6 32.7998 301.6 32.7998 306.8 37.2002 c 128,-1,4
 312 41.5996 312 41.5996 312 48.7998 c 2,5,-1
 312 254.4 l 2,6,7
 312 271.2 312 271.2 308.4 285.6 c 128,-1,8
 304.8 300 304.8 300 296 310.4 c 128,-1,9
 287.2 320.8 287.2 320.8 272 326.8 c 128,-1,10
 256.8 332.8 256.8 332.8 234.4 332.8 c 0,11,12
 224 332.8 224 332.8 212.4 331.2 c 128,-1,13
 200.8 329.6 200.8 329.6 189.6 326.8 c 128,-1,14
 178.4 324 178.4 324 168 320 c 128,-1,15
 157.6 316 157.6 316 149.6 312 c 1,16,-1
 149.6 49.5996 l 2,17,18
 149.6 42.4004 149.6 42.4004 153.6 38 c 128,-1,19
 157.6 33.5996 157.6 33.5996 164.8 33.5996 c 2,20,-1
 198.4 32 l 1,21,-1
 198.4 0.799805 l 1,22,-1
 18.4004 0.799805 l 1,23,-1
 18.4004 32 l 1,24,-1
 56 33.5996 l 2,25,26
 63.2002 33.5996 63.2002 33.5996 67.5996 38 c 128,-1,27
 72 42.4004 72 42.4004 72 49.5996 c 2,28,-1
 72 530.4 l 1,29,-1
 12.7998 530.4 l 1,30,-1
 12.7998 556.8 l 1,31,-1
 114.4 587.2 l 1,32,-1
 146.4 587.2 l 1,33,-1
 146.4 344 l 1,34,35
 156.8 350.4 156.8 350.4 172.8 358.8 c 128,-1,36
 188.8 367.2 188.8 367.2 206.8 374.8 c 128,-1,37
 224.8 382.4 224.8 382.4 243.2 387.6 c 128,-1,38
 261.6 392.8 261.6 392.8 276.8 392.8 c 0,39,40
 299.2 392.8 299.2 392.8 318.8 385.6 c 128,-1,41
 338.4 378.4 338.4 378.4 352.8 363.6 c 128,-1,42
 367.2 348.8 367.2 348.8 375.2 326 c 128,-1,43
 383.2 303.2 383.2 303.2 383.2 272.8 c 2,44,-1
 383.2 50.4004 l 2,45,46
 383.2 43.2002 383.2 43.2002 388.4 38.7998 c 128,-1,47
 393.6 34.4004 393.6 34.4004 400 34.4004 c 2,48,-1
 435.2 32.7998 l 1,49,-1
 435.2 1.59961 l 1,50,-1
 262.4 0 l 1,0,-1
EndSplineSet
EndChar

StartChar: i
Encoding: 73 105 76
Width: 242
VWidth: 800
Flags: W
LayerCount: 2
Back
Fore
SplineSet
27.2002 0 m 1,0,-1
 27.2002 31.2002 l 1,1,-1
 65.5996 32.7998 l 2,2,3
 72.7998 32.7998 72.7998 32.7998 77.2002 37.2002 c 128,-1,4
 81.5996 41.5996 81.5996 41.5996 81.5996 48.7998 c 2,5,-1
 81.5996 333.6 l 1,6,-1
 27.2002 333.6 l 1,7,-1
 27.2002 361.6 l 1,8,-1
 124.8 392 l 1,9,-1
 156 392 l 1,10,-1
 156 48 l 2,11,12
 156 40.7998 156 40.7998 160.8 36.4004 c 128,-1,13
 165.6 32 165.6 32 172 32 c 2,14,-1
 212.8 30.4004 l 1,15,-1
 212.8 -0.799805 l 1,16,-1
 27.2002 0 l 1,0,-1
172 516 m 256,17,18
 172 506.4 172 506.4 168.4 497.6 c 128,-1,19
 164.8 488.8 164.8 488.8 158.4 482.4 c 128,-1,20
 152 476 152 476 143.6 472.4 c 128,-1,21
 135.2 468.8 135.2 468.8 125.6 468.8 c 256,22,23
 116 468.8 116 468.8 107.2 472.4 c 128,-1,24
 98.4004 476 98.4004 476 92 482.4 c 128,-1,25
 85.5996 488.8 85.5996 488.8 82 497.6 c 128,-1,26
 78.4004 506.4 78.4004 506.4 78.4004 516 c 256,27,28
 78.4004 525.6 78.4004 525.6 82 534.4 c 128,-1,29
 85.5996 543.2 85.5996 543.2 92 549.6 c 128,-1,30
 98.4004 556 98.4004 556 107.2 559.6 c 128,-1,31
 116 563.2 116 563.2 125.6 563.2 c 256,32,33
 135.2 563.2 135.2 563.2 143.6 559.6 c 128,-1,34
 152 556 152 556 158.4 549.6 c 128,-1,35
 164.8 543.2 164.8 543.2 168.4 534.4 c 128,-1,36
 172 525.6 172 525.6 172 516 c 256,17,18
EndSplineSet
EndChar

StartChar: j
Encoding: 74 106 77
Width: 232
VWidth: 800
Flags: W
LayerCount: 2
Back
Fore
SplineSet
161.6 50.4004 m 2,0,1
 161.6 32.7998 161.6 32.7998 160.8 11.5996 c 128,-1,2
 160 -9.59961 160 -9.59961 156.8 -30.7998 c 128,-1,3
 153.6 -52 153.6 -52 147.6 -72 c 128,-1,4
 141.6 -92 141.6 -92 132 -108 c 0,5,6
 108 -145.6 108 -145.6 73.2002 -163.6 c 128,-1,7
 38.4004 -181.6 38.4004 -181.6 0.799805 -181.6 c 0,8,9
 -11.2002 -181.6 -11.2002 -181.6 -22 -179.2 c 128,-1,10
 -32.7998 -176.8 -32.7998 -176.8 -40.7998 -171.6 c 128,-1,11
 -48.7998 -166.4 -48.7998 -166.4 -53.5996 -158.4 c 128,-1,12
 -58.4004 -150.4 -58.4004 -150.4 -58.4004 -139.2 c 0,13,14
 -58.4004 -129.6 -58.4004 -129.6 -55.5996 -122 c 128,-1,15
 -52.7998 -114.4 -52.7998 -114.4 -48 -108.8 c 128,-1,16
 -43.2002 -103.2 -43.2002 -103.2 -37.2002 -99.5996 c 128,-1,17
 -31.2002 -96 -31.2002 -96 -25.5996 -94.4004 c 1,18,-1
 52 -147.2 l 1,19,20
 62.4004 -141.6 62.4004 -141.6 69.5996 -129.6 c 128,-1,21
 76.7998 -117.6 76.7998 -117.6 81.2002 -100.8 c 128,-1,22
 85.5996 -84 85.5996 -84 87.2002 -63.2002 c 128,-1,23
 88.7998 -42.4004 88.7998 -42.4004 88.7998 -20 c 2,24,-1
 88.7998 334.4 l 1,25,-1
 32.7998 334.4 l 1,26,-1
 32.7998 360.8 l 1,27,-1
 131.2 391.2 l 1,28,-1
 164 391.2 l 1,29,-1
 161.6 50.4004 l 2,0,1
172 512.8 m 256,30,31
 172 503.2 172 503.2 168.4 494.4 c 128,-1,32
 164.8 485.6 164.8 485.6 158.4 479.2 c 128,-1,33
 152 472.8 152 472.8 143.2 469.2 c 128,-1,34
 134.4 465.6 134.4 465.6 124.8 465.6 c 256,35,36
 115.2 465.6 115.2 465.6 106.4 469.2 c 128,-1,37
 97.5996 472.8 97.5996 472.8 90.7998 479.2 c 128,-1,38
 84 485.6 84 485.6 80.4004 494.4 c 128,-1,39
 76.7998 503.2 76.7998 503.2 76.7998 512.8 c 256,40,41
 76.7998 522.4 76.7998 522.4 80.4004 531.2 c 128,-1,42
 84 540 84 540 90.7998 546.4 c 128,-1,43
 97.5996 552.8 97.5996 552.8 106.4 556.4 c 128,-1,44
 115.2 560 115.2 560 124.8 560 c 256,45,46
 134.4 560 134.4 560 143.2 556.4 c 128,-1,47
 152 552.8 152 552.8 158.4 546.4 c 128,-1,48
 164.8 540 164.8 540 168.4 531.2 c 128,-1,49
 172 522.4 172 522.4 172 512.8 c 256,30,31
EndSplineSet
EndChar

StartChar: k
Encoding: 75 107 78
Width: 427
VWidth: 800
Flags: W
LayerCount: 2
Back
Fore
SplineSet
290.4 0 m 1,0,-1
 290.4 31.2002 l 1,1,-1
 190.4 180.8 l 1,2,-1
 146.4 180.8 l 1,3,-1
 146.4 50.4004 l 2,4,5
 146.4 43.2002 146.4 43.2002 150.8 38.7998 c 128,-1,6
 155.2 34.4004 155.2 34.4004 162.4 34.4004 c 2,7,-1
 196 32.7998 l 1,8,-1
 196 1.59961 l 1,9,-1
 14.4004 1.59961 l 1,10,-1
 14.4004 32.7998 l 1,11,-1
 52.7998 34.4004 l 2,12,13
 60 34.4004 60 34.4004 64.4004 38.7998 c 128,-1,14
 68.7998 43.2002 68.7998 43.2002 68.7998 50.4004 c 2,15,-1
 68.7998 531.2 l 1,16,-1
 8.7998 531.2 l 1,17,-1
 8.7998 557.6 l 1,18,-1
 110.4 588 l 1,19,-1
 143.2 588 l 1,20,-1
 143.2 204 l 1,21,-1
 159.2 204 l 1,22,-1
 276 336.8 l 2,23,24
 278.4 340 278.4 340 276.4 344.4 c 128,-1,25
 274.4 348.8 274.4 348.8 269.6 348.8 c 2,26,-1
 236.8 351.2 l 1,27,-1
 236.8 382.4 l 1,28,-1
 392 382.4 l 1,29,-1
 392 351.2 l 1,30,-1
 341.6 346.4 l 1,31,-1
 236 233.6 l 1,32,-1
 373.6 33.5996 l 1,33,-1
 415.2 29.5996 l 1,34,-1
 415.2 -1.59961 l 1,35,-1
 290.4 0 l 1,0,-1
EndSplineSet
EndChar

StartChar: l
Encoding: 76 108 79
Width: 236
VWidth: 800
Flags: W
LayerCount: 2
Back
Fore
SplineSet
20.7998 0 m 1,0,-1
 20.7998 31.2002 l 1,1,-1
 63.2002 32.7998 l 2,2,3
 68 32.7998 68 32.7998 74 38.4004 c 128,-1,4
 80 44 80 44 80 48.7998 c 2,5,-1
 80 530.4 l 1,6,-1
 19.2002 530.4 l 1,7,-1
 19.2002 556.8 l 1,8,-1
 120.8 587.2 l 1,9,-1
 153.6 587.2 l 1,10,-1
 153.6 48.7998 l 2,11,12
 153.6 44 153.6 44 159.2 38.4004 c 128,-1,13
 164.8 32.7998 164.8 32.7998 169.6 32.7998 c 2,14,-1
 212.8 31.2002 l 1,15,-1
 212.8 0 l 1,16,-1
 20.7998 0 l 1,0,-1
EndSplineSet
EndChar

StartChar: m
Encoding: 77 109 80
Width: 680
VWidth: 800
Flags: W
LayerCount: 2
Back
Fore
SplineSet
483.2 0 m 1,0,-1
 483.2 31.2002 l 1,1,-1
 516 32.7998 l 2,2,3
 523.2 32.7998 523.2 32.7998 527.6 37.2002 c 128,-1,4
 532 41.5996 532 41.5996 532 48.7998 c 2,5,-1
 532 252 l 2,6,7
 532 270.4 532 270.4 528.8 285.2 c 128,-1,8
 525.6 300 525.6 300 517.6 310.4 c 128,-1,9
 509.6 320.8 509.6 320.8 496 326.4 c 128,-1,10
 482.4 332 482.4 332 463.2 332 c 0,11,12
 453.6 332 453.6 332 442.8 330.4 c 128,-1,13
 432 328.8 432 328.8 421.2 326 c 128,-1,14
 410.4 323.2 410.4 323.2 400 319.2 c 128,-1,15
 389.6 315.2 389.6 315.2 380.8 311.2 c 1,16,-1
 380.8 48 l 2,17,18
 380.8 40.7998 380.8 40.7998 385.2 36.4004 c 128,-1,19
 389.6 32 389.6 32 396.8 32 c 2,20,-1
 429.6 30.4004 l 1,21,-1
 429.6 -0.799805 l 1,22,-1
 254.4 -0.799805 l 1,23,-1
 254.4 30.4004 l 1,24,-1
 287.2 32 l 2,25,26
 294.4 32 294.4 32 298.8 36.4004 c 128,-1,27
 303.2 40.7998 303.2 40.7998 303.2 48 c 2,28,-1
 303.2 256.8 l 2,29,30
 303.2 272.8 303.2 272.8 299.6 286.8 c 128,-1,31
 296 300.8 296 300.8 288 310.4 c 128,-1,32
 280 320 280 320 266.8 325.6 c 128,-1,33
 253.6 331.2 253.6 331.2 235.2 331.2 c 0,34,35
 224 331.2 224 331.2 212 329.2 c 128,-1,36
 200 327.2 200 327.2 188.8 324 c 128,-1,37
 177.6 320.8 177.6 320.8 168 316.8 c 128,-1,38
 158.4 312.8 158.4 312.8 152 309.6 c 1,39,-1
 152 47.2002 l 2,40,41
 152 40 152 40 156.4 35.5996 c 128,-1,42
 160.8 31.2002 160.8 31.2002 168 31.2002 c 2,43,-1
 200.8 29.5996 l 1,44,-1
 200.8 -1.59961 l 1,45,-1
 20 -1.59961 l 1,46,-1
 20 29.5996 l 1,47,-1
 58.4004 31.2002 l 2,48,49
 65.5996 31.2002 65.5996 31.2002 70 35.5996 c 128,-1,50
 74.4004 40 74.4004 40 74.4004 47.2002 c 2,51,-1
 74.4004 324.8 l 1,52,-1
 20 324.8 l 1,53,-1
 20 350.4 l 1,54,-1
 116.8 380.8 l 1,55,-1
 149.6 380.8 l 1,56,-1
 149.6 341.6 l 1,57,58
 162.4 349.6 162.4 349.6 178.4 358 c 128,-1,59
 194.4 366.4 194.4 366.4 211.2 373.6 c 128,-1,60
 228 380.8 228 380.8 245.2 385.2 c 128,-1,61
 262.4 389.6 262.4 389.6 277.6 389.6 c 0,62,63
 294.4 389.6 294.4 389.6 308.4 384.8 c 128,-1,64
 322.4 380 322.4 380 332.8 372 c 128,-1,65
 343.2 364 343.2 364 351.2 354.4 c 128,-1,66
 359.2 344.8 359.2 344.8 364 335.2 c 1,67,68
 376 342.4 376 342.4 392.8 352 c 128,-1,69
 409.6 361.6 409.6 361.6 428.4 369.6 c 128,-1,70
 447.2 377.6 447.2 377.6 466 383.2 c 128,-1,71
 484.8 388.8 484.8 388.8 500.8 388.8 c 0,72,73
 532 388.8 532 388.8 551.6 377.6 c 128,-1,74
 571.2 366.4 571.2 366.4 582.4 348.8 c 128,-1,75
 593.6 331.2 593.6 331.2 597.6 309.6 c 128,-1,76
 601.6 288 601.6 288 601.6 268 c 2,77,-1
 601.6 47.2002 l 2,78,79
 601.6 40 601.6 40 606.4 35.5996 c 128,-1,80
 611.2 31.2002 611.2 31.2002 617.6 31.2002 c 2,81,-1
 656 29.5996 l 1,82,-1
 656 -1.59961 l 1,83,-1
 483.2 0 l 1,0,-1
EndSplineSet
EndChar

StartChar: n
Encoding: 78 110 81
Width: 452
VWidth: 800
Flags: W
LayerCount: 2
Back
Fore
SplineSet
260.8 0 m 1,0,-1
 260.8 31.2002 l 1,1,-1
 293.6 32.7998 l 2,2,3
 300 32.7998 300 32.7998 304.8 37.2002 c 128,-1,4
 309.6 41.5996 309.6 41.5996 309.6 48.7998 c 2,5,-1
 309.6 256.8 l 2,6,7
 309.6 294.4 309.6 294.4 292.4 314 c 128,-1,8
 275.2 333.6 275.2 333.6 233.6 333.6 c 0,9,10
 211.2 333.6 211.2 333.6 189.2 327.2 c 128,-1,11
 167.2 320.8 167.2 320.8 147.2 311.2 c 1,12,-1
 147.2 48.7998 l 2,13,14
 147.2 41.5996 147.2 41.5996 151.6 37.2002 c 128,-1,15
 156 32.7998 156 32.7998 163.2 32.7998 c 2,16,-1
 196 31.2002 l 1,17,-1
 196 0 l 1,18,-1
 15.2002 0 l 1,19,-1
 15.2002 31.2002 l 1,20,-1
 53.5996 32.7998 l 2,21,22
 60.7998 32.7998 60.7998 32.7998 65.2002 37.2002 c 128,-1,23
 69.5996 41.5996 69.5996 41.5996 69.5996 48.7998 c 2,24,-1
 69.5996 326.4 l 1,25,-1
 14.4004 326.4 l 1,26,-1
 14.4004 352 l 1,27,-1
 112 382.4 l 1,28,-1
 144.8 382.4 l 1,29,-1
 144.8 343.2 l 1,30,31
 160.8 352 160.8 352 178 360.8 c 128,-1,32
 195.2 369.6 195.2 369.6 212 376.4 c 128,-1,33
 228.8 383.2 228.8 383.2 244.8 387.2 c 128,-1,34
 260.8 391.2 260.8 391.2 274.4 391.2 c 0,35,36
 326.4 391.2 326.4 391.2 353.6 358.8 c 128,-1,37
 380.8 326.4 380.8 326.4 380.8 268 c 2,38,-1
 380.8 48 l 2,39,40
 380.8 40.7998 380.8 40.7998 385.6 36.4004 c 128,-1,41
 390.4 32 390.4 32 396.8 32 c 2,42,-1
 431.2 30.4004 l 1,43,-1
 431.2 -0.799805 l 1,44,-1
 260.8 0 l 1,0,-1
EndSplineSet
EndChar

StartChar: o
Encoding: 79 111 82
Width: 434
VWidth: 800
Flags: W
LayerCount: 2
Back
Fore
SplineSet
324 192.8 m 1,0,1
 324 225.6 324 225.6 317.6 255.6 c 128,-1,2
 311.2 285.6 311.2 285.6 298 308.4 c 128,-1,3
 284.8 331.2 284.8 331.2 265.2 344.8 c 128,-1,4
 245.6 358.4 245.6 358.4 219.2 358.4 c 0,5,6
 192 358.4 192 358.4 172 344.8 c 128,-1,7
 152 331.2 152 331.2 139.2 308.4 c 128,-1,8
 126.4 285.6 126.4 285.6 120.4 255.6 c 128,-1,9
 114.4 225.6 114.4 225.6 114.4 192.8 c 0,10,11
 114.4 160.8 114.4 160.8 120.8 130.8 c 128,-1,12
 127.2 100.8 127.2 100.8 140.4 78 c 128,-1,13
 153.6 55.2002 153.6 55.2002 173.2 41.5996 c 128,-1,14
 192.8 28 192.8 28 219.2 28 c 0,15,16
 246.4 28 246.4 28 266.4 41.5996 c 128,-1,17
 286.4 55.2002 286.4 55.2002 299.2 78 c 128,-1,18
 312 100.8 312 100.8 318.4 130.8 c 128,-1,19
 324.8 160.8 324.8 160.8 324 192.8 c 1,0,1
408 192.8 m 0,20,21
 408 150.4 408 150.4 394.8 113.6 c 128,-1,22
 381.6 76.7998 381.6 76.7998 356.8 50 c 128,-1,23
 332 23.2002 332 23.2002 296.8 7.59961 c 128,-1,24
 261.6 -8 261.6 -8 218.4 -8 c 256,25,26
 175.2 -8 175.2 -8 140.4 7.2002 c 128,-1,27
 105.6 22.4004 105.6 22.4004 81.2002 49.2002 c 128,-1,28
 56.7998 76 56.7998 76 44 112.8 c 128,-1,29
 31.2002 149.6 31.2002 149.6 31.2002 192.8 c 0,30,31
 31.2002 235.2 31.2002 235.2 44.4004 272 c 128,-1,32
 57.5996 308.8 57.5996 308.8 82.4004 336 c 128,-1,33
 107.2 363.2 107.2 363.2 142.4 378.8 c 128,-1,34
 177.6 394.4 177.6 394.4 221.6 394.4 c 256,35,36
 265.6 394.4 265.6 394.4 300.4 378.4 c 128,-1,37
 335.2 362.4 335.2 362.4 359.2 335.2 c 128,-1,38
 383.2 308 383.2 308 395.6 271.2 c 128,-1,39
 408 234.4 408 234.4 408 192.8 c 0,20,21
EndSplineSet
EndChar

StartChar: p
Encoding: 80 112 83
Width: 447
VWidth: 800
Flags: W
LayerCount: 2
Back
Fore
SplineSet
339.2 186.4 m 1,0,1
 339.2 216.8 339.2 216.8 332 244 c 128,-1,2
 324.8 271.2 324.8 271.2 310.8 292 c 128,-1,3
 296.8 312.8 296.8 312.8 276 324.8 c 128,-1,4
 255.2 336.8 255.2 336.8 228 336.8 c 0,5,6
 212.8 336.8 212.8 336.8 198.4 333.2 c 128,-1,7
 184 329.6 184 329.6 172.8 325.6 c 0,8,9
 160 320.8 160 320.8 148 314.4 c 1,10,-1
 148 39.2002 l 1,11,12
 156.8 36 156.8 36 167.2 33.5996 c 0,13,14
 176 32 176 32 187.6 30.4004 c 128,-1,15
 199.2 28.7998 199.2 28.7998 211.2 28.7998 c 0,16,17
 244 28.7998 244 28.7998 268 42 c 128,-1,18
 292 55.2002 292 55.2002 307.6 77.2002 c 128,-1,19
 323.2 99.2002 323.2 99.2002 330.8 128 c 128,-1,20
 338.4 156.8 338.4 156.8 339.2 186.4 c 1,0,1
418.4 199.2 m 1,21,22
 418.4 152 418.4 152 404.8 113.6 c 128,-1,23
 391.2 75.2002 391.2 75.2002 365.6 48.4004 c 128,-1,24
 340 21.5996 340 21.5996 302.4 6.7998 c 128,-1,25
 264.8 -8 264.8 -8 217.6 -8 c 0,26,27
 207.2 -8 207.2 -8 194.8 -7.2002 c 128,-1,28
 182.4 -6.40039 182.4 -6.40039 172 -5.59961 c 0,29,30
 160 -4.7998 160 -4.7998 148 -3.2002 c 1,31,-1
 148 -121.6 l 2,32,33
 148 -128.8 148 -128.8 152.8 -132.8 c 128,-1,34
 157.6 -136.8 157.6 -136.8 164.8 -136.8 c 2,35,-1
 212 -141.6 l 1,36,-1
 212 -172 l 1,37,-1
 17.5996 -172 l 1,38,-1
 17.5996 -141.6 l 1,39,-1
 55.2002 -136.8 l 1,40,41
 62.4004 -136.8 62.4004 -136.8 66.7998 -132.8 c 128,-1,42
 71.2002 -128.8 71.2002 -128.8 71.2002 -121.6 c 2,43,-1
 71.2002 328 l 1,44,-1
 16.7998 328 l 1,45,-1
 16.7998 353.6 l 1,46,-1
 115.2 384 l 1,47,-1
 146.4 384 l 1,48,-1
 146.4 344.8 l 1,49,50
 163.2 358.4 163.2 358.4 182.4 368.8 c 0,51,52
 198.4 377.6 198.4 377.6 220 385.2 c 128,-1,53
 241.6 392.8 241.6 392.8 264.8 392.8 c 0,54,55
 295.2 392.8 295.2 392.8 322.8 378.8 c 128,-1,56
 350.4 364.8 350.4 364.8 371.2 339.2 c 128,-1,57
 392 313.6 392 313.6 404 277.6 c 128,-1,58
 416 241.6 416 241.6 418.4 199.2 c 1,21,22
EndSplineSet
EndChar

StartChar: q
Encoding: 81 113 84
Width: 438
VWidth: 800
Flags: W
LayerCount: 2
Back
Fore
SplineSet
297.6 349.6 m 1,0,1
 287.2 351.2 287.2 351.2 273.6 354.4 c 128,-1,2
 260 357.6 260 357.6 244 357.6 c 0,3,4
 211.2 357.6 211.2 357.6 186.4 346 c 128,-1,5
 161.6 334.4 161.6 334.4 144.8 313.2 c 128,-1,6
 128 292 128 292 119.6 262.4 c 128,-1,7
 111.2 232.8 111.2 232.8 111.2 196.8 c 0,8,9
 111.2 166.4 111.2 166.4 118 138 c 128,-1,10
 124.8 109.6 124.8 109.6 139.2 88 c 128,-1,11
 153.6 66.4004 153.6 66.4004 176.4 53.2002 c 128,-1,12
 199.2 40 199.2 40 231.2 40 c 0,13,14
 238.4 40 238.4 40 247.2 40.7998 c 128,-1,15
 256 41.5996 256 41.5996 265.2 42.7998 c 128,-1,16
 274.4 44 274.4 44 282.8 46 c 128,-1,17
 291.2 48 291.2 48 297.6 49.5996 c 1,18,-1
 297.6 349.6 l 1,0,1
233.6 -172.8 m 1,19,-1
 233.6 -143.2 l 1,20,-1
 280.8 -139.2 l 2,21,22
 287.2 -139.2 287.2 -139.2 292 -135.2 c 128,-1,23
 296.8 -131.2 296.8 -131.2 296.8 -124 c 2,24,-1
 296.8 20 l 1,25,26
 285.6 15.2002 285.6 15.2002 272 10 c 128,-1,27
 258.4 4.7998 258.4 4.7998 243.6 0.400391 c 128,-1,28
 228.8 -4 228.8 -4 214 -6.7998 c 128,-1,29
 199.2 -9.59961 199.2 -9.59961 186.4 -9.59961 c 0,30,31
 149.6 -9.59961 149.6 -9.59961 120.4 5.59961 c 128,-1,32
 91.2002 20.7998 91.2002 20.7998 71.2002 46.7998 c 128,-1,33
 51.2002 72.7998 51.2002 72.7998 40.4004 107.6 c 128,-1,34
 29.5996 142.4 29.5996 142.4 29.5996 181.6 c 0,35,36
 29.5996 230.4 29.5996 230.4 45.2002 269.6 c 128,-1,37
 60.7998 308.8 60.7998 308.8 90.4004 336 c 128,-1,38
 120 363.2 120 363.2 162.8 378 c 128,-1,39
 205.6 392.8 205.6 392.8 260 392.8 c 0,40,41
 270.4 392.8 270.4 392.8 284.8 392 c 128,-1,42
 299.2 391.2 299.2 391.2 314.4 390 c 128,-1,43
 329.6 388.8 329.6 388.8 344.8 386.4 c 128,-1,44
 360 384 360 384 372 381.6 c 1,45,-1
 372 -123.2 l 2,46,47
 372 -130.4 372 -130.4 376.8 -134.4 c 128,-1,48
 381.6 -138.4 381.6 -138.4 388 -139.2 c 2,49,-1
 426.4 -143.2 l 1,50,-1
 426.4 -172.8 l 1,51,-1
 233.6 -172.8 l 1,19,-1
EndSplineSet
EndChar

StartChar: r
Encoding: 82 114 85
Width: 312
VWidth: 800
Flags: W
LayerCount: 2
Back
Fore
SplineSet
272.8 303.2 m 1,0,1
 265.6 312 265.6 312 255.6 318.4 c 128,-1,2
 245.6 324.8 245.6 324.8 231.2 324.8 c 0,3,4
 212 324.8 212 324.8 192.4 312 c 128,-1,5
 172.8 299.2 172.8 299.2 152.8 276 c 1,6,-1
 152.8 51.2002 l 2,7,8
 152.8 44 152.8 44 157.2 39.5996 c 128,-1,9
 161.6 35.2002 161.6 35.2002 168.8 35.2002 c 2,10,-1
 220.8 33.5996 l 1,11,-1
 220.8 2.40039 l 1,12,-1
 20.7998 2.40039 l 1,13,-1
 20.7998 32.7998 l 1,14,-1
 60 35.2002 l 2,15,16
 66.4004 35.2002 66.4004 35.2002 71.2002 39.5996 c 128,-1,17
 76 44 76 44 76 51.2002 c 2,18,-1
 76 328.8 l 1,19,-1
 18.4004 328.8 l 1,20,-1
 18.4004 354.4 l 1,21,-1
 117.6 384.8 l 1,22,-1
 150.4 384.8 l 1,23,-1
 150.4 314.4 l 1,24,25
 158.4 323.2 158.4 323.2 170.4 336.8 c 128,-1,26
 182.4 350.4 182.4 350.4 196.4 363.2 c 128,-1,27
 210.4 376 210.4 376 225.2 384.8 c 128,-1,28
 240 393.6 240 393.6 253.6 393.6 c 0,29,30
 259.2 393.6 259.2 393.6 266 392.8 c 128,-1,31
 272.8 392 272.8 392 279.2 390.4 c 128,-1,32
 285.6 388.8 285.6 388.8 291.2 386.8 c 128,-1,33
 296.8 384.8 296.8 384.8 300 383.2 c 1,34,-1
 300 304 l 1,35,-1
 272.8 303.2 l 1,0,1
EndSplineSet
EndChar

StartChar: s
Encoding: 83 115 86
Width: 317
VWidth: 800
Flags: W
LayerCount: 2
Back
Fore
SplineSet
290.4 116 m 1,0,1
 290.4 87.2002 290.4 87.2002 280 64 c 128,-1,2
 269.6 40.7998 269.6 40.7998 250.4 24.7998 c 128,-1,3
 231.2 8.7998 231.2 8.7998 202.8 0.400391 c 128,-1,4
 174.4 -8 174.4 -8 139.2 -8 c 0,5,6
 121.6 -8 121.6 -8 104.4 -6 c 128,-1,7
 87.2002 -4 87.2002 -4 72.7998 -0.799805 c 128,-1,8
 58.4004 2.40039 58.4004 2.40039 47.2002 5.59961 c 128,-1,9
 36 8.7998 36 8.7998 30.4004 10.4004 c 1,10,-1
 30.4004 116 l 1,11,-1
 70.4004 116 l 1,12,-1
 80 48.7998 l 1,13,14
 92 41.5996 92 41.5996 109.6 34.4004 c 128,-1,15
 127.2 27.2002 127.2 27.2002 150.4 27.2002 c 0,16,17
 167.2 27.2002 167.2 27.2002 180.4 32.4004 c 128,-1,18
 193.6 37.5996 193.6 37.5996 202.4 46 c 128,-1,19
 211.2 54.4004 211.2 54.4004 216 65.2002 c 128,-1,20
 220.8 76 220.8 76 220.8 88 c 0,21,22
 220.8 104 220.8 104 214.4 115.6 c 128,-1,23
 208 127.2 208 127.2 195.6 136.4 c 128,-1,24
 183.2 145.6 183.2 145.6 165.2 154.4 c 128,-1,25
 147.2 163.2 147.2 163.2 124.8 174.4 c 0,26,27
 103.2 184.8 103.2 184.8 86.7998 194.8 c 128,-1,28
 70.4004 204.8 70.4004 204.8 59.2002 216.4 c 128,-1,29
 48 228 48 228 42.4004 242 c 128,-1,30
 36.7998 256 36.7998 256 36.7998 273.6 c 0,31,32
 36.7998 300 36.7998 300 46 321.2 c 128,-1,33
 55.2002 342.4 55.2002 342.4 73.2002 357.2 c 128,-1,34
 91.2002 372 91.2002 372 117.6 380 c 128,-1,35
 144 388 144 388 178.4 388 c 0,36,37
 195.2 388 195.2 388 211.2 386.4 c 128,-1,38
 227.2 384.8 227.2 384.8 240.4 382.4 c 128,-1,39
 253.6 380 253.6 380 263.6 377.2 c 128,-1,40
 273.6 374.4 273.6 374.4 279.2 372 c 1,41,-1
 279.2 277.6 l 1,42,-1
 237.6 277.6 l 1,43,-1
 232 332.8 l 1,44,45
 224 339.2 224 339.2 207.6 344.8 c 128,-1,46
 191.2 350.4 191.2 350.4 172.8 350.4 c 0,47,48
 140 350.4 140 350.4 124.4 335.6 c 128,-1,49
 108.8 320.8 108.8 320.8 108.8 297.6 c 0,50,51
 108.8 284 108.8 284 113.2 274 c 128,-1,52
 117.6 264 117.6 264 127.6 255.2 c 128,-1,53
 137.6 246.4 137.6 246.4 154.4 237.2 c 128,-1,54
 171.2 228 171.2 228 196 216.8 c 0,55,56
 216.8 208 216.8 208 234 198 c 128,-1,57
 251.2 188 251.2 188 264 175.6 c 128,-1,58
 276.8 163.2 276.8 163.2 284 148 c 128,-1,59
 291.2 132.8 291.2 132.8 290.4 116 c 1,0,1
EndSplineSet
EndChar

StartChar: t
Encoding: 84 116 87
Width: 271
VWidth: 800
Flags: W
LayerCount: 2
Back
Fore
SplineSet
266.4 16 m 1,0,1
 252 8.7998 252 8.7998 235.2 3.2002 c 0,2,3
 220.8 -1.59961 220.8 -1.59961 201.6 -5.59961 c 128,-1,4
 182.4 -9.59961 182.4 -9.59961 161.6 -9.59961 c 0,5,6
 116.8 -9.59961 116.8 -9.59961 96.7998 11.2002 c 128,-1,7
 76.7998 32 76.7998 32 76.7998 79.2002 c 2,8,-1
 76.7998 344.8 l 1,9,-1
 26.4004 344.8 l 1,10,-1
 26.4004 370.4 l 1,11,-1
 80.7998 396 l 1,12,-1
 116 480 l 1,13,-1
 150.4 480 l 1,14,-1
 150.4 383.2 l 1,15,-1
 263.2 383.2 l 1,16,-1
 263.2 344 l 1,17,-1
 150.4 344 l 1,18,-1
 150.4 120.8 l 2,19,20
 150.4 97.5996 150.4 97.5996 154.4 81.2002 c 128,-1,21
 158.4 64.7998 158.4 64.7998 166.4 54.7998 c 128,-1,22
 174.4 44.7998 174.4 44.7998 186 40.4004 c 128,-1,23
 197.6 36 197.6 36 213.6 36 c 0,24,25
 224.8 36 224.8 36 234.4 37.5996 c 128,-1,26
 244 39.2002 244 39.2002 251.2 41.5996 c 0,27,28
 259.2 44 259.2 44 266.4 47.2002 c 1,29,-1
 266.4 16 l 1,0,1
EndSplineSet
EndChar

StartChar: u
Encoding: 85 117 88
Width: 454
VWidth: 800
Flags: W
LayerCount: 2
Back
Fore
SplineSet
311.2 0 m 1,0,-1
 311.2 45.5996 l 1,1,2
 301.6 38.4004 301.6 38.4004 287.2 28.7998 c 128,-1,3
 272.8 19.2002 272.8 19.2002 256 11.2002 c 128,-1,4
 239.2 3.2002 239.2 3.2002 220.8 -2.40039 c 128,-1,5
 202.4 -8 202.4 -8 185.6 -8 c 0,6,7
 160 -8 160 -8 139.6 -0.400391 c 128,-1,8
 119.2 7.2002 119.2 7.2002 105.2 22.7998 c 128,-1,9
 91.2002 38.4004 91.2002 38.4004 83.5996 62.7998 c 128,-1,10
 76 87.2002 76 87.2002 76 120.8 c 2,11,-1
 76 336.8 l 1,12,-1
 20.7998 336.8 l 1,13,-1
 20.7998 364 l 1,14,-1
 119.2 395.2 l 1,15,-1
 151.2 395.2 l 1,16,-1
 151.2 135.2 l 2,17,18
 151.2 114.4 151.2 114.4 155.2 98 c 128,-1,19
 159.2 81.5996 159.2 81.5996 168 70 c 128,-1,20
 176.8 58.4004 176.8 58.4004 191.6 52.4004 c 128,-1,21
 206.4 46.4004 206.4 46.4004 227.2 46.4004 c 0,22,23
 239.2 46.4004 239.2 46.4004 251.6 48.4004 c 128,-1,24
 264 50.4004 264 50.4004 275.2 54 c 128,-1,25
 286.4 57.5996 286.4 57.5996 296 61.5996 c 128,-1,26
 305.6 65.5996 305.6 65.5996 312 68.7998 c 1,27,-1
 312 336 l 1,28,-1
 256 336 l 1,29,-1
 256 363.2 l 1,30,-1
 353.6 394.4 l 1,31,-1
 386.4 394.4 l 1,32,-1
 386.4 50.4004 l 2,33,34
 386.4 43.2002 386.4 43.2002 391.6 38.7998 c 128,-1,35
 396.8 34.4004 396.8 34.4004 403.2 34.4004 c 2,36,-1
 437.6 32.7998 l 1,37,-1
 437.6 1.59961 l 1,38,-1
 311.2 0 l 1,0,-1
EndSplineSet
EndChar

StartChar: v
Encoding: 86 118 89
Width: 422
VWidth: 800
Flags: W
LayerCount: 2
Back
Fore
SplineSet
372 349.6 m 1,0,-1
 232.8 0 l 1,1,-1
 181.6 0 l 1,2,-1
 52.7998 349.6 l 1,3,-1
 8.7998 353.6 l 1,4,-1
 8.7998 384.8 l 1,5,-1
 185.6 384.8 l 1,6,-1
 185.6 353.6 l 1,7,-1
 148 352 l 2,8,9
 141.6 352 141.6 352 138 347.2 c 128,-1,10
 134.4 342.4 134.4 342.4 136 336 c 2,11,-1
 224.8 86.4004 l 1,12,-1
 323.2 336 l 2,13,14
 325.6 341.6 325.6 341.6 322.4 346.8 c 128,-1,15
 319.2 352 319.2 352 312.8 352 c 2,16,-1
 277.6 353.6 l 1,17,-1
 277.6 384.8 l 1,18,-1
 416.8 384.8 l 1,19,-1
 416.8 353.6 l 1,20,-1
 372 349.6 l 1,0,-1
EndSplineSet
EndChar

StartChar: w
Encoding: 87 119 90
Width: 626
VWidth: 800
Flags: W
LayerCount: 2
Back
Fore
SplineSet
577.6 349.6 m 1,0,-1
 468 0 l 1,1,-1
 412 0 l 1,2,-1
 317.6 299.2 l 1,3,-1
 212.8 0 l 1,4,-1
 156 0 l 1,5,-1
 54.4004 349.6 l 1,6,-1
 10.4004 353.6 l 1,7,-1
 10.4004 384.8 l 1,8,-1
 185.6 384.8 l 1,9,-1
 185.6 353.6 l 1,10,-1
 148.8 352 l 2,11,12
 142.4 352 142.4 352 138.8 347.2 c 128,-1,13
 135.2 342.4 135.2 342.4 136.8 336 c 2,14,-1
 203.2 87.2002 l 1,15,-1
 305.6 387.2 l 1,16,-1
 362.4 387.2 l 1,17,-1
 454.4 87.2002 l 1,18,-1
 528 336 l 2,19,20
 529.6 341.6 529.6 341.6 526.4 346.8 c 128,-1,21
 523.2 352 523.2 352 516.8 352 c 2,22,-1
 480.8 353.6 l 1,23,-1
 480.8 384.8 l 1,24,-1
 620 384.8 l 1,25,-1
 620 353.6 l 1,26,-1
 577.6 349.6 l 1,0,-1
EndSplineSet
EndChar

StartChar: x
Encoding: 88 120 91
Width: 407
VWidth: 800
Flags: W
LayerCount: 2
Back
Fore
SplineSet
228 0 m 1,0,-1
 228 31.2002 l 1,1,-1
 254.4 33.5996 l 2,2,3
 259.2 33.5996 259.2 33.5996 261.2 38 c 128,-1,4
 263.2 42.4004 263.2 42.4004 261.6 46.4004 c 1,5,-1
 193.6 148 l 1,6,-1
 115.2 46.4004 l 2,7,8
 112.8 43.2002 112.8 43.2002 113.6 38.4004 c 128,-1,9
 114.4 33.5996 114.4 33.5996 119.2 33.5996 c 2,10,-1
 159.2 31.2002 l 1,11,-1
 159.2 0 l 1,12,-1
 7.2002 0 l 1,13,-1
 7.2002 31.2002 l 1,14,-1
 52.7998 36.7998 l 1,15,-1
 167.2 185.6 l 1,16,-1
 59.2002 346.4 l 1,17,-1
 12 352.8 l 1,18,-1
 12 384 l 1,19,-1
 187.2 384 l 1,20,-1
 187.2 352.8 l 1,21,-1
 160 349.6 l 2,22,23
 155.2 349.6 155.2 349.6 152.8 345.2 c 128,-1,24
 150.4 340.8 150.4 340.8 152 336.8 c 1,25,-1
 215.2 248 l 1,26,-1
 284 336.8 l 2,27,28
 286.4 340 286.4 340 285.2 344.8 c 128,-1,29
 284 349.6 284 349.6 279.2 349.6 c 2,30,-1
 245.6 352.8 l 1,31,-1
 245.6 384 l 1,32,-1
 388.8 384 l 1,33,-1
 388.8 352.8 l 1,34,-1
 346.4 346.4 l 1,35,-1
 239.2 210.4 l 1,36,-1
 356.8 37.5996 l 1,37,-1
 400 32 l 1,38,-1
 400 0.799805 l 1,39,-1
 228 0 l 1,0,-1
EndSplineSet
EndChar

StartChar: y
Encoding: 89 121 92
Width: 423
VWidth: 800
Flags: W
LayerCount: 2
Back
Fore
SplineSet
373.6 349.6 m 1,0,-1
 220.8 -24 l 2,1,2
 217.6 -33.5996 217.6 -33.5996 210.8 -50 c 128,-1,3
 204 -66.4004 204 -66.4004 194.8 -84.7998 c 128,-1,4
 185.6 -103.2 185.6 -103.2 174.4 -120.8 c 128,-1,5
 163.2 -138.4 163.2 -138.4 151.2 -150.4 c 0,6,7
 136.8 -164.8 136.8 -164.8 119.6 -172.8 c 128,-1,8
 102.4 -180.8 102.4 -180.8 82.4004 -180.8 c 0,9,10
 68.7998 -180.8 68.7998 -180.8 58 -177.2 c 128,-1,11
 47.2002 -173.6 47.2002 -173.6 40 -167.6 c 128,-1,12
 32.7998 -161.6 32.7998 -161.6 29.2002 -153.6 c 128,-1,13
 25.5996 -145.6 25.5996 -145.6 25.5996 -136.8 c 0,14,15
 25.5996 -123.2 25.5996 -123.2 31.5996 -112 c 128,-1,16
 37.5996 -100.8 37.5996 -100.8 51.2002 -89.5996 c 1,17,-1
 125.6 -123.2 l 1,18,19
 135.2 -113.6 135.2 -113.6 145.2 -98 c 128,-1,20
 155.2 -82.4004 155.2 -82.4004 164 -65.2002 c 128,-1,21
 172.8 -48 172.8 -48 180 -30.7998 c 128,-1,22
 187.2 -13.5996 187.2 -13.5996 191.2 -0.799805 c 1,23,-1
 56 348 l 1,24,-1
 12 352 l 1,25,-1
 12 383.2 l 1,26,-1
 188.8 383.2 l 1,27,-1
 188.8 352 l 1,28,-1
 151.2 350.4 l 2,29,30
 144.8 350.4 144.8 350.4 141.2 345.6 c 128,-1,31
 137.6 340.8 137.6 340.8 139.2 334.4 c 1,32,-1
 232 99.2002 l 1,33,-1
 326.4 334.4 l 2,34,35
 328.8 340 328.8 340 325.6 345.2 c 128,-1,36
 322.4 350.4 322.4 350.4 316 350.4 c 2,37,-1
 278.4 352 l 1,38,-1
 278.4 383.2 l 1,39,-1
 420.8 383.2 l 1,40,-1
 420.8 352 l 1,41,-1
 373.6 349.6 l 1,0,-1
EndSplineSet
EndChar

StartChar: z
Encoding: 90 122 93
Width: 368
VWidth: 800
Flags: W
LayerCount: 2
Back
Fore
SplineSet
27.2002 0 m 1,0,-1
 27.2002 42.4004 l 1,1,-1
 238.4 347.2 l 1,2,-1
 100 347.2 l 2,3,4
 94.4004 347.2 94.4004 347.2 90 341.6 c 128,-1,5
 85.5996 336 85.5996 336 84.7998 331.2 c 2,6,-1
 77.5996 272 l 1,7,-1
 36.7998 272 l 1,8,-1
 36.7998 385.6 l 1,9,-1
 332.8 385.6 l 1,10,-1
 332.8 352.8 l 1,11,-1
 114.4 38.4004 l 1,12,-1
 275.2 38.4004 l 2,13,14
 277.6 38.4004 277.6 38.4004 280.4 40 c 128,-1,15
 283.2 41.5996 283.2 41.5996 285.6 44 c 128,-1,16
 288 46.4004 288 46.4004 289.6 49.5996 c 128,-1,17
 291.2 52.7998 291.2 52.7998 291.2 55.2002 c 2,18,-1
 299.2 118.4 l 1,19,-1
 342.4 118.4 l 1,20,-1
 342.4 -1.59961 l 1,21,-1
 27.2002 0 l 1,0,-1
EndSplineSet
EndChar

StartChar: braceleft
Encoding: 91 123 94
Width: 389
VWidth: 800
Flags: W
LayerCount: 2
Back
Fore
SplineSet
334.4 -98.4004 m 1,0,1
 313.6 -98.4004 313.6 -98.4004 293.2 -97.2002 c 128,-1,2
 272.8 -96 272.8 -96 254.8 -92 c 128,-1,3
 236.8 -88 236.8 -88 222 -81.5996 c 128,-1,4
 207.2 -75.2002 207.2 -75.2002 197.6 -64.7998 c 0,5,6
 184 -51.2002 184 -51.2002 177.6 -34.7998 c 128,-1,7
 171.2 -18.4004 171.2 -18.4004 168.4 -0.400391 c 128,-1,8
 165.6 17.5996 165.6 17.5996 165.6 36 c 2,9,-1
 165.6 104 l 2,10,11
 165.6 120 165.6 120 164 135.6 c 128,-1,12
 162.4 151.2 162.4 151.2 158 165.2 c 128,-1,13
 153.6 179.2 153.6 179.2 144.8 188 c 0,14,15
 138.4 194.4 138.4 194.4 129.6 198.4 c 128,-1,16
 120.8 202.4 120.8 202.4 110 204.4 c 128,-1,17
 99.2002 206.4 99.2002 206.4 85.5996 206.8 c 128,-1,18
 72 207.2 72 207.2 55.2002 207.2 c 1,19,-1
 55.2002 242.4 l 1,20,21
 72 242.4 72 242.4 85.5996 242.8 c 128,-1,22
 99.2002 243.2 99.2002 243.2 110 245.2 c 128,-1,23
 120.8 247.2 120.8 247.2 129.6 251.2 c 128,-1,24
 138.4 255.2 138.4 255.2 144.8 261.6 c 0,25,26
 153.6 270.4 153.6 270.4 158 284.4 c 128,-1,27
 162.4 298.4 162.4 298.4 164 314 c 128,-1,28
 165.6 329.6 165.6 329.6 165.6 345.6 c 2,29,-1
 165.6 413.6 l 2,30,31
 165.6 432.8 165.6 432.8 168.4 450.8 c 128,-1,32
 171.2 468.8 171.2 468.8 177.6 485.2 c 128,-1,33
 184 501.6 184 501.6 197.6 515.2 c 0,34,35
 207.2 525.6 207.2 525.6 222 532 c 128,-1,36
 236.8 538.4 236.8 538.4 254.8 542.4 c 128,-1,37
 272.8 546.4 272.8 546.4 293.2 547.6 c 128,-1,38
 313.6 548.8 313.6 548.8 334.4 548.8 c 1,39,-1
 334.4 516 l 1,40,41
 329.6 516 329.6 516 319.2 515.6 c 128,-1,42
 308.8 515.2 308.8 515.2 296.8 513.2 c 128,-1,43
 284.8 511.2 284.8 511.2 273.2 506.4 c 128,-1,44
 261.6 501.6 261.6 501.6 254.4 493.6 c 0,45,46
 246.4 484.8 246.4 484.8 242.4 471.6 c 128,-1,47
 238.4 458.4 238.4 458.4 237.2 442.8 c 128,-1,48
 236 427.2 236 427.2 236 410.4 c 128,-1,49
 236 393.6 236 393.6 236 377.6 c 0,50,51
 236 364 236 364 235.6 349.2 c 128,-1,52
 235.2 334.4 235.2 334.4 233.2 320 c 128,-1,53
 231.2 305.6 231.2 305.6 226.8 292.8 c 128,-1,54
 222.4 280 222.4 280 214.4 270.4 c 0,55,56
 198.4 250.4 198.4 250.4 176.4 240.8 c 128,-1,57
 154.4 231.2 154.4 231.2 130.4 226.4 c 1,58,59
 154.4 221.6 154.4 221.6 176.4 211.6 c 128,-1,60
 198.4 201.6 198.4 201.6 214.4 181.6 c 0,61,62
 222.4 172 222.4 172 226.8 159.2 c 128,-1,63
 231.2 146.4 231.2 146.4 233.2 132 c 128,-1,64
 235.2 117.6 235.2 117.6 235.6 102.8 c 128,-1,65
 236 88 236 88 236 74.4004 c 0,66,67
 236 58.4004 236 58.4004 236 41.5996 c 128,-1,68
 236 24.7998 236 24.7998 237.2 9.2002 c 128,-1,69
 238.4 -6.40039 238.4 -6.40039 242.4 -19.5996 c 128,-1,70
 246.4 -32.7998 246.4 -32.7998 254.4 -41.5996 c 0,71,72
 261.6 -49.5996 261.6 -49.5996 273.2 -54.4004 c 128,-1,73
 284.8 -59.2002 284.8 -59.2002 296.8 -61.2002 c 128,-1,74
 308.8 -63.2002 308.8 -63.2002 319.2 -63.5996 c 128,-1,75
 329.6 -64 329.6 -64 334.4 -64 c 1,76,-1
 334.4 -98.4004 l 1,0,1
EndSplineSet
EndChar

StartChar: bar
Encoding: 92 124 95
Width: 282
VWidth: 800
Flags: W
LayerCount: 2
Back
Fore
SplineSet
116.8 -205.6 m 1,0,-1
 116.8 636.8 l 1,1,-1
 164.8 636.8 l 1,2,-1
 164.8 -205.6 l 1,3,-1
 116.8 -205.6 l 1,0,-1
EndSplineSet
EndChar

StartChar: braceright
Encoding: 93 125 96
Width: 389
VWidth: 800
Flags: W
LayerCount: 2
Back
Fore
SplineSet
342.4 214.4 m 1,0,1
 308 214.4 308 214.4 286.4 210.8 c 128,-1,2
 264.8 207.2 264.8 207.2 250.4 193.6 c 0,3,4
 241.6 184.8 241.6 184.8 237.2 170.8 c 128,-1,5
 232.8 156.8 232.8 156.8 231.2 141.2 c 128,-1,6
 229.6 125.6 229.6 125.6 229.6 109.6 c 2,7,-1
 229.6 41.5996 l 2,8,9
 229.6 23.2002 229.6 23.2002 226.8 5.2002 c 128,-1,10
 224 -12.7998 224 -12.7998 217.2 -29.2002 c 128,-1,11
 210.4 -45.5996 210.4 -45.5996 197.6 -59.2002 c 0,12,13
 188 -69.5996 188 -69.5996 173.2 -76 c 128,-1,14
 158.4 -82.4004 158.4 -82.4004 140.4 -86.4004 c 128,-1,15
 122.4 -90.4004 122.4 -90.4004 102 -91.5996 c 128,-1,16
 81.5996 -92.7998 81.5996 -92.7998 60.7998 -92.7998 c 1,17,-1
 60.7998 -60 l 1,18,19
 65.5996 -60 65.5996 -60 76 -59.5996 c 128,-1,20
 86.4004 -59.2002 86.4004 -59.2002 98.4004 -57.2002 c 128,-1,21
 110.4 -55.2002 110.4 -55.2002 122 -50.4004 c 128,-1,22
 133.6 -45.5996 133.6 -45.5996 140.8 -37.5996 c 0,23,24
 148.8 -28.7998 148.8 -28.7998 152.4 -15.5996 c 128,-1,25
 156 -2.40039 156 -2.40039 157.2 13.2002 c 128,-1,26
 158.4 28.7998 158.4 28.7998 158.4 45.5996 c 128,-1,27
 158.4 62.4004 158.4 62.4004 158.4 78.4004 c 0,28,29
 158.4 92 158.4 92 158.8 106.8 c 128,-1,30
 159.2 121.6 159.2 121.6 161.2 136 c 128,-1,31
 163.2 150.4 163.2 150.4 167.6 163.2 c 128,-1,32
 172 176 172 176 180 185.6 c 0,33,34
 195.2 205.6 195.2 205.6 217.2 215.6 c 128,-1,35
 239.2 225.6 239.2 225.6 263.2 230.4 c 1,36,37
 251.2 232.8 251.2 232.8 239.6 236 c 128,-1,38
 228 239.2 228 239.2 217.2 244.4 c 128,-1,39
 206.4 249.6 206.4 249.6 197.2 256.8 c 128,-1,40
 188 264 188 264 180.8 273.6 c 0,41,42
 172.8 283.2 172.8 283.2 168.4 296 c 128,-1,43
 164 308.8 164 308.8 162 323.2 c 128,-1,44
 160 337.6 160 337.6 159.6 352.4 c 128,-1,45
 159.2 367.2 159.2 367.2 159.2 380.8 c 0,46,47
 159.2 396.8 159.2 396.8 159.2 413.6 c 128,-1,48
 159.2 430.4 159.2 430.4 158 446 c 128,-1,49
 156.8 461.6 156.8 461.6 153.2 474.8 c 128,-1,50
 149.6 488 149.6 488 141.6 496.8 c 0,51,52
 134.4 504.8 134.4 504.8 122.8 509.6 c 128,-1,53
 111.2 514.4 111.2 514.4 99.2002 516.4 c 128,-1,54
 87.2002 518.4 87.2002 518.4 76.7998 518.8 c 128,-1,55
 66.4004 519.2 66.4004 519.2 61.5996 519.2 c 1,56,-1
 61.5996 552 l 1,57,58
 82.4004 552 82.4004 552 102.8 550.8 c 128,-1,59
 123.2 549.6 123.2 549.6 141.2 545.6 c 128,-1,60
 159.2 541.6 159.2 541.6 174 535.2 c 128,-1,61
 188.8 528.8 188.8 528.8 198.4 518.4 c 0,62,63
 211.2 504.8 211.2 504.8 218 488.4 c 128,-1,64
 224.8 472 224.8 472 227.6 454 c 128,-1,65
 230.4 436 230.4 436 230.4 416.8 c 2,66,-1
 230.4 348.8 l 2,67,68
 230.4 332.8 230.4 332.8 232 317.2 c 128,-1,69
 233.6 301.6 233.6 301.6 238 287.6 c 128,-1,70
 242.4 273.6 242.4 273.6 251.2 264.8 c 0,71,72
 265.6 251.2 265.6 251.2 287.2 247.6 c 128,-1,73
 308.8 244 308.8 244 343.2 244 c 1,74,-1
 342.4 214.4 l 1,0,1
EndSplineSet
EndChar

StartChar: asciitilde
Encoding: 94 126 97
Width: 666
VWidth: 800
Flags: W
LayerCount: 2
Back
Fore
SplineSet
597.6 244.8 m 1,0,1
 575.2 228.8 575.2 228.8 555.6 218.4 c 128,-1,2
 536 208 536 208 518 201.6 c 128,-1,3
 500 195.2 500 195.2 483.2 192.8 c 128,-1,4
 466.4 190.4 466.4 190.4 449.6 190.4 c 0,5,6
 421.6 190.4 421.6 190.4 393.6 198.4 c 128,-1,7
 365.6 206.4 365.6 206.4 337.2 216.4 c 128,-1,8
 308.8 226.4 308.8 226.4 279.6 234.4 c 128,-1,9
 250.4 242.4 250.4 242.4 220 242.4 c 256,10,11
 189.6 242.4 189.6 242.4 151.6 226 c 128,-1,12
 113.6 209.6 113.6 209.6 73.5996 180.8 c 1,13,-1
 73.5996 232 l 1,14,15
 116 262.4 116 262.4 154 275.2 c 128,-1,16
 192 288 192 288 224 288 c 0,17,18
 252.8 288 252.8 288 282 280 c 128,-1,19
 311.2 272 311.2 272 340 262.4 c 128,-1,20
 368.8 252.8 368.8 252.8 396.4 244.8 c 128,-1,21
 424 236.8 424 236.8 449.6 236.8 c 0,22,23
 477.6 236.8 477.6 236.8 514 250 c 128,-1,24
 550.4 263.2 550.4 263.2 598.4 297.6 c 1,25,-1
 597.6 244.8 l 1,0,1
EndSplineSet
EndChar

StartChar: quoteleft
Encoding: 181 8216 98
Width: 276
Flags: W
LayerCount: 2
Back
Fore
SplineSet
186 702 m 1,0,1
 174 689 174 689 160 673 c 128,-1,2
 146 657 146 657 134 638 c 128,-1,3
 122 619 122 619 113.5 597.5 c 128,-1,4
 105 576 105 576 105 552 c 0,5,6
 105 548 105 548 105 543 c 128,-1,7
 105 538 105 538 105 535 c 1,8,-1
 167 535 l 1,9,10
 170 530 170 530 173 525 c 0,11,12
 175 520 175 520 177 513 c 128,-1,13
 179 506 179 506 179 498 c 0,14,15
 179 486 179 486 175 475 c 128,-1,16
 171 464 171 464 163.5 456 c 128,-1,17
 156 448 156 448 145.5 443.5 c 128,-1,18
 135 439 135 439 122 439 c 0,19,20
 84 439 84 439 62 463 c 128,-1,21
 40 487 40 487 40 530 c 0,22,23
 40 566 40 566 53 596 c 128,-1,24
 66 626 66 626 84 649.5 c 128,-1,25
 102 673 102 673 120 689 c 128,-1,26
 138 705 138 705 147 713 c 1,27,-1
 186 702 l 1,0,1
EndSplineSet
EndChar

StartChar: quoteright
Encoding: 182 8217 99
Width: 274
Flags: W
LayerCount: 2
Back
Fore
SplineSet
234 616 m 1,0,1
 234 580 234 580 221 549.5 c 128,-1,2
 208 519 208 519 190 496 c 128,-1,3
 172 473 172 473 154 457 c 128,-1,4
 136 441 136 441 127 433 c 1,5,-1
 90 440 l 1,6,7
 106 456 106 456 121 473.5 c 128,-1,8
 136 491 136 491 147 510 c 128,-1,9
 158 529 158 529 164.5 549 c 128,-1,10
 171 569 171 569 171 590 c 0,11,12
 171 593 171 593 171 598 c 128,-1,13
 171 603 171 603 171 606 c 1,14,-1
 109 606 l 1,15,16
 105 610 105 610 102 616 c 0,17,18
 100 621 100 621 98 628 c 128,-1,19
 96 635 96 635 96 643 c 0,20,21
 96 668 96 668 111.5 685.5 c 128,-1,22
 127 703 127 703 155 703 c 0,23,24
 192 703 192 703 214.5 678.5 c 128,-1,25
 237 654 237 654 234 616 c 1,0,1
EndSplineSet
EndChar

StartChar: quotedblleft
Encoding: 183 8220 100
Width: 480
Flags: W
LayerCount: 2
Back
Fore
SplineSet
186 702 m 1,0,1
 171 687 171 687 156.5 670.5 c 128,-1,2
 142 654 142 654 130.5 635 c 128,-1,3
 119 616 119 616 112 595.5 c 128,-1,4
 105 575 105 575 105 552 c 0,5,6
 105 547 105 547 105 542.5 c 128,-1,7
 105 538 105 538 105 535 c 1,8,-1
 167 535 l 1,9,10
 170 531 170 531 173 526 c 0,11,12
 175 521 175 521 177 514 c 128,-1,13
 179 507 179 507 179 498 c 0,14,15
 179 486 179 486 175 475 c 128,-1,16
 171 464 171 464 163.5 456 c 128,-1,17
 156 448 156 448 145.5 443.5 c 128,-1,18
 135 439 135 439 122 439 c 0,19,20
 84 439 84 439 62 463.5 c 128,-1,21
 40 488 40 488 40 530 c 0,22,23
 40 566 40 566 53 596.5 c 128,-1,24
 66 627 66 627 84 650 c 128,-1,25
 102 673 102 673 120 689 c 128,-1,26
 138 705 138 705 147 713 c 1,27,-1
 186 702 l 1,0,1
390 707 m 1,28,29
 380 695 380 695 366 679.5 c 128,-1,30
 352 664 352 664 339.5 645 c 128,-1,31
 327 626 327 626 318 604.5 c 128,-1,32
 309 583 309 583 309 558 c 0,33,34
 309 553 309 553 309 548 c 128,-1,35
 309 543 309 543 309 540 c 1,36,-1
 371 540 l 1,37,38
 374 535 374 535 377 530 c 0,39,40
 379 525 379 525 381 518.5 c 128,-1,41
 383 512 383 512 383 504 c 0,42,43
 383 492 383 492 379 481 c 128,-1,44
 375 470 375 470 367.5 462 c 128,-1,45
 360 454 360 454 349 449.5 c 128,-1,46
 338 445 338 445 325 445 c 0,47,48
 286 445 286 445 264.5 470.5 c 128,-1,49
 243 496 243 496 243 538 c 0,50,51
 243 574 243 574 256 604 c 128,-1,52
 269 634 269 634 287 657 c 128,-1,53
 305 680 305 680 323 696 c 128,-1,54
 341 712 341 712 350 720 c 1,55,-1
 390 707 l 1,28,29
EndSplineSet
EndChar

StartChar: quotedblright
Encoding: 184 8221 101
Width: 482
Flags: W
LayerCount: 2
Back
Fore
SplineSet
234 615 m 1,0,1
 234 579 234 579 221 549 c 128,-1,2
 208 519 208 519 190 496 c 128,-1,3
 172 473 172 473 154 457 c 128,-1,4
 136 441 136 441 127 433 c 1,5,-1
 90 440 l 1,6,7
 100 452 100 452 114 467.5 c 128,-1,8
 128 483 128 483 140.5 501.5 c 128,-1,9
 153 520 153 520 162 541.5 c 128,-1,10
 171 563 171 563 171 587 c 0,11,12
 171 592 171 592 171 597 c 128,-1,13
 171 602 171 602 171 605 c 1,14,-1
 109 605 l 1,15,16
 105 610 105 610 102 616 c 0,17,18
 100 621 100 621 98 628 c 128,-1,19
 96 635 96 635 96 643 c 0,20,21
 96 655 96 655 100 666 c 128,-1,22
 104 677 104 677 112 685 c 128,-1,23
 120 693 120 693 131 697.5 c 128,-1,24
 142 702 142 702 155 702 c 0,25,26
 194 702 194 702 215 677 c 128,-1,27
 236 652 236 652 234 615 c 1,0,1
442 611 m 1,28,29
 442 575 442 575 429 544.5 c 128,-1,30
 416 514 416 514 398 491 c 128,-1,31
 380 468 380 468 362 452 c 128,-1,32
 344 436 344 436 335 428 c 1,33,-1
 298 435 l 1,34,35
 313 450 313 450 327.5 466.5 c 128,-1,36
 342 483 342 483 353.5 501.5 c 128,-1,37
 365 520 365 520 372.5 540.5 c 128,-1,38
 380 561 380 561 380 584 c 0,39,40
 380 589 380 589 379.5 593 c 128,-1,41
 379 597 379 597 379 600 c 1,42,-1
 317 600 l 1,43,44
 313 604 313 604 310 610 c 0,45,46
 308 615 308 615 306 622 c 128,-1,47
 304 629 304 629 304 638 c 0,48,49
 304 663 304 663 320 680 c 128,-1,50
 336 697 336 697 363 697 c 0,51,52
 401 697 401 697 423 672 c 128,-1,53
 445 647 445 647 442 611 c 1,28,29
EndSplineSet
EndChar

StartChar: u0C01
Encoding: 97 3073 103
Width: 390
Flags: W
LayerCount: 2
Back
Fore
SplineSet
330 190 m 1,0,1
 330 128 330 128 290 71 c 0,2,3
 240 1 240 1 159 1 c 0,4,5
 82 1 82 1 39 66 c 0,6,7
 2 123 2 123 2 208 c 0,8,9
 2 333 2 333 73 407 c 0,10,11
 130 467 130 467 194 467 c 0,12,13
 219 467 219 467 228 462.5 c 128,-1,14
 237 458 237 458 237 447 c 0,15,16
 237 433 237 433 225.5 427 c 128,-1,17
 214 421 214 421 199 421 c 0,18,19
 150 421 150 421 103 389 c 0,20,21
 39 346 39 346 39 271 c 0,22,23
 39 190 39 190 77.5 137.5 c 128,-1,24
 116 85 116 85 178 85 c 0,25,26
 242 85 242 85 281 125 c 1,27,28
 306 157 306 157 330 190 c 1,0,1
EndSplineSet
EndChar

StartChar: u0C03
Encoding: 99 3075 105
Width: 242
Flags: W
LayerCount: 2
Back
Fore
SplineSet
182 327 m 1,0,1
 182 291 182 291 159 266.5 c 128,-1,2
 136 242 136 242 99 242 c 0,3,4
 60 242 60 242 37 265 c 128,-1,5
 14 288 14 288 14 325 c 0,6,7
 14 341 14 341 20 357 c 0,8,9
 40 406 40 406 94 406 c 0,10,11
 134 406 134 406 157 384.5 c 128,-1,12
 180 363 180 363 182 327 c 1,0,1
180 83 m 0,13,14
 180 47 180 47 157 22.5 c 128,-1,15
 134 -2 134 -2 97 -2 c 0,16,17
 58 -2 58 -2 35 21 c 128,-1,18
 12 44 12 44 12 81 c 256,19,20
 12 118 12 118 35.5 140 c 128,-1,21
 59 162 59 162 93 162 c 0,22,23
 133 162 133 162 156 140.5 c 128,-1,24
 179 119 179 119 180 83 c 0,13,14
125 319 m 1,25,26
 125 345 125 345 110.5 356.5 c 128,-1,27
 96 368 96 368 75 368 c 0,28,29
 59 368 59 368 44.5 355 c 128,-1,30
 30 342 30 342 30 319 c 0,31,32
 30 294 30 294 47.5 281.5 c 128,-1,33
 65 269 65 269 80 269 c 0,34,35
 101 269 101 269 113.5 284 c 128,-1,36
 126 299 126 299 125 319 c 1,25,26
126 77 m 1,37,38
 126 103 126 103 111.5 114.5 c 128,-1,39
 97 126 97 126 76 126 c 0,40,41
 60 126 60 126 45.5 113 c 128,-1,42
 31 100 31 100 31 77 c 0,43,44
 31 52 31 52 48.5 39.5 c 128,-1,45
 66 27 66 27 81 27 c 0,46,47
 102 27 102 27 114.5 42 c 128,-1,48
 127 57 127 57 126 77 c 1,37,38
EndSplineSet
EndChar

StartChar: u0C05
Encoding: 100 3077 106
Width: 666
Flags: W
LayerCount: 2
Back
Fore
SplineSet
586 260 m 1,0,1
 586 151 586 151 496 73 c 1,2,3
 411 1 411 1 305 1 c 0,4,5
 189 1 189 1 104 61 c 0,6,7
 2 133 2 133 2 259 c 0,8,9
 2 340 2 340 46 404 c 128,-1,10
 90 468 90 468 164 468 c 0,11,12
 200 468 200 468 226 449 c 0,13,14
 259 424 259 424 259 382 c 0,15,16
 259 346 259 346 240 320 c 0,17,18
 215 287 215 287 169 287 c 0,19,20
 119 287 119 287 98 319 c 0,21,22
 83 342 83 342 83 384 c 0,23,24
 83 407 83 407 84 416 c 1,25,26
 34 345 34 345 34 301 c 0,27,28
 34 205 34 205 109.5 145 c 128,-1,29
 185 85 185 85 304 85 c 0,30,31
 396 85 396 85 475 147 c 128,-1,32
 554 209 554 209 554 298 c 0,33,34
 554 337 554 337 536 367 c 0,35,36
 514 406 514 406 477 406 c 0,37,38
 455 406 455 406 438.5 386.5 c 128,-1,39
 422 367 422 367 422 341 c 0,40,41
 422 285 422 285 453.5 263.5 c 128,-1,42
 485 242 485 242 485 234 c 1,43,-1
 481 229 l 1,44,-1
 246 229 l 1,45,-1
 221 229 l 2,46,47
 198 229 198 229 198 238 c 0,48,49
 198 252 198 252 221 252 c 1,50,51
 236 251 236 251 243 251 c 2,52,-1
 413 251 l 1,53,54
 380 283 380 283 365.5 313 c 128,-1,55
 351 343 351 343 351 369 c 0,56,57
 351 416 351 416 378 441.5 c 128,-1,58
 405 467 405 467 444 467 c 0,59,60
 512 467 512 467 552 402 c 0,61,62
 588 344 588 344 586 260 c 1,0,1
211 387 m 0,63,64
 211 408 211 408 191.5 424.5 c 128,-1,65
 172 441 172 441 151 441 c 0,66,67
 144 441 144 441 140 440 c 1,68,69
 125 432 125 432 115.5 417.5 c 128,-1,70
 106 403 106 403 106 377 c 0,71,72
 106 347 106 347 123.5 333 c 128,-1,73
 141 319 141 319 159 319 c 0,74,75
 182 319 182 319 196.5 341 c 128,-1,76
 211 363 211 363 211 387 c 0,63,64
EndSplineSet
EndChar

StartChar: u0C06
Encoding: 101 3078 107
Width: 679
Flags: W
LayerCount: 2
Back
Fore
SplineSet
224 372 m 0,0,1
 224 408 224 408 210 423 c 128,-1,2
 196 438 196 438 174 438 c 0,3,4
 148 438 148 438 135 418 c 128,-1,5
 122 398 122 398 122 372 c 0,6,7
 122 350 122 350 132 330.5 c 128,-1,8
 142 311 142 311 170 311 c 0,9,10
 199 311 199 311 211.5 327.5 c 128,-1,11
 224 344 224 344 224 372 c 0,0,1
529 284 m 1,12,13
 554 316 554 316 554 365 c 0,14,15
 554 395 554 395 537.5 413 c 128,-1,16
 521 431 521 431 498 431 c 0,17,18
 473 431 473 431 457 412.5 c 128,-1,19
 441 394 441 394 441 364 c 0,20,21
 441 321 441 321 469 305 c 0,22,23
 483 297 483 297 529 284 c 1,12,13
497 258 m 1,24,25
 440 270 440 270 415 286 c 0,26,27
 373 314 373 314 373 368 c 0,28,29
 373 415 373 415 405 441.5 c 128,-1,30
 437 468 437 468 481 468 c 256,31,32
 525 468 525 468 551.5 440.5 c 128,-1,33
 578 413 578 413 578 364 c 0,34,35
 578 338 578 338 571 316 c 128,-1,36
 564 294 564 294 553 279 c 1,37,38
 576 271 576 271 587.5 255 c 128,-1,39
 599 239 599 239 599 206 c 0,40,41
 599 100 599 100 514 49 c 0,42,43
 440 5 440 5 310 5 c 0,44,45
 131 5 131 5 53 100 c 0,46,47
 0 164 0 164 0 260 c 0,48,49
 0 331 0 331 51 401.5 c 128,-1,50
 102 472 102 472 172 472 c 0,51,52
 214 472 214 472 242 453 c 0,53,54
 279 428 279 428 279 377 c 0,55,56
 279 330 279 330 254.5 307 c 128,-1,57
 230 284 230 284 191 284 c 0,58,59
 142 284 142 284 120.5 304 c 128,-1,60
 99 324 99 324 99 354 c 0,61,62
 99 377 99 377 100 387.5 c 128,-1,63
 101 398 101 398 110 430 c 1,64,65
 74 398 74 398 53 359.5 c 128,-1,66
 32 321 32 321 32 293 c 0,67,68
 32 197 32 197 121 140 c 0,69,70
 202 89 202 89 307 89 c 0,71,72
 378 89 378 89 462 126 c 0,73,74
 561 170 561 170 561 226 c 0,75,76
 561 242 561 242 524 251 c 1,77,78
 499 232 499 232 467 224.5 c 128,-1,79
 435 217 435 217 403 217 c 2,80,-1
 216 217 l 1,81,82
 197 216 197 216 189 216 c 0,83,84
 168 216 168 216 168 227 c 0,85,86
 168 240 168 240 190 240 c 1,87,88
 206 239 206 239 213 239 c 2,89,-1
 403 239 l 2,90,91
 457 239 457 239 497 258 c 1,24,25
EndSplineSet
EndChar

StartChar: u0C07
Encoding: 102 3079 108
Width: 582
Flags: W
LayerCount: 2
Back
Fore
SplineSet
401 133 m 1,0,1
 362 179 362 179 297 204 c 0,2,3
 246 223 246 223 207 223 c 0,4,5
 161 223 161 223 127 205.5 c 128,-1,6
 93 188 93 188 93 158 c 0,7,8
 93 119 93 119 123.5 102 c 128,-1,9
 154 85 154 85 210 85 c 0,10,11
 268 85 268 85 314.5 96 c 128,-1,12
 361 107 361 107 401 133 c 1,0,1
422 148 m 1,13,14
 451 173 451 173 465.5 205 c 128,-1,15
 480 237 480 237 480 283 c 0,16,17
 480 330 480 330 445 354.5 c 128,-1,18
 410 379 410 379 366 379 c 0,19,20
 320 379 320 379 290 354 c 0,21,22
 268 336 268 336 247 294 c 1,23,24
 222 341 222 341 210 353 c 0,25,26
 184 378 184 378 134 378 c 0,27,28
 94 378 94 378 69 369 c 0,29,30
 23 351 23 351 8 301 c 1,31,-1
 4 344 l 1,32,33
 4 393 4 393 29 426 c 0,34,35
 59 466 59 466 121 466 c 0,36,37
 167 466 167 466 196 441 c 0,38,39
 200 437 200 437 247 380 c 1,40,41
 282 431 282 431 294 440 c 0,42,43
 324 465 324 465 381 465 c 0,44,45
 437 465 437 465 469.5 419 c 128,-1,46
 502 373 502 373 502 301 c 0,47,48
 502 239 502 239 487.5 195 c 128,-1,49
 473 151 473 151 448 119 c 1,50,51
 473 91 473 91 487.5 63.5 c 128,-1,52
 502 36 502 36 502 1 c 0,53,54
 502 -15 502 -15 494 -22 c 128,-1,55
 486 -29 486 -29 477 -29 c 0,56,57
 451 -29 451 -29 446 8 c 0,58,59
 437 73 437 73 428 95 c 1,60,61
 375 46 375 46 323.5 22.5 c 128,-1,62
 272 -1 272 -1 200 -1 c 0,63,64
 151 -1 151 -1 109 21 c 0,65,66
 45 56 45 56 45 124 c 0,67,68
 45 182 45 182 93 211 c 128,-1,69
 141 240 141 240 216 240 c 0,70,71
 278 240 278 240 330.5 215.5 c 128,-1,72
 383 191 383 191 422 148 c 1,13,14
EndSplineSet
EndChar

StartChar: u0C08
Encoding: 103 3080 109
Width: 841
Flags: W
LayerCount: 2
Back
Fore
SplineSet
761 218 m 1,0,1
 761 182 761 182 739 157.5 c 128,-1,2
 717 133 717 133 675 133 c 0,3,4
 646 133 646 133 625 154 c 128,-1,5
 604 175 604 175 604 204 c 0,6,7
 604 222 604 222 615 243 c 0,8,9
 620 252 620 252 636 274 c 1,10,-1
 523 274 l 1,11,-1
 527 227 l 1,12,13
 527 122 527 122 465.5 60.5 c 128,-1,14
 404 -1 404 -1 306 -1 c 0,15,16
 199 -1 199 -1 141 67 c 0,17,18
 88 128 88 128 88 230 c 1,19,-1
 92 273 l 1,20,-1
 32 273 l 2,21,22
 17 273 17 273 9.5 275 c 128,-1,23
 2 277 2 277 2 286 c 0,24,25
 2 301 2 301 32 301 c 2,26,-1
 97 301 l 1,27,28
 130 413 130 413 244 453 c 1,29,30
 204 475 204 475 190 487 c 0,31,32
 169 506 169 506 169 527 c 256,33,34
 169 548 169 548 185 560.5 c 128,-1,35
 201 573 201 573 209 573 c 0,36,37
 236 573 236 573 271 513 c 0,38,39
 294 473 294 473 303 462 c 1,40,41
 312 467 312 467 447 613 c 0,42,43
 507 677 507 677 514 677 c 0,44,45
 528 677 528 677 543 664.5 c 128,-1,46
 558 652 558 652 558 637 c 0,47,48
 558 623 558 623 498 584 c 0,49,50
 459 559 459 559 426 529 c 0,51,52
 410 515 410 515 399 507 c 0,53,54
 366 482 366 482 333 460 c 1,55,56
 472 430 472 430 512 302 c 1,57,-1
 664 302 l 2,58,59
 680 302 680 302 698 321.5 c 128,-1,60
 716 341 716 341 716 357 c 0,61,62
 716 376 716 376 701.5 389 c 128,-1,63
 687 402 687 402 666 402 c 0,64,65
 641 402 641 402 626.5 379 c 128,-1,66
 612 356 612 356 604 356 c 256,67,68
 596 356 596 356 596 378 c 0,69,70
 596 411 596 411 619.5 429.5 c 128,-1,71
 643 448 643 448 672 448 c 0,72,73
 698 448 698 448 719 435 c 0,74,75
 748 416 748 416 748 381 c 0,76,77
 748 345 748 345 729 320 c 0,78,79
 724 312 724 312 709 303 c 1,80,81
 725 287 725 287 732 276 c 0,82,83
 755 243 755 243 761 218 c 1,0,1
713 207 m 0,84,85
 713 233 713 233 700.5 249.5 c 128,-1,86
 688 266 688 266 670 266 c 0,87,88
 655 266 655 266 639 242 c 128,-1,89
 623 218 623 218 623 204 c 0,90,91
 623 185 623 185 637 172.5 c 128,-1,92
 651 160 651 160 670 160 c 0,93,94
 688 160 688 160 697 168 c 0,95,96
 712 180 712 180 713 207 c 0,84,85
470 303 m 1,97,98
 456 366 456 366 408 403 c 128,-1,99
 360 440 360 440 300 440 c 0,100,101
 247 440 247 440 198 405 c 0,102,103
 142 365 142 365 127 304 c 1,104,-1
 470 303 l 1,97,98
474 275 m 1,105,-1
 126 275 l 1,106,107
 126 194 126 194 163 144 c 0,108,109
 207 84 207 84 299 84 c 0,110,111
 384 84 384 84 430 141 c 0,112,113
 472 192 472 192 474 275 c 1,105,-1
EndSplineSet
EndChar

StartChar: u0C09
Encoding: 104 3081 110
Width: 705
Flags: W
LayerCount: 2
Back
Fore
SplineSet
625 348 m 1,0,1
 625 333 625 333 609 333 c 2,2,-1
 128 333 l 1,3,4
 113 315 113 315 100 290 c 128,-1,5
 87 265 87 265 87 243 c 0,6,7
 87 154 87 154 113.5 120 c 128,-1,8
 140 86 140 86 189 86 c 0,9,10
 242 86 242 86 278 149 c 0,11,12
 280 154 280 154 313 235 c 1,13,14
 331 192 331 192 349 149 c 1,15,16
 386 86 386 86 450 86 c 0,17,18
 500 86 500 86 532 121 c 128,-1,19
 564 156 564 156 564 205 c 1,20,21
 536 175 536 175 511 163 c 0,22,23
 495 155 495 155 477 155 c 0,24,25
 451 155 451 155 427.5 176 c 128,-1,26
 404 197 404 197 404 230 c 0,27,28
 404 267 404 267 427 285.5 c 128,-1,29
 450 304 450 304 487 304 c 0,30,31
 530 304 530 304 559 270.5 c 128,-1,32
 588 237 588 237 588 177 c 0,33,34
 588 100 588 100 545 51 c 128,-1,35
 502 2 502 2 433 2 c 0,36,37
 376 2 376 2 341 31 c 1,38,39
 323 49 323 49 307 68 c 1,40,41
 282 45 282 45 257 22 c 1,42,43
 224 3 224 3 180 3 c 0,44,45
 119 3 119 3 78.5 54 c 128,-1,46
 38 105 38 105 38 182 c 0,47,48
 38 236 38 236 57 280 c 0,49,50
 65 301 65 301 90 334 c 1,51,-1
 23 334 l 2,52,53
 2 334 2 334 2 349 c 256,54,55
 2 364 2 364 18 364 c 2,56,-1
 104 364 l 1,57,58
 202 467 202 467 302 467 c 1,59,60
 298 488 298 488 288.5 531 c 128,-1,61
 279 574 279 574 279 578 c 0,62,63
 279 613 279 613 315 613 c 0,64,65
 336 613 336 613 343.5 603.5 c 128,-1,66
 351 594 351 594 351 580 c 0,67,68
 351 565 351 565 342 531 c 128,-1,69
 333 497 333 497 325 467 c 1,70,71
 369 462 369 462 409.5 446 c 128,-1,72
 450 430 450 430 466 411 c 1,73,74
 464 404 464 404 456 404 c 1,75,76
 430 420 430 420 390.5 432.5 c 128,-1,77
 351 445 351 445 307 445 c 0,78,79
 270 445 270 445 227 425.5 c 128,-1,80
 184 406 184 406 144 366 c 1,81,-1
 610 366 l 1,82,83
 629 364 629 364 625 348 c 1,0,1
558 233 m 1,84,85
 558 242 558 242 538.5 257 c 128,-1,86
 519 272 519 272 501 272 c 0,87,88
 447 272 447 272 447 226 c 0,89,90
 447 208 447 208 460 196.5 c 128,-1,91
 473 185 473 185 494 185 c 0,92,93
 522 185 522 185 548 217 c 0,94,95
 552 222 552 222 558 233 c 1,84,85
EndSplineSet
EndChar

StartChar: u0C0A
Encoding: 105 3082 111
Width: 901
Flags: W
LayerCount: 2
Back
Fore
SplineSet
821 277 m 1,0,1
 821 241 821 241 799 216 c 128,-1,2
 777 191 777 191 735 191 c 0,3,4
 706 191 706 191 685 212 c 128,-1,5
 664 233 664 233 664 262 c 0,6,7
 664 280 664 280 675 301 c 0,8,9
 679 309 679 309 697 334 c 1,10,-1
 128 334 l 1,11,12
 112 316 112 316 99.5 290.5 c 128,-1,13
 87 265 87 265 87 243 c 0,14,15
 87 175 87 175 105 138 c 0,16,17
 130 87 130 87 187 87 c 0,18,19
 237 87 237 87 271 147 c 1,20,21
 303 218 303 218 311 236 c 1,22,23
 330 192 330 192 349 149 c 1,24,25
 386 88 386 88 446 88 c 0,26,27
 496 88 496 88 528 123 c 128,-1,28
 560 158 560 158 560 207 c 1,29,30
 542 186 542 186 517.5 171.5 c 128,-1,31
 493 157 493 157 472 157 c 0,32,33
 446 157 446 157 425 175 c 0,34,35
 400 197 400 197 400 230 c 0,36,37
 400 267 400 267 421.5 285.5 c 128,-1,38
 443 304 443 304 479 304 c 0,39,40
 521 304 521 304 549 276 c 1,41,42
 584 243 584 243 584 178 c 0,43,44
 584 101 584 101 541 52 c 128,-1,45
 498 3 498 3 428 3 c 0,46,47
 371 3 371 3 338 32 c 1,48,49
 320 50 320 50 304 69 c 1,50,51
 279 46 279 46 254 23 c 1,52,53
 221 4 221 4 177 4 c 0,54,55
 116 4 116 4 75.5 55 c 128,-1,56
 35 106 35 106 35 183 c 0,57,58
 35 239 35 239 54 282 c 0,59,60
 61 296 61 296 88 338 c 1,61,-1
 21 338 l 2,62,63
 0 338 0 338 0 352 c 0,64,65
 0 370 0 370 15 368 c 1,66,-1
 101 368 l 1,67,68
 138 410 138 410 173 431.5 c 128,-1,69
 208 453 208 453 255 465 c 1,70,71
 244 498 244 498 239 517 c 0,72,73
 228 554 228 554 227 562 c 0,74,75
 225 574 225 574 233 583 c 128,-1,76
 241 592 241 592 255 592 c 0,77,78
 273 593 273 593 280.5 586 c 128,-1,79
 288 579 288 579 289 568 c 1,80,81
 289 553 289 553 287 535 c 0,82,83
 278 474 278 474 278 465 c 1,84,-1
 311 467 l 1,85,-1
 348 463 l 1,86,87
 348 477 348 477 343.5 516.5 c 128,-1,88
 339 556 339 556 339 565 c 0,89,90
 341 590 341 590 373 590 c 1,91,92
 387 589 387 589 394.5 583.5 c 128,-1,93
 402 578 402 578 402 562 c 1,94,95
 400 548 400 548 387.5 510.5 c 128,-1,96
 375 473 375 473 371 459 c 1,97,98
 406 448 406 448 429 436.5 c 128,-1,99
 452 425 452 425 464 411 c 1,100,101
 462 404 462 404 454 404 c 1,102,103
 427 420 427 420 388 432.5 c 128,-1,104
 349 445 349 445 305 445 c 0,105,106
 268 445 268 445 225.5 425.5 c 128,-1,107
 183 406 183 406 143 366 c 1,108,-1
 732 366 l 2,109,110
 755 366 755 366 770 382.5 c 128,-1,111
 785 399 785 399 785 421 c 0,112,113
 785 442 785 442 770 454.5 c 128,-1,114
 755 467 755 467 734 467 c 0,115,116
 709 467 709 467 694.5 444 c 128,-1,117
 680 421 680 421 672 421 c 256,118,119
 664 421 664 421 664 442 c 0,120,121
 664 475 664 475 687.5 494.5 c 128,-1,122
 711 514 711 514 736 514 c 0,123,124
 771 514 771 514 794 497.5 c 128,-1,125
 817 481 817 481 817 445 c 0,126,127
 817 408 817 408 798 385 c 0,128,129
 793 378 793 378 778 369 c 1,130,131
 794 353 794 353 801 342 c 0,132,133
 824 309 824 309 821 277 c 1,0,1
782 272 m 0,134,135
 782 297 782 297 769.5 315 c 128,-1,136
 757 333 757 333 739 333 c 0,137,138
 724 333 724 333 708 308.5 c 128,-1,139
 692 284 692 284 692 269 c 0,140,141
 692 251 692 251 706 238.5 c 128,-1,142
 720 226 720 226 739 226 c 0,143,144
 755 226 755 226 768 236.5 c 128,-1,145
 781 247 781 247 782 272 c 0,134,135
553 236 m 1,146,147
 553 245 553 245 534.5 261 c 128,-1,148
 516 277 516 277 497 277 c 0,149,150
 443 277 443 277 443 230 c 0,151,152
 443 211 443 211 457 200 c 128,-1,153
 471 189 471 189 490 189 c 0,154,155
 517 189 517 189 543 221 c 0,156,157
 547 226 547 226 553 236 c 1,146,147
EndSplineSet
EndChar

StartChar: u0C0C
Encoding: 107 3084 113
Width: 712
Flags: W
LayerCount: 2
Back
Fore
SplineSet
632 221 m 1,0,1
 632 76 632 76 543.5 -32 c 128,-1,2
 455 -140 455 -140 327 -140 c 0,3,4
 257 -140 257 -140 207 -108 c 0,5,6
 140 -66 140 -66 140 16 c 0,7,8
 140 93 140 93 233 133 c 0,9,10
 240 135 240 135 361 168 c 0,11,12
 403 180 403 180 422.5 214.5 c 128,-1,13
 442 249 442 249 442 286 c 0,14,15
 442 330 442 330 416.5 357 c 128,-1,16
 391 384 391 384 345 384 c 256,17,18
 299 384 299 384 275.5 357.5 c 128,-1,19
 252 331 252 331 247 287 c 0,20,21
 246 278 246 278 247 267.5 c 128,-1,22
 248 257 248 257 249 249 c 0,23,24
 249 242 249 242 245.5 240 c 128,-1,25
 242 238 242 238 234 238 c 0,26,27
 216 238 216 238 208 312 c 128,-1,28
 200 386 200 386 122 386 c 0,29,30
 75 386 75 386 52 361 c 0,31,32
 34 342 34 342 34 310 c 0,33,34
 34 301 34 301 45 273 c 128,-1,35
 56 245 56 245 56 241 c 0,36,37
 56 230 56 230 51 230 c 0,38,39
 35 230 35 230 20.5 267.5 c 128,-1,40
 6 305 6 305 6 333 c 0,41,42
 6 391 6 391 41 428.5 c 128,-1,43
 76 466 76 466 122 466 c 0,44,45
 165 466 165 466 200 432 c 1,46,47
 219 409 219 409 238 386 c 1,48,49
 261 415 261 415 279 433 c 0,50,51
 315 467 315 467 354 467 c 256,52,53
 393 467 393 467 430 430 c 1,54,55
 477 381 477 381 477 300 c 0,56,57
 477 237 477 237 445 194.5 c 128,-1,58
 413 152 413 152 364 140 c 0,59,60
 253 111 253 111 211 85 c 0,61,62
 181 66 181 66 181 40 c 0,63,64
 181 7 181 7 225 -11 c 128,-1,65
 269 -29 269 -29 348 -29 c 0,66,67
 475 -29 475 -29 539 34 c 128,-1,68
 603 97 603 97 603 208 c 2,69,-1
 603 233 l 2,70,71
 603 275 603 275 596 301 c 0,72,73
 585 344 585 344 550 390 c 1,74,75
 531 405 531 405 518 419.5 c 128,-1,76
 505 434 505 434 505 445 c 0,77,78
 505 460 505 460 524 460 c 0,79,80
 561 460 561 460 601 375 c 0,81,82
 633 308 633 308 632 221 c 1,0,1
EndSplineSet
EndChar

StartChar: u0C0E
Encoding: 108 3086 114
Width: 621
Flags: W
LayerCount: 2
Back
Fore
SplineSet
541 315 m 1,0,1
 541 180 541 180 508 103 c 0,2,3
 464 1 464 1 362 1 c 0,4,5
 315 1 315 1 287 19 c 128,-1,6
 259 37 259 37 236 76 c 1,7,8
 197 33 197 33 190 28 c 0,9,10
 158 2 158 2 118 2 c 0,11,12
 67 2 67 2 36 37.5 c 128,-1,13
 5 73 5 73 5 129 c 0,14,15
 5 183 5 183 28 218 c 0,16,17
 57 261 57 261 114 261 c 0,18,19
 174 261 174 261 238 173 c 128,-1,20
 302 85 302 85 344 85 c 0,21,22
 435 85 435 85 472 171 c 0,23,24
 500 234 500 234 500 341 c 0,25,26
 500 436 500 436 456 509.5 c 128,-1,27
 412 583 412 583 326 626 c 0,28,29
 297 641 297 641 243.5 642 c 128,-1,30
 190 643 190 643 190 664 c 0,31,32
 190 679 190 679 204.5 686.5 c 128,-1,33
 219 694 219 694 238 694 c 0,34,35
 362 694 362 694 457 560 c 0,36,37
 543 439 543 439 541 315 c 1,0,1
196 154 m 1,38,39
 167 224 167 224 110 224 c 0,40,41
 82 224 82 224 67 204.5 c 128,-1,42
 52 185 52 185 52 166 c 0,43,44
 52 134 52 134 65 109 c 128,-1,45
 78 84 78 84 111 84 c 0,46,47
 143 84 143 84 164.5 104.5 c 128,-1,48
 186 125 186 125 196 154 c 1,38,39
EndSplineSet
EndChar

StartChar: u0C0F
Encoding: 109 3087 115
Width: 620
Flags: W
LayerCount: 2
Back
Fore
SplineSet
212 777 m 1,0,1
 166 766 166 766 134.5 726.5 c 128,-1,2
 103 687 103 687 103 638 c 0,3,4
 103 615 103 615 111 592 c 1,5,6
 115 584 115 584 112.5 578.5 c 128,-1,7
 110 573 110 573 103 573 c 0,8,9
 92 573 92 573 86 587.5 c 128,-1,10
 80 602 80 602 77.5 620 c 128,-1,11
 75 638 75 638 75 652 c 0,12,13
 75 712 75 712 110.5 760 c 128,-1,14
 146 808 146 808 197 819 c 0,15,16
 209 821 209 821 217 814 c 128,-1,17
 225 807 225 807 225 795 c 256,18,19
 225 783 225 783 212 777 c 1,0,1
540 317 m 1,20,21
 540 182 540 182 507 105 c 0,22,23
 463 3 463 3 361 3 c 0,24,25
 314 3 314 3 286 21 c 128,-1,26
 258 39 258 39 235 78 c 1,27,28
 196 35 196 35 189 30 c 0,29,30
 157 4 157 4 117 4 c 0,31,32
 66 4 66 4 35 39.5 c 128,-1,33
 4 75 4 75 4 131 c 0,34,35
 4 185 4 185 27 220 c 0,36,37
 56 263 56 263 113 263 c 0,38,39
 173 263 173 263 237 175 c 128,-1,40
 301 87 301 87 343 87 c 0,41,42
 434 87 434 87 471 173 c 0,43,44
 499 236 499 236 499 343 c 0,45,46
 499 438 499 438 455 511.5 c 128,-1,47
 411 585 411 585 325 628 c 0,48,49
 296 643 296 643 242.5 644 c 128,-1,50
 189 645 189 645 189 666 c 0,51,52
 189 681 189 681 203.5 688.5 c 128,-1,53
 218 696 218 696 237 696 c 0,54,55
 361 696 361 696 456 562 c 0,56,57
 542 441 542 441 540 317 c 1,20,21
195 156 m 1,58,59
 166 226 166 226 109 226 c 0,60,61
 80 226 80 226 65.5 209.5 c 128,-1,62
 51 193 51 193 51 168 c 0,63,64
 51 139 51 139 64 112.5 c 128,-1,65
 77 86 77 86 110 86 c 0,66,67
 142 86 142 86 163.5 106.5 c 128,-1,68
 185 127 185 127 195 156 c 1,58,59
EndSplineSet
EndChar

StartChar: u0C10
Encoding: 110 3088 116
Width: 623
Flags: W
LayerCount: 2
Back
Fore
SplineSet
543 244 m 1,0,1
 543 0 543 0 367 0 c 0,2,3
 316 0 316 0 287 20 c 128,-1,4
 258 40 258 40 233 83 c 1,5,6
 213 47 213 47 183 23.5 c 128,-1,7
 153 0 153 0 117 0 c 0,8,9
 71 0 71 0 37.5 36 c 128,-1,10
 4 72 4 72 4 130 c 0,11,12
 4 183 4 183 29.5 218 c 128,-1,13
 55 253 55 253 111 253 c 0,14,15
 178 253 178 253 232.5 168 c 128,-1,16
 287 83 287 83 352 83 c 0,17,18
 413 83 413 83 464.5 140 c 128,-1,19
 516 197 516 197 516 262 c 0,20,21
 516 316 516 316 480 349.5 c 128,-1,22
 444 383 444 383 395 383 c 0,23,24
 345 383 345 383 315 361 c 128,-1,25
 285 339 285 339 267 289 c 1,26,-1
 262 289 l 1,27,28
 247 318 247 318 232 347 c 1,29,30
 202 383 202 383 138 383 c 0,31,32
 82 383 82 383 52 341 c 1,33,34
 37 318 37 318 22 296 c 1,35,36
 14 303 14 303 14 322 c 0,37,38
 14 369 14 369 37 408 c 0,39,40
 72 465 72 465 139 465 c 0,41,42
 185 465 185 465 227 439 c 1,43,44
 263 410 263 410 270 406 c 1,45,46
 299 435 299 435 307 440 c 0,47,48
 344 465 344 465 398 465 c 0,49,50
 468 465 468 465 507 406.5 c 128,-1,51
 546 348 546 348 543 244 c 1,0,1
195 165 m 1,52,53
 181 187 181 187 170 198 c 0,54,55
 145 224 145 224 109 224 c 0,56,57
 83 224 83 224 65 206.5 c 128,-1,58
 47 189 47 189 47 167 c 0,59,60
 47 125 47 125 63.5 103 c 128,-1,61
 80 81 80 81 112 81 c 0,62,63
 142 81 142 81 168.5 109 c 128,-1,64
 195 137 195 137 195 165 c 1,52,53
EndSplineSet
EndChar

StartChar: u0C12
Encoding: 111 3090 117
Width: 606
Flags: W
LayerCount: 2
Back
Fore
SplineSet
526 141 m 1,0,1
 526 83 526 83 492.5 42 c 128,-1,2
 459 1 459 1 401 1 c 0,3,4
 344 1 344 1 304 31 c 1,5,6
 286 47 286 47 268 65 c 1,7,8
 242 39 242 39 210 19.5 c 128,-1,9
 178 0 178 0 145 0 c 0,10,11
 81 0 81 0 42.5 39.5 c 128,-1,12
 4 79 4 79 4 140 c 0,13,14
 4 226 4 226 115 270.5 c 128,-1,15
 226 315 226 315 226 354 c 0,16,17
 226 373 226 373 208 388 c 1,18,19
 185 409 185 409 141 409 c 0,20,21
 93 409 93 409 67 380 c 1,22,23
 46 347 46 347 27 314 c 1,24,25
 18 314 18 314 16 323.5 c 128,-1,26
 14 333 14 333 14 347 c 0,27,28
 14 396 14 396 50 430.5 c 128,-1,29
 86 465 86 465 137 465 c 0,30,31
 193 465 193 465 228 433 c 128,-1,32
 263 401 263 401 263 351 c 0,33,34
 263 286 263 286 156 245.5 c 128,-1,35
 49 205 49 205 49 176 c 0,36,37
 49 126 49 126 75.5 104.5 c 128,-1,38
 102 83 102 83 146 83 c 256,39,40
 190 83 190 83 223 130 c 0,41,42
 235 148 235 148 268 218 c 1,43,44
 284 179 284 179 300 140 c 1,45,46
 333 83 333 83 382 83 c 0,47,48
 438 83 438 83 464 116 c 0,49,50
 483 141 483 141 483 181 c 0,51,52
 483 200 483 200 469 215 c 128,-1,53
 455 230 455 230 455 238 c 1,54,55
 463 249 463 249 465 249 c 0,56,57
 483 249 483 249 501 226 c 1,58,59
 524 194 524 194 526 141 c 1,0,1
EndSplineSet
EndChar

StartChar: u0C13
Encoding: 112 3091 118
Width: 606
Flags: W
LayerCount: 2
Back
Fore
SplineSet
526 140 m 1,0,1
 526 83 526 83 492 42 c 128,-1,2
 458 1 458 1 401 1 c 256,3,4
 344 1 344 1 304 31 c 1,5,6
 286 47 286 47 268 65 c 1,7,8
 242 39 242 39 210 19.5 c 128,-1,9
 178 0 178 0 145 0 c 0,10,11
 83 0 83 0 44 39 c 128,-1,12
 5 78 5 78 5 139 c 0,13,14
 5 227 5 227 116 271 c 128,-1,15
 227 315 227 315 227 352 c 0,16,17
 227 371 227 371 209 386 c 1,18,19
 186 407 186 407 142 407 c 0,20,21
 94 407 94 407 68 378 c 1,22,23
 47 345 47 345 28 312 c 1,24,25
 22 312 22 312 18.5 319.5 c 128,-1,26
 15 327 15 327 15 346 c 0,27,28
 15 390 15 390 46 422.5 c 128,-1,29
 77 455 77 455 130 462 c 1,30,31
 108 515 108 515 108 559 c 0,32,33
 108 591 108 591 138 591 c 0,34,35
 153 591 153 591 161 585 c 128,-1,36
 169 579 169 579 169 561 c 0,37,38
 169 547 169 547 162 518.5 c 128,-1,39
 155 490 155 490 148 462 c 1,40,41
 201 457 201 457 231 425.5 c 128,-1,42
 261 394 261 394 261 348 c 0,43,44
 261 284 261 284 155 243.5 c 128,-1,45
 49 203 49 203 49 174 c 0,46,47
 49 139 49 139 69 114 c 0,48,49
 95 82 95 82 145 82 c 0,50,51
 185 82 185 82 220 128 c 0,52,53
 239 153 239 153 268 216 c 1,54,55
 304 141 304 141 305 139 c 0,56,57
 340 83 340 83 383 83 c 0,58,59
 429 83 429 83 456.5 113.5 c 128,-1,60
 484 144 484 144 484 180 c 0,61,62
 484 199 484 199 470 214 c 128,-1,63
 456 229 456 229 456 237 c 1,64,65
 464 248 464 248 466 248 c 0,66,67
 484 248 484 248 502 225 c 1,68,69
 525 193 525 193 526 140 c 1,0,1
EndSplineSet
EndChar

StartChar: u0C14
Encoding: 113 3092 119
Width: 669
Flags: W
LayerCount: 2
Back
Fore
SplineSet
589 544 m 0,0,1
 589 493 589 493 563.5 468.5 c 128,-1,2
 538 444 538 444 498 444 c 0,3,4
 469 444 469 444 450.5 464 c 128,-1,5
 432 484 432 484 432 514 c 256,6,7
 432 544 432 544 450 572 c 1,8,-1
 285 572 l 1,9,10
 303 558 303 558 310.5 544 c 128,-1,11
 318 530 318 530 318 519 c 0,12,13
 318 490 318 490 298 468.5 c 128,-1,14
 278 447 278 447 244 447 c 2,15,-1
 207 447 l 1,16,17
 226 429 226 429 238 414 c 0,18,19
 259 389 259 389 259 354 c 0,20,21
 259 290 259 290 152 248.5 c 128,-1,22
 45 207 45 207 45 178 c 0,23,24
 45 143 45 143 65 118 c 0,25,26
 91 86 91 86 140 86 c 0,27,28
 180 86 180 86 215 132 c 0,29,30
 234 157 234 157 263 218 c 1,31,32
 281 179 281 179 300 142 c 1,33,34
 335 86 335 86 378 86 c 0,35,36
 428 86 428 86 453.5 116 c 128,-1,37
 479 146 479 146 479 183 c 0,38,39
 479 201 479 201 465 216 c 128,-1,40
 451 231 451 231 451 240 c 1,41,42
 459 251 459 251 461 251 c 0,43,44
 480 251 480 251 496 228 c 0,45,46
 519 196 519 196 519 140 c 0,47,48
 519 83 519 83 485 42 c 128,-1,49
 451 1 451 1 394 1 c 0,50,51
 347 1 347 1 315 19 c 1,52,53
 287 42 287 42 261 65 c 1,54,55
 236 39 236 39 204 19.5 c 128,-1,56
 172 0 172 0 137 0 c 0,57,58
 74 0 74 0 35.5 39.5 c 128,-1,59
 -3 79 -3 79 -3 139 c 0,60,61
 -3 225 -3 225 108 271 c 128,-1,62
 219 317 219 317 219 354 c 0,63,64
 219 376 219 376 201 391 c 0,65,66
 176 413 176 413 132 413 c 0,67,68
 84 413 84 413 58 383 c 1,69,70
 39 348 39 348 20 315 c 1,71,72
 11 315 11 315 9 324.5 c 128,-1,73
 7 334 7 334 7 348 c 0,74,75
 7 374 7 374 18 395.5 c 128,-1,76
 29 417 29 417 58 443 c 1,77,-1
 12 443 l 2,78,79
 7 443 7 443 2 452 c 1,80,81
 2 456 2 456 9 461 c 0,82,83
 10 461 10 461 11 462 c 1,84,-1
 230 462 l 2,85,86
 252 462 252 462 268.5 473.5 c 128,-1,87
 285 485 285 485 285 511 c 0,88,89
 285 536 285 536 268 550.5 c 128,-1,90
 251 565 251 565 230 565 c 2,91,-1
 32 565 l 2,92,93
 14 565 14 565 8.5 579 c 128,-1,94
 3 593 3 593 3 611 c 0,95,96
 3 625 3 625 5.5 635.5 c 128,-1,97
 8 646 8 646 23 646 c 2,98,-1
 462 646 l 2,99,100
 506 646 506 646 535 631 c 0,101,102
 588 605 588 605 589 544 c 0,0,1
556 509 m 0,103,104
 556 532 556 532 541.5 548.5 c 128,-1,105
 527 565 527 565 499 565 c 0,106,107
 481 565 481 565 466.5 546.5 c 128,-1,108
 452 528 452 528 452 510 c 0,109,110
 452 459 452 459 508 459 c 0,111,112
 556 459 556 459 556 509 c 0,103,104
EndSplineSet
EndChar

StartChar: u0C15.base
Encoding: 190 -1 121
Width: 469
GlyphClass: 2
Flags: W
AnchorPoint: "BLW" 203 0 basechar 0
AnchorPoint: "KI" 169 450 basechar 0
AnchorPoint: "CR" 364 189 basechar 0
AnchorPoint: "V" 200 443 basechar 0
LayerCount: 2
Back
Fore
SplineSet
389 169 m 1,0,1
 389 93 389 93 341.5 47 c 128,-1,2
 294 1 294 1 203 1 c 0,3,4
 128 1 128 1 70 41 c 0,5,6
 3 87 3 87 3 161 c 0,7,8
 3 175 3 175 3.5 191.5 c 128,-1,9
 4 208 4 208 12 208 c 0,10,11
 16 208 16 208 55.5 146 c 128,-1,12
 95 84 95 84 201 84 c 0,13,14
 259 84 259 84 301.5 114 c 128,-1,15
 344 144 344 144 344 183 c 0,16,17
 344 213 344 213 189 235 c 128,-1,18
 34 257 34 257 34 355 c 0,19,20
 34 411 34 411 79 438.5 c 128,-1,21
 124 466 124 466 198 466 c 0,22,23
 261 466 261 466 305.5 442.5 c 128,-1,24
 350 419 350 419 350 376 c 0,25,26
 350 355 350 355 341 355 c 0,27,28
 334 355 334 355 309 385.5 c 128,-1,29
 284 416 284 416 199 416 c 0,30,31
 135 416 135 416 98 399.5 c 128,-1,32
 61 383 61 383 61 340 c 0,33,34
 61 293 61 293 224.5 268 c 128,-1,35
 388 243 388 243 389 169 c 1,0,1
EndSplineSet
Ligature2: "'blws' Below Base Substitutions in Telugu lookup 3 subtable" u0C15.base u0C30.sub
MultipleSubs2: "Multiple Substitution R.sub reordering" u0C30.sub.alt u0C15.base
LCarets2: 1 0
EndChar

StartChar: u0C15.sub
Encoding: 191 -1 122
Width: 593
Flags: W
LayerCount: 2
Back
Fore
SplineSet
573 36 m 0,0,1
 573 6 573 6 550 6 c 2,2,-1
 292 6 l 1,3,4
 308 -27 308 -27 317 -71 c 128,-1,5
 326 -115 326 -115 326 -151 c 0,6,7
 326 -226 326 -226 290 -272 c 0,8,9
 243 -332 243 -332 144 -332 c 0,10,11
 58 -332 58 -332 9 -257 c 0,12,13
 -33 -193 -33 -193 -33 -107 c 0,14,15
 -33 6 -33 6 76.5 110 c 128,-1,16
 186 214 186 214 186 293 c 0,17,18
 186 343 186 343 136 379 c 128,-1,19
 86 415 86 415 33 415 c 0,20,21
 4 415 4 415 4 434 c 0,22,23
 4 445 4 445 13.5 454.5 c 128,-1,24
 23 464 23 464 38 464 c 0,25,26
 103 464 103 464 163 414 c 128,-1,27
 223 364 223 364 223 311 c 0,28,29
 223 190 223 190 113.5 79 c 128,-1,30
 4 -32 4 -32 4 -102 c 0,31,32
 4 -180 4 -180 54 -222 c 0,33,34
 93 -255 93 -255 139 -255 c 0,35,36
 196 -255 196 -255 238 -222 c 1,37,38
 289 -180 289 -180 289 -108 c 0,39,40
 289 -57 289 -57 263.5 -15 c 128,-1,41
 238 27 238 27 199 50 c 1,42,-1
 198 65 l 1,43,-1
 550 65 l 2,44,45
 562 65 562 65 567.5 60.5 c 128,-1,46
 573 56 573 56 573 36 c 0,0,1
EndSplineSet
Ligature2: "Ligature Substitution .sub Halant 2 of 2" u0C15.sub u25CC u0C4D
Ligature2: "'blws' Below Base Substitutions in Telugu lookup 3 subtable" u0C15.sub u0C30.sub
Ligature2: "'blwf' Below Base Form (sub)" u0C15 u0C4D
MultipleSubs2: "Multiple Substitution .sub Halant 1 of 2" u0C4D u0C15.sub u25CC
LCarets2: 2 0 0
EndChar

StartChar: u0C15_u0C4D_u0C37.base
Encoding: 193 -1 124
Width: 514
GlyphClass: 2
Flags: W
LayerCount: 2
Back
Fore
SplineSet
386 172 m 0,0,1
 386 95 386 95 339.5 50 c 128,-1,2
 293 5 293 5 201 5 c 0,3,4
 127 5 127 5 69 45 c 0,5,6
 2 91 2 91 2 165 c 0,7,8
 2 177 2 177 2.5 193.5 c 128,-1,9
 3 210 3 210 12 210 c 0,10,11
 16 210 16 210 55.5 146.5 c 128,-1,12
 95 83 95 83 198 83 c 0,13,14
 258 83 258 83 300 113.5 c 128,-1,15
 342 144 342 144 342 184 c 0,16,17
 342 214 342 214 187.5 235 c 128,-1,18
 33 256 33 256 33 354 c 0,19,20
 33 412 33 412 76 438.5 c 128,-1,21
 119 465 119 465 195 465 c 0,22,23
 259 465 259 465 303 443 c 128,-1,24
 347 421 347 421 347 377 c 0,25,26
 347 355 347 355 338 355 c 0,27,28
 331 355 331 355 306 385.5 c 128,-1,29
 281 416 281 416 196 416 c 0,30,31
 131 416 131 416 96 400 c 128,-1,32
 61 384 61 384 61 341 c 0,33,34
 61 295 61 295 223 270 c 128,-1,35
 385 245 385 245 386 172 c 0,0,1
494.4 -153.601 m 0,36,37
 506 -172.8 506 -172.8 498 -184.5 c 0,38,39
 489.334 -198.576 489.334 -198.576 484.5 -195.5 c 0,40,41
 467 -187 467 -187 434 -150 c 0,42,43
 410 -120 410 -120 385 -105 c 0,44,-1
 349 -148 l 0,45,46
 310.956 -172 310.956 -172 296 -172 c 0,47,48
 262.273 -172 262.273 -172 228 -146 c 0,49,-1
 198 -116 l 0,50,-1
 155 -153 l 0,51,52
 122.673 -172.923 122.673 -172.923 103 -173 c 0,53,54
 -24.933 -173.5 -24.933 -173.5 -26 -25 c 0,55,-1
 -8 -14 l 0,56,57
 4.831 -55.7656 4.831 -55.7656 13 -73 c 0,58,59
 32.6676 -111.243 32.6676 -111.243 99 -107 c 0,60,61
 136.482 -104.603 136.482 -104.603 165 -82 c 0,62,63
 183.731 -67.1543 183.731 -67.1543 194 -44 c 0,64,65
 212.906 -70.7788 212.906 -70.7788 222 -81 c 0,66,67
 243.354 -106 243.354 -106 276 -105 c 0,68,69
 320.812 -105 320.812 -105 337 -88 c 0,70,-1
 367 -54 l 0,71,-1
 391 -13 l 0,72,-1
 405 -20 l 0,73,74
 404.783 -41.2979 404.783 -41.2979 411 -69 c 0,75,76
 416.733 -91.1064 416.733 -91.1064 448.967 -113.353 c 128,-1,77
 481.2 -135.6 481.2 -135.6 494.4 -153.601 c 0,36,37
EndSplineSet
Ligature2: "'psts' Post Base Sub ksh ligature" u0C15 u0C37 u0C4D
Ligature2: "'blws' Below Base Substitutions in Telugu lookup 3 subtable" u0C15_u0C4D_u0C37.base u0C30.sub
MultipleSubs2: "Multiple Substitution R.sub reordering" u0C30.sub.alt u0C15_u0C4D_u0C37.base
LCarets2: 1 0
EndChar

StartChar: u0C16
Encoding: 115 3094 125
Width: 680
Flags: W
AnchorPoint: "BLW" 260 -133 basechar 0
AnchorPoint: "CR" 577 189 basechar 0
LayerCount: 2
Back
Fore
SplineSet
310 -114 m 1,0,1
 310 -137 310 -137 297.5 -146 c 128,-1,2
 285 -155 285 -155 264 -155 c 0,3,4
 248 -155 248 -155 235.5 -145.5 c 128,-1,5
 223 -136 223 -136 223 -115 c 0,6,7
 223 -96 223 -96 244 -54 c 0,8,9
 253 -35 253 -35 264 -16 c 1,10,11
 283 -45 283 -45 292 -63 c 0,12,13
 308 -93 308 -93 310 -114 c 1,0,1
121 345 m 0,14,15
 121 373 121 373 110.5 385.5 c 128,-1,16
 100 398 100 398 70 398 c 0,17,18
 54 398 54 398 41.5 384 c 128,-1,19
 29 370 29 370 29 349 c 0,20,21
 29 323 29 323 43.5 308.5 c 128,-1,22
 58 294 58 294 76 294 c 0,23,24
 98 294 98 294 109.5 307 c 128,-1,25
 121 320 121 320 121 345 c 0,14,15
217 138 m 1,26,27
 194 166 194 166 171 180 c 0,28,29
 142 198 142 198 109 198 c 0,30,31
 48 198 48 198 48 149 c 0,32,33
 48 123 48 123 69 104.5 c 128,-1,34
 90 86 90 86 130 86 c 0,35,36
 156 86 156 86 181 102 c 128,-1,37
 206 118 206 118 217 138 c 1,26,27
248 167 m 1,38,39
 266 190 266 190 275.5 221 c 128,-1,40
 285 252 285 252 285 273 c 0,41,42
 285 348 285 348 235 399 c 0,43,44
 192 443 192 443 148 443 c 1,45,46
 126 445 126 445 112.5 441 c 128,-1,47
 99 437 99 437 81 423 c 1,48,49
 123 423 123 423 152 405 c 0,50,51
 189 382 189 382 189 340 c 256,52,53
 189 298 189 298 156 276 c 0,54,55
 129 258 129 258 90 258 c 0,56,57
 54 258 54 258 29.5 282.5 c 128,-1,58
 5 307 5 307 5 343 c 0,59,60
 5 403 5 403 49 438 c 0,61,62
 86 467 86 467 137 467 c 0,63,64
 214 467 214 467 267 411.5 c 128,-1,65
 320 356 320 356 320 263 c 0,66,67
 320 202 320 202 294 141 c 1,68,69
 309 122 309 122 344 104 c 128,-1,70
 379 86 379 86 411 86 c 0,71,72
 471 86 471 86 517.5 139.5 c 128,-1,73
 564 193 564 193 564 271 c 0,74,75
 564 350 564 350 499 392 c 0,76,77
 453 421 453 421 409 421 c 0,78,79
 391 421 391 421 380.5 425.5 c 128,-1,80
 370 430 370 430 370 446 c 0,81,82
 370 458 370 458 381.5 462 c 128,-1,83
 393 466 393 466 412 466 c 0,84,85
 469 466 469 466 525 411 c 0,86,87
 600 337 600 337 600 207 c 0,88,89
 600 129 600 129 547 64 c 128,-1,90
 494 -1 494 -1 419 -1 c 0,91,92
 368 -1 368 -1 328 24 c 0,93,94
 299 42 299 42 264 82 c 1,95,96
 238 43 238 43 201 21 c 128,-1,97
 164 -1 164 -1 121 -1 c 0,98,99
 75 -1 75 -1 39 29.5 c 128,-1,100
 3 60 3 60 3 110 c 0,101,102
 3 163 3 163 33.5 192 c 128,-1,103
 64 221 64 221 115 221 c 0,104,105
 152 221 152 221 187 203 c 0,106,107
 195 199 195 199 248 167 c 1,38,39
EndSplineSet
Ligature2: "'blws' Below Base Substitutions in Telugu lookup 3 subtable" u0C16 u0C30.sub
AlternateSubs2: "Alternate Substitution lookup 14 subtable" u0C16.base
MultipleSubs2: "Multiple Substitution R.sub reordering" u0C30.sub.alt u0C16
LCarets2: 1 0
EndChar

StartChar: u0C16.base
Encoding: 194 -1 126
Width: 683
GlyphClass: 2
Flags: W
AnchorPoint: "BLW" 266 -106 basechar 0
AnchorPoint: "CR" 579 189 basechar 0
AnchorPoint: "V" 392 457.667 basechar 0
LayerCount: 2
Back
Fore
SplineSet
310 -114 m 1,0,1
 310 -137 310 -137 297.5 -146 c 128,-1,2
 285 -155 285 -155 264 -155 c 0,3,4
 248 -155 248 -155 235.5 -145.5 c 128,-1,5
 223 -136 223 -136 223 -115 c 0,6,7
 223 -100 223 -100 238 -68 c 0,8,9
 243 -57 243 -57 263 -17 c 1,10,11
 275 -36 275 -36 291.5 -68.5 c 128,-1,12
 308 -101 308 -101 310 -114 c 1,0,1
121 345 m 0,13,14
 121 373 121 373 110.5 385.5 c 128,-1,15
 100 398 100 398 70 398 c 0,16,17
 54 398 54 398 41.5 384 c 128,-1,18
 29 370 29 370 29 349 c 0,19,20
 29 323 29 323 43.5 308.5 c 128,-1,21
 58 294 58 294 76 294 c 0,22,23
 98 294 98 294 109.5 307 c 128,-1,24
 121 320 121 320 121 345 c 0,13,14
228 127 m 1,25,26
 198 163 198 163 177 177 c 0,27,28
 147 198 147 198 108 198 c 0,29,30
 47 198 47 198 47 149 c 0,31,32
 47 119 47 119 65.5 102.5 c 128,-1,33
 84 86 84 86 128 86 c 0,34,35
 160 86 160 86 184.5 97 c 128,-1,36
 209 108 209 108 228 127 c 1,25,26
251 158 m 1,37,38
 269 188 269 188 276.5 218 c 128,-1,39
 284 248 284 248 284 273 c 0,40,41
 284 351 284 351 234 401 c 0,42,43
 191 444 191 444 147 444 c 0,44,45
 118 444 118 444 108.5 441.5 c 128,-1,46
 99 439 99 439 80 425 c 1,47,48
 122 425 122 425 151 407 c 0,49,50
 188 384 188 384 188 342 c 256,51,52
 188 300 188 300 155 278 c 0,53,54
 128 260 128 260 89 260 c 0,55,56
 52 260 52 260 28.5 283.5 c 128,-1,57
 5 307 5 307 5 344 c 0,58,59
 5 402 5 402 47 434.5 c 128,-1,60
 89 467 89 467 139 467 c 0,61,62
 217 467 217 467 269 410.5 c 128,-1,63
 321 354 321 354 321 262 c 0,64,65
 321 194 321 194 291 129 c 1,66,67
 320 109 320 109 348 97.5 c 128,-1,68
 376 86 376 86 412 86 c 0,69,70
 468 86 468 86 517.5 140.5 c 128,-1,71
 567 195 567 195 567 273 c 0,72,73
 567 361 567 361 506 408 c 0,74,75
 455 448 455 448 383 448 c 1,76,-1
 383 468 l 1,77,78
 468 468 468 468 518 432 c 0,79,80
 603 371 603 371 603 215 c 0,81,82
 603 134 603 134 556 71 c 0,83,84
 503 1 503 1 422 1 c 0,85,86
 371 1 371 1 331 26 c 0,87,88
 301 45 301 45 269 84 c 1,89,90
 240 45 240 45 204 23 c 128,-1,91
 168 1 168 1 125 1 c 0,92,93
 79 1 79 1 43 31.5 c 128,-1,94
 7 62 7 62 7 112 c 0,95,96
 7 173 7 173 36 198 c 128,-1,97
 65 223 65 223 119 223 c 0,98,99
 166 223 166 223 210 194 c 0,100,101
 219 189 219 189 251 158 c 1,37,38
EndSplineSet
Ligature2: "'blws' Below Base Substitutions in Telugu lookup 3 subtable" u0C16.base u0C30.sub
MultipleSubs2: "Multiple Substitution R.sub reordering" u0C30.sub.alt u0C16.base
LCarets2: 1 0
EndChar

StartChar: u0C16.sub
Encoding: 195 -1 127
Width: 14
Flags: W
AnchorPoint: "BLW" -307 -19 mark 0
LayerCount: 2
Back
Fore
SplineSet
-96 -247 m 0,0,1
 -96 -304 -96 -304 -125 -345 c 128,-1,2
 -154 -386 -154 -386 -207 -386 c 0,3,4
 -232 -386 -232 -386 -258 -372 c 1,5,6
 -284 -354 -284 -354 -310 -336 c 1,7,8
 -328 -352 -328 -352 -347 -370 c 1,9,10
 -372 -385 -372 -385 -402 -385 c 0,11,12
 -431 -385 -431 -385 -454 -367.5 c 128,-1,13
 -477 -350 -477 -350 -477 -317 c 0,14,15
 -477 -281 -477 -281 -460 -261.5 c 128,-1,16
 -443 -242 -443 -242 -406 -242 c 0,17,18
 -390 -242 -390 -242 -374 -247 c 0,19,20
 -344 -258 -344 -258 -316 -286 c 1,21,22
 -305 -270 -305 -270 -299.5 -250.5 c 128,-1,23
 -294 -231 -294 -231 -294 -213 c 0,24,25
 -294 -159 -294 -159 -327 -127 c 0,26,27
 -355 -101 -355 -101 -384 -101 c 1,28,29
 -393 -100 -393 -100 -398 -100 c 0,30,31
 -409 -100 -409 -100 -418 -104 c 128,-1,32
 -427 -108 -427 -108 -435 -115 c 1,33,34
 -405 -115 -405 -115 -383 -127.5 c 128,-1,35
 -361 -140 -361 -140 -361 -168 c 0,36,37
 -361 -194 -361 -194 -379.5 -206.5 c 128,-1,38
 -398 -219 -398 -219 -423 -219 c 0,39,40
 -449 -219 -449 -219 -465 -204.5 c 128,-1,41
 -481 -190 -481 -190 -481 -167 c 0,42,43
 -481 -130 -481 -130 -454 -106 c 128,-1,44
 -427 -82 -427 -82 -391 -82 c 0,45,46
 -337 -82 -337 -82 -302 -119.5 c 128,-1,47
 -267 -157 -267 -157 -267 -221 c 0,48,49
 -267 -242 -267 -242 -275 -264 c 128,-1,50
 -283 -286 -283 -286 -294 -298 c 1,51,52
 -287 -302 -287 -302 -260 -304.5 c 128,-1,53
 -233 -307 -233 -307 -211 -307 c 0,54,55
 -167 -307 -167 -307 -144 -282 c 128,-1,56
 -121 -257 -121 -257 -121 -214 c 0,57,58
 -121 -157 -121 -157 -176 -132 c 128,-1,59
 -231 -107 -231 -107 -231 -102 c 256,60,61
 -231 -97 -231 -97 -227 -94.5 c 128,-1,62
 -223 -92 -223 -92 -216 -90 c 1,63,64
 -176 -98 -176 -98 -157 -112 c 0,65,66
 -96 -154 -96 -154 -96 -247 c 0,0,1
-282 -471 m 0,67,68
 -282 -483 -282 -483 -289.5 -489 c 128,-1,69
 -297 -495 -297 -495 -309 -495 c 0,70,71
 -334 -495 -334 -495 -334 -470 c 0,72,73
 -334 -462 -334 -462 -326 -443.5 c 128,-1,74
 -318 -425 -318 -425 -310 -410 c 1,75,76
 -299 -426 -299 -426 -291 -441 c 128,-1,77
 -283 -456 -283 -456 -282 -471 c 0,67,68
-402 -168 m 0,78,79
 -402 -131 -402 -131 -438 -131 c 0,80,81
 -450 -131 -450 -131 -459 -141.5 c 128,-1,82
 -468 -152 -468 -152 -468 -166 c 0,83,84
 -468 -184 -468 -184 -458 -194.5 c 128,-1,85
 -448 -205 -448 -205 -436 -205 c 0,86,87
 -403 -205 -403 -205 -402 -168 c 0,78,79
-340 -300 m 1,88,89
 -352 -282 -352 -282 -376.5 -272.5 c 128,-1,90
 -401 -263 -401 -263 -413 -263 c 0,91,92
 -434 -263 -434 -263 -449 -281 c 0,93,94
 -450 -283 -450 -283 -455 -288 c 1,95,96
 -455 -304 -455 -304 -437 -310 c 128,-1,97
 -419 -316 -419 -316 -400 -316 c 0,98,99
 -382 -316 -382 -316 -367.5 -314 c 128,-1,100
 -353 -312 -353 -312 -340 -300 c 1,88,89
EndSplineSet
Ligature2: "Ligature Substitution .sub Halant 2 of 2" u0C16.sub u25CC u0C4D
Ligature2: "'blws' Below Base Substitutions in Telugu lookup 3 subtable" u0C16.sub u0C30.sub
Ligature2: "'blwf' Below Base Form (sub)" u0C16 u0C4D
MultipleSubs2: "Multiple Substitution .sub Halant 1 of 2" u0C4D u0C16.sub u25CC
LCarets2: 2 0 0
EndChar

StartChar: u0C16_u0C3F
Encoding: 196 -1 128
Width: 688
GlyphClass: 2
Flags: W
AnchorPoint: "BLW" 266 -91 basechar 0
LayerCount: 2
Back
Fore
SplineSet
310 -116 m 1,0,1
 310 -138 310 -138 297 -147 c 128,-1,2
 284 -156 284 -156 265 -156 c 0,3,4
 249 -156 249 -156 236.5 -146.5 c 128,-1,5
 224 -137 224 -137 224 -118 c 256,6,7
 224 -99 224 -99 245 -57 c 1,8,9
 254 -36 254 -36 265 -17 c 1,10,11
 284 -49 284 -49 293 -65 c 0,12,13
 309 -95 309 -95 310 -116 c 1,0,1
332 648 m 1,14,15
 324 650 324 650 313 652.5 c 128,-1,16
 302 655 302 655 287 655 c 0,17,18
 269 655 269 655 261 653 c 0,19,20
 236 645 236 645 227 619 c 1,21,22
 225 608 225 608 225 604 c 0,23,24
 225 590 225 590 234 579 c 128,-1,25
 243 568 243 568 254.5 565.5 c 128,-1,26
 266 563 266 563 271 563 c 0,27,28
 299 563 299 563 318.5 589.5 c 128,-1,29
 338 616 338 616 332 648 c 1,14,15
123 344 m 0,30,31
 123 370 123 370 112.5 382.5 c 128,-1,32
 102 395 102 395 72 395 c 0,33,34
 56 395 56 395 43.5 381 c 128,-1,35
 31 367 31 367 31 348 c 0,36,37
 31 322 31 322 45.5 307.5 c 128,-1,38
 60 293 60 293 78 293 c 0,39,40
 100 293 100 293 111.5 306 c 128,-1,41
 123 319 123 319 123 344 c 0,30,31
229 128 m 1,42,43
 201 161 201 161 179 176 c 0,44,45
 149 197 149 197 110 197 c 0,46,47
 49 197 49 197 49 150 c 0,48,49
 49 113 49 113 71 100.5 c 128,-1,50
 93 88 93 88 130 88 c 0,51,52
 160 88 160 88 185 98.5 c 128,-1,53
 210 109 210 109 229 128 c 1,42,43
254 163 m 1,54,55
 270 189 270 189 277.5 220.5 c 128,-1,56
 285 252 285 252 285 273 c 0,57,58
 285 350 285 350 234 403 c 0,59,60
 191 447 191 447 147 447 c 0,61,62
 125 447 125 447 112 442.5 c 128,-1,63
 99 438 99 438 80 426 c 1,64,65
 122 426 122 426 151 408 c 0,66,67
 188 385 188 385 188 343 c 256,68,69
 188 301 188 301 155 279 c 0,70,71
 128 261 128 261 89 261 c 0,72,73
 53 261 53 261 28 286 c 128,-1,74
 3 311 3 311 3 346 c 0,75,76
 3 404 3 404 44.5 438 c 128,-1,77
 86 472 86 472 137 472 c 0,78,79
 212 472 212 472 265.5 413 c 128,-1,80
 319 354 319 354 319 265 c 0,81,82
 319 201 319 201 291 138 c 1,83,84
 327 115 327 115 353.5 102.5 c 128,-1,85
 380 90 380 90 409 90 c 0,86,87
 491 90 491 90 537 176 c 0,88,89
 574 247 574 247 574 339 c 0,90,91
 574 463 574 463 513 544 c 0,92,93
 463 609 463 609 374 644 c 1,94,95
 362 586 362 586 337 562.5 c 128,-1,96
 312 539 312 539 270 539 c 0,97,98
 230 539 230 539 202.5 565.5 c 128,-1,99
 175 592 175 592 175 631 c 0,100,101
 175 646 175 646 183 669.5 c 128,-1,102
 191 693 191 693 216 711 c 128,-1,103
 241 729 241 729 278 729 c 0,104,105
 297 729 297 729 316.5 724.5 c 128,-1,106
 336 720 336 720 361 709 c 0,107,108
 463 662 463 662 527 574 c 0,109,110
 608 462 608 462 608 308 c 0,111,112
 608 185 608 185 566 104 c 0,113,114
 515 5 515 5 417 5 c 0,115,116
 377 5 377 5 345 19 c 0,117,118
 306 37 306 37 263 87 c 1,119,120
 234 47 234 47 199 26 c 128,-1,121
 164 5 164 5 118 5 c 0,122,123
 71 5 71 5 35.5 34 c 128,-1,124
 0 63 0 63 0 114 c 0,125,126
 0 170 0 170 30 197 c 128,-1,127
 60 224 60 224 113 224 c 0,128,129
 153 224 153 224 203 196 c 0,130,131
 225 184 225 184 254 163 c 1,54,55
EndSplineSet
Ligature2: "'blws' Below Base Substitutions in Telugu lookup 3 subtable" u0C16_u0C3F u0C30.sub
Ligature2: "'psts' Post Base Sub 0C3F short i" u0C16.base u0C3F
MultipleSubs2: "Multiple Substitution R.sub reordering" u0C30.sub.alt u0C16_u0C3F
LCarets2: 1 0
EndChar

StartChar: u0C17.base
Encoding: 197 -1 130
Width: 532
GlyphClass: 2
Flags: W
AnchorPoint: "BLW" 224 0 basechar 0
AnchorPoint: "TOP" 366 388 basechar 0
AnchorPoint: "CR" 421 189 basechar 0
AnchorPoint: "V" 230 458 basechar 0
LayerCount: 2
Back
Fore
SplineSet
452 156 m 0,0,1
 452 108 452 108 441 64 c 0,2,3
 426 2 426 2 396 2 c 0,4,5
 377 2 377 2 355.5 19.5 c 128,-1,6
 334 37 334 37 334 55 c 1,7,8
 355 98 355 98 371.5 150.5 c 128,-1,9
 388 203 388 203 388 257 c 0,10,11
 388 331 388 331 336.5 389.5 c 128,-1,12
 285 448 285 448 230 448 c 0,13,14
 176 448 176 448 123 388.5 c 128,-1,15
 70 329 70 329 70 257 c 0,16,17
 70 201 70 201 86 148 c 1,18,19
 104 101 104 101 123 55 c 1,20,21
 123 36 123 36 103 19.5 c 128,-1,22
 83 3 83 3 61 3 c 0,23,24
 26 3 26 3 11 91 c 0,25,26
 4 131 4 131 4 159 c 0,27,28
 4 328 4 328 89 410 c 0,29,30
 150 470 150 470 229 470 c 256,31,32
 308 470 308 470 368 412 c 0,33,34
 453 328 453 328 452 156 c 0,0,1
EndSplineSet
Ligature2: "'blws' Below Base Substitutions in Telugu lookup 3 subtable" u0C17.base u0C30.sub
MultipleSubs2: "Multiple Substitution R.sub reordering" u0C30.sub.alt u0C17.base
LCarets2: 1 0
EndChar

StartChar: u0C17.sub
Encoding: 198 -1 131
Width: 14
Flags: W
AnchorPoint: "BLW" -365 -53 mark 0
LayerCount: 2
Back
Fore
SplineSet
-221 -350 m 0,0,1
 -221 -379 -221 -379 -229 -414.5 c 128,-1,2
 -237 -450 -237 -450 -255 -450 c 0,3,4
 -269 -450 -269 -450 -290.5 -438.5 c 128,-1,5
 -312 -427 -312 -427 -312 -418 c 1,6,7
 -291 -390 -291 -390 -274.5 -355 c 128,-1,8
 -258 -320 -258 -320 -258 -285 c 0,9,10
 -258 -235 -258 -235 -292 -198 c 128,-1,11
 -326 -161 -326 -161 -365 -161 c 0,12,13
 -402 -161 -402 -161 -437.5 -198 c 128,-1,14
 -473 -235 -473 -235 -473 -285 c 0,15,16
 -473 -321 -473 -321 -457 -356 c 1,17,18
 -438 -386 -438 -386 -420 -416 c 1,19,20
 -420 -425 -420 -425 -441.5 -436.5 c 128,-1,21
 -463 -448 -463 -448 -477 -448 c 0,22,23
 -496 -448 -496 -448 -504 -414 c 128,-1,24
 -512 -380 -512 -380 -512 -348 c 0,25,26
 -512 -238 -512 -238 -457 -178 c 0,27,28
 -414 -132 -414 -132 -365 -132 c 0,29,30
 -315 -132 -315 -132 -275 -176 c 0,31,32
 -221 -236 -221 -236 -221 -350 c 0,0,1
EndSplineSet
Ligature2: "Ligature Substitution .sub Halant 2 of 2" u0C17.sub u25CC u0C4D
Ligature2: "'blws' Below Base Substitutions in Telugu lookup 3 subtable" u0C17.sub u0C30.sub
Ligature2: "'blwf' Below Base Form (sub)" u0C17 u0C4D
MultipleSubs2: "Multiple Substitution .sub Halant 1 of 2" u0C4D u0C17.sub u25CC
LCarets2: 2 0 0
EndChar

StartChar: u0C18.sub
Encoding: 200 -1 134
Width: 14
Flags: W
AnchorPoint: "BLW" -413 -33 mark 0
LayerCount: 2
Back
Fore
SplineSet
-102 -268 m 1,0,1
 -102 -322 -102 -322 -125 -361 c 1,2,3
 -153 -405 -153 -405 -202 -405 c 0,4,5
 -239 -405 -239 -405 -262.5 -380.5 c 128,-1,6
 -286 -356 -286 -356 -307 -310 c 1,7,8
 -322 -361 -322 -361 -354 -384 c 0,9,10
 -380 -403 -380 -403 -413 -403 c 0,11,12
 -459 -403 -459 -403 -499 -350 c 1,13,14
 -521 -385 -521 -385 -533.5 -394 c 128,-1,15
 -546 -403 -546 -403 -567 -403 c 0,16,17
 -600 -403 -600 -403 -623 -380 c 128,-1,18
 -646 -357 -646 -357 -646 -320 c 0,19,20
 -646 -284 -646 -284 -628 -259.5 c 128,-1,21
 -610 -235 -610 -235 -568 -235 c 0,22,23
 -536 -235 -536 -235 -500 -279.5 c 128,-1,24
 -464 -324 -464 -324 -421 -324 c 0,25,26
 -389 -324 -389 -324 -366 -309 c 0,27,28
 -329 -286 -329 -286 -329 -233 c 0,29,30
 -329 -204 -329 -204 -341.5 -185.5 c 128,-1,31
 -354 -167 -354 -167 -373.5 -154.5 c 128,-1,32
 -393 -142 -393 -142 -421 -138 c 128,-1,33
 -449 -134 -449 -134 -449 -119 c 0,34,35
 -449 -113 -449 -113 -440 -110.5 c 128,-1,36
 -431 -108 -431 -108 -424 -108 c 0,37,38
 -401 -108 -401 -108 -379 -120 c 0,39,40
 -305 -160 -305 -160 -305 -276 c 1,41,-1
 -307 -298 l 1,42,43
 -288 -313 -288 -313 -270 -320 c 128,-1,44
 -252 -327 -252 -327 -215 -327 c 0,45,46
 -182 -327 -182 -327 -161 -308 c 0,47,48
 -135 -283 -135 -283 -135 -237 c 0,49,50
 -135 -169 -135 -169 -191.5 -148 c 128,-1,51
 -248 -127 -248 -127 -248 -120 c 0,52,53
 -248 -112 -248 -112 -241 -110 c 128,-1,54
 -234 -108 -234 -108 -229 -108 c 0,55,56
 -190 -108 -190 -108 -153 -144 c 0,57,58
 -104 -191 -104 -191 -102 -268 c 1,0,1
-479 -489 m 0,59,60
 -479 -514 -479 -514 -505 -514 c 256,61,62
 -531 -514 -531 -514 -531 -489 c 0,63,64
 -531 -480 -531 -480 -524 -465.5 c 128,-1,65
 -517 -451 -517 -451 -505 -430 c 1,66,67
 -494 -445 -494 -445 -486.5 -461 c 128,-1,68
 -479 -477 -479 -477 -479 -489 c 0,59,60
-529 -300 m 1,69,70
 -530 -288 -530 -288 -544 -274 c 128,-1,71
 -558 -260 -558 -260 -577 -260 c 0,72,73
 -602 -260 -602 -260 -614.5 -274 c 128,-1,74
 -627 -288 -627 -288 -627 -304 c 0,75,76
 -627 -316 -627 -316 -613 -327 c 128,-1,77
 -599 -338 -599 -338 -580 -338 c 0,78,79
 -558 -338 -558 -338 -544 -324 c 0,80,81
 -536 -316 -536 -316 -529 -300 c 1,69,70
EndSplineSet
Ligature2: "Ligature Substitution .sub Halant 2 of 2" u0C18.sub u25CC u0C4D
Ligature2: "'blws' Below Base Substitutions in Telugu lookup 3 subtable" u0C18.sub u0C30.sub
Ligature2: "'blwf' Below Base Form (sub)" u0C18 u0C4D
MultipleSubs2: "Multiple Substitution .sub Halant 1 of 2" u0C4D u0C18.sub u25CC
LCarets2: 2 0 0
EndChar

StartChar: u0C19
Encoding: 118 3097 135
Width: 606
Flags: W
AnchorPoint: "BLW" 266 -31 basechar 0
AnchorPoint: "CR" 503 189 basechar 0
AnchorPoint: "MAF" 370.182 458.636 basechar 0
AnchorPoint: "V" 370 451 basechar 0
LayerCount: 2
Back
Fore
SplineSet
526 141 m 256,0,1
 526 83 526 83 492.5 42 c 128,-1,2
 459 1 459 1 401 1 c 0,3,4
 344 1 344 1 304 31 c 1,5,6
 286 47 286 47 268 65 c 1,7,8
 242 39 242 39 210 19.5 c 128,-1,9
 178 0 178 0 145 0 c 0,10,11
 81 0 81 0 42.5 39.5 c 128,-1,12
 4 79 4 79 4 140 c 0,13,14
 4 231 4 231 115 275.5 c 128,-1,15
 226 320 226 320 226 355 c 0,16,17
 226 374 226 374 208 389 c 1,18,19
 185 410 185 410 141 410 c 0,20,21
 93 410 93 410 67 381 c 1,22,23
 46 348 46 348 27 315 c 1,24,25
 18 315 18 315 16 324.5 c 128,-1,26
 14 334 14 334 14 348 c 0,27,28
 14 397 14 397 50 431.5 c 128,-1,29
 86 466 86 466 137 466 c 0,30,31
 194 466 194 466 225.5 432 c 128,-1,32
 257 398 257 398 257 340 c 1,33,-1
 356 340 l 1,34,35
 352 366 352 366 346.5 387 c 128,-1,36
 341 408 341 408 334 436 c 1,37,38
 334 471 334 471 370 471 c 0,39,40
 391 471 391 471 398.5 461.5 c 128,-1,41
 406 452 406 452 406 438 c 0,42,43
 406 420 406 420 394 383 c 0,44,45
 387 362 387 362 380 341 c 1,46,-1
 518 341 l 1,47,-1
 518 315 l 1,48,-1
 247 315 l 1,49,50
 224 279 224 279 131 242 c 0,51,52
 50 210 50 210 50 180 c 0,53,54
 50 147 50 147 72 121 c 0,55,56
 100 88 100 88 147 88 c 0,57,58
 189 88 189 88 215 116 c 0,59,60
 224 125 224 125 270 222 c 1,61,62
 286 183 286 183 302 144 c 1,63,64
 335 87 335 87 384 87 c 0,65,66
 431 87 431 87 458 118.5 c 128,-1,67
 485 150 485 150 485 186 c 0,68,69
 485 205 485 205 471 220 c 128,-1,70
 457 235 457 235 457 243 c 1,71,72
 465 254 465 254 467 254 c 0,73,74
 485 254 485 254 503 231 c 1,75,76
 526 199 526 199 526 141 c 256,0,1
EndSplineSet
MultipleSubs2: "Multiple Substitution R.sub reordering" u0C30.sub.alt u0C19
EndChar

StartChar: u0C19.sub
Encoding: 201 -1 136
Width: 14
Flags: W
AnchorPoint: "BLW" -333 -63 mark 0
LayerCount: 2
Back
Fore
SplineSet
-155 -365 m 1,0,1
 -155 -405 -155 -405 -178 -433.5 c 128,-1,2
 -201 -462 -201 -462 -241 -462 c 0,3,4
 -274 -462 -274 -462 -299 -446 c 0,5,6
 -310 -439 -310 -439 -328 -418 c 1,7,8
 -351 -440 -351 -440 -358 -444 c 0,9,10
 -384 -462 -384 -462 -409 -462 c 0,11,12
 -452 -462 -452 -462 -479 -435 c 128,-1,13
 -506 -408 -506 -408 -506 -365 c 0,14,15
 -506 -308 -506 -308 -433 -279.5 c 128,-1,16
 -360 -251 -360 -251 -360 -235 c 0,17,18
 -360 -223 -360 -223 -371 -211 c 0,19,20
 -386 -195 -386 -195 -412 -195 c 0,21,22
 -442 -195 -442 -195 -460 -214 c 1,23,24
 -474 -236 -474 -236 -488 -258 c 1,25,26
 -496 -258 -496 -258 -498 -250.5 c 128,-1,27
 -500 -243 -500 -243 -500 -231 c 0,28,29
 -500 -196 -500 -196 -475 -172.5 c 128,-1,30
 -450 -149 -450 -149 -414 -149 c 0,31,32
 -389 -149 -389 -149 -365.5 -167 c 128,-1,33
 -342 -185 -342 -185 -334 -214 c 1,34,-1
 -278 -214 l 1,35,-1
 -290 -146 l 1,36,37
 -290 -119 -290 -119 -261 -119 c 0,38,39
 -245 -119 -245 -119 -239.5 -125.5 c 128,-1,40
 -234 -132 -234 -132 -234 -144 c 0,41,42
 -234 -153 -234 -153 -237.5 -169 c 128,-1,43
 -241 -185 -241 -185 -249 -213 c 1,44,-1
 -171 -213 l 1,45,-1
 -171 -239 l 1,46,-1
 -333 -239 l 1,47,48
 -344 -272 -344 -272 -430 -308 c 0,49,50
 -469 -324 -469 -324 -469 -342 c 0,51,52
 -469 -357 -469 -357 -450.5 -365 c 128,-1,53
 -432 -373 -432 -373 -404 -373 c 0,54,55
 -357 -373 -357 -373 -328 -308 c 1,56,57
 -312 -329 -312 -329 -297 -350 c 1,58,59
 -275 -373 -275 -373 -253 -373 c 0,60,61
 -227 -373 -227 -373 -209.5 -364 c 128,-1,62
 -192 -355 -192 -355 -192 -336 c 0,63,64
 -192 -325 -192 -325 -201.5 -315.5 c 128,-1,65
 -211 -306 -211 -306 -211 -299 c 1,66,67
 -209 -295 -209 -295 -206.5 -291.5 c 128,-1,68
 -204 -288 -204 -288 -200 -287 c 1,69,70
 -182 -292 -182 -292 -169 -313 c 128,-1,71
 -156 -334 -156 -334 -155 -365 c 1,0,1
EndSplineSet
Ligature2: "Ligature Substitution .sub Halant 2 of 2" u0C19.sub u25CC u0C4D
Ligature2: "'blws' Below Base Substitutions in Telugu lookup 3 subtable" u0C19.sub u0C30.sub
Ligature2: "'blwf' Below Base Form (sub)" u0C19 u0C4D
MultipleSubs2: "Multiple Substitution .sub Halant 1 of 2" u0C4D u0C19.sub u25CC
LCarets2: 2 0 0
EndChar

